<svg width="132" height="16" viewBox="0 0 132 16" fill="none" xmlns="http://www.w3.org/2000/svg">
<g clip-path="url(#clip0_294_82)">
<path d="M4.62678 0.454545H9.54155L11.5586 8.69318H11.729L16.4734 0.454545H21.3881L18.9734 15H15.1097L16.5018 6.59091H16.3881L11.7859 14.8864H9.45632L7.60973 6.53409H7.49609L6.07564 15H2.212L4.62678 0.454545Z" fill="#7FC4F2"/>
<path d="M15.6843 15L18.099 0.454545H22.0479L21.1104 6.13636H26.3377L27.2752 0.454545H31.224L28.8093 15H24.8604L25.7979 9.31818H20.5706L19.6331 15H15.6843Z" fill="#7FC4F2"/>
<path d="M25.4714 15L27.8861 0.454545H31.835L29.96 11.8182H35.8407L35.3009 15H25.4714Z" fill="#7FC4F2"/>
<path d="M45.2826 0.454545H50.1974L52.2144 8.69318H52.3849L57.1292 0.454545H62.044L59.6292 15H55.7656L57.1576 6.59091H57.044L52.4417 14.8864H50.1122L48.2656 6.53409H48.1519L46.7315 15H42.8678L45.2826 0.454545Z" fill="#7FC4F2"/>
<path d="M76.7963 3.63636L77.3361 0.454545H89.9781L89.4383 3.63636H85.0633L83.1883 15H79.2963L81.1713 3.63636H76.7963Z" fill="#7FC4F2"/>
<path d="M104.407 15L106.822 0.454545H113.1C114.18 0.454545 115.091 0.651041 115.834 1.04403C116.578 1.43703 117.113 2.00284 117.44 2.74148C117.766 3.48011 117.844 4.36553 117.674 5.39773C117.504 6.43939 117.127 7.31771 116.545 8.03267C115.967 8.7429 115.231 9.28267 114.336 9.65199C113.446 10.0166 112.447 10.1989 111.339 10.1989H107.589L108.1 7.13068H111.055C111.519 7.13068 111.926 7.07386 112.276 6.96023C112.627 6.84186 112.911 6.6572 113.129 6.40625C113.346 6.15057 113.488 5.81439 113.555 5.39773C113.621 4.98106 113.588 4.64252 113.455 4.3821C113.323 4.11695 113.102 3.92282 112.795 3.79972C112.487 3.67187 112.106 3.60795 111.651 3.60795H110.259L108.356 15H104.407ZM114.038 8.32386L116.566 15H112.276L109.833 8.32386H114.038Z" fill="#7FC4F2"/>
<path d="M127.013 5C127.055 4.53125 126.942 4.1643 126.672 3.89915C126.402 3.62926 125.947 3.49432 125.308 3.49432C124.901 3.49432 124.56 3.54167 124.285 3.63636C124.016 3.73106 123.805 3.86127 123.653 4.02699C123.507 4.19271 123.414 4.38447 123.376 4.60227C123.334 4.77273 123.336 4.92898 123.383 5.07102C123.436 5.20833 123.533 5.33381 123.675 5.44744C123.821 5.56108 124.013 5.66288 124.25 5.75284C124.491 5.8428 124.778 5.9233 125.109 5.99432L126.246 6.25C127.022 6.42045 127.673 6.64536 128.199 6.92472C128.729 7.19934 129.146 7.52604 129.449 7.90483C129.752 8.28362 129.951 8.70739 130.045 9.17614C130.145 9.64489 130.147 10.1562 130.053 10.7102C129.892 11.6667 129.52 12.4763 128.937 13.1392C128.355 13.8021 127.595 14.3063 126.658 14.652C125.72 14.9976 124.636 15.1705 123.405 15.1705C122.145 15.1705 121.075 14.9834 120.195 14.6094C119.319 14.2306 118.684 13.6529 118.291 12.8764C117.903 12.0952 117.808 11.0985 118.007 9.88636H121.757C121.7 10.3314 121.748 10.7055 121.899 11.0085C122.051 11.3116 122.294 11.5412 122.631 11.6974C122.967 11.8537 123.386 11.9318 123.888 11.9318C124.314 11.9318 124.678 11.8797 124.981 11.7756C125.285 11.6714 125.524 11.527 125.699 11.3423C125.874 11.1577 125.981 10.947 126.018 10.7102C126.056 10.4924 126.018 10.2983 125.905 10.1278C125.791 9.95739 125.585 9.8035 125.287 9.66619C124.989 9.52888 124.579 9.40341 124.058 9.28977L122.666 8.97727C121.43 8.69318 120.498 8.22443 119.868 7.57102C119.238 6.91761 119.016 6.02273 119.2 4.88636C119.352 3.95833 119.733 3.14867 120.344 2.45739C120.959 1.76136 121.74 1.22159 122.687 0.838068C123.639 0.44981 124.693 0.255681 125.848 0.255681C127.022 0.255681 128.005 0.452178 128.795 0.84517C129.591 1.23816 130.161 1.78977 130.507 2.5C130.857 3.21023 130.952 4.04356 130.791 5H127.013Z" fill="#7FC4F2"/>
<path d="M76.481 7.98295C76.2158 9.56439 75.6902 10.8902 74.9042 11.9602C74.1183 13.0303 73.1642 13.8376 72.042 14.3821C70.9199 14.9266 69.7196 15.1989 68.4412 15.1989C67.0775 15.1989 65.8938 14.9029 64.89 14.3111C63.8863 13.7192 63.1547 12.8527 62.6954 11.7116C62.2362 10.5705 62.1438 9.17614 62.4185 7.52841C62.6741 5.94697 63.195 4.61648 63.981 3.53693C64.7669 2.45739 65.7257 1.64062 66.8574 1.08665C67.989 0.53267 69.1988 0.255681 70.4866 0.255681C71.8408 0.255681 73.0174 0.553977 74.0165 1.15057C75.0203 1.74716 75.7494 2.62074 76.204 3.77131C76.6632 4.92187 76.7556 6.32576 76.481 7.98295ZM72.5037 7.52841C72.6363 6.69508 72.6457 5.99432 72.5321 5.42614C72.4185 4.85322 72.1793 4.42235 71.8148 4.13352C71.4502 3.83996 70.9601 3.69318 70.3446 3.69318C69.6438 3.69318 69.0236 3.86364 68.4838 4.20455C67.944 4.54545 67.4966 5.03551 67.1415 5.67472C66.7863 6.31392 66.5378 7.08333 66.3957 7.98295C66.2442 8.82576 66.23 9.52651 66.3531 10.0852C66.481 10.6439 66.7319 11.063 67.106 11.3423C67.4847 11.6217 67.9772 11.7614 68.5832 11.7614C69.2745 11.7614 69.8853 11.5956 70.4156 11.2642C70.9506 10.9328 71.3934 10.4522 71.7437 9.82244C72.0988 9.19271 72.3522 8.42803 72.5037 7.52841Z" fill="#7FC4F2"/>
<path d="M103.481 7.98295C103.216 9.56439 102.69 10.8902 101.904 11.9602C101.118 13.0303 100.164 13.8376 99.042 14.3821C97.9199 14.9266 96.7196 15.1989 95.4412 15.1989C94.0775 15.1989 92.8938 14.9029 91.89 14.3111C90.8863 13.7192 90.1547 12.8527 89.6954 11.7116C89.2362 10.5705 89.1438 9.17614 89.4185 7.52841C89.6741 5.94697 90.195 4.61648 90.981 3.53693C91.7669 2.45739 92.7257 1.64062 93.8574 1.08665C94.989 0.53267 96.1988 0.255681 97.4866 0.255681C98.8408 0.255681 100.017 0.553977 101.016 1.15057C102.02 1.74716 102.749 2.62074 103.204 3.77131C103.663 4.92187 103.756 6.32576 103.481 7.98295ZM99.5037 7.52841C99.6363 6.69508 99.6457 5.99432 99.5321 5.42614C99.4185 4.85322 99.1793 4.42235 98.8148 4.13352C98.4502 3.83996 97.9601 3.69318 97.3446 3.69318C96.6438 3.69318 96.0236 3.86364 95.4838 4.20455C94.944 4.54545 94.4966 5.03551 94.1415 5.67472C93.7863 6.31392 93.5378 7.08333 93.3957 7.98295C93.2442 8.82576 93.23 9.52651 93.3531 10.0852C93.481 10.6439 93.7319 11.063 94.106 11.3423C94.4847 11.6217 94.9772 11.7614 95.5832 11.7614C96.2745 11.7614 96.8853 11.5956 97.4156 11.2642C97.9506 10.9328 98.3934 10.4522 98.7437 9.82244C99.0988 9.19271 99.3522 8.42803 99.5037 7.52841Z" fill="#7FC4F2"/>
</g>
<defs>
<clipPath id="clip0_294_82">
<rect width="132" height="16" fill="white"/>
</clipPath>
</defs>
</svg>
