<svg width="800" height="800" viewBox="0 0 800 800" fill="none" xmlns="http://www.w3.org/2000/svg">
<path d="M624.97 323.652V300.166C624.97 171.208 524.247 66.6667 400 66.6667C275.752 66.6667 175.029 171.208 175.029 300.166V323.652C175.029 351.84 166.991 379.393 151.927 402.847L115.012 460.317C81.294 512.81 107.035 584.163 165.679 600.763C319.091 644.19 480.91 644.19 634.32 600.763C692.967 584.163 718.707 512.81 684.987 460.317L648.073 402.847C633.01 379.393 624.97 351.84 624.97 323.652Z" stroke="white" stroke-width="50"/>
<path d="M250 633.333C271.834 691.593 330.749 733.333 400 733.333C469.25 733.333 528.167 691.593 550 633.333" stroke="white" stroke-width="50" stroke-linecap="round"/>
</svg>
