<svg width="800" height="800" viewBox="0 0 800 800" fill="none" xmlns="http://www.w3.org/2000/svg">
<path d="M250 600C277.614 600 300 622.387 300 650C300 677.613 277.614 700 250 700C222.386 700 200 677.613 200 650C200 622.387 222.386 600 250 600Z" stroke="#D9D9D9" stroke-width="50"/>
<path d="M550 600.003C577.613 600.003 600 622.387 600 650.003C600 677.617 577.613 700.003 550 700.003C522.387 700.003 500 677.617 500 650.003C500 622.387 522.387 600.003 550 600.003Z" stroke="#D9D9D9" stroke-width="50"/>
<path d="M74.9589 76.4153C61.9332 71.8357 47.6615 78.6827 43.0822 91.708C38.5025 104.734 45.3495 119.005 58.3749 123.585L74.9589 76.4153ZM688.594 329.425L713.077 334.473L713.11 334.32L688.594 329.425ZM190.27 325.333V234.612H140.27V325.333H190.27ZM83.6659 79.4763L74.9589 76.4153L58.3749 123.585L67.0819 126.646L83.6659 79.4763ZM364.584 541.667H541.347V491.667H364.584V541.667ZM190.27 234.612C190.27 211.04 190.304 191.37 188.573 175.386C186.782 158.84 182.902 143.749 173.503 129.994L132.221 158.204C135.229 162.607 137.553 168.655 138.864 180.766C140.236 193.44 140.27 209.947 140.27 234.612H190.27ZM67.0819 126.646C89.3355 134.47 103.961 139.655 114.722 144.935C124.83 149.895 129.285 153.909 132.221 158.204L173.503 129.994C164.03 116.132 151.435 107.254 136.747 100.048C122.713 93.1617 104.799 86.9063 83.6659 79.4763L67.0819 126.646ZM140.27 325.333C140.27 373.75 140.724 408.663 145.292 435.337C150.17 463.813 159.908 484.203 178.115 503.407L214.4 469.007C203.728 457.75 197.971 446.727 194.575 426.897C190.869 405.26 190.27 374.967 190.27 325.333H140.27ZM364.584 491.667C317.357 491.667 284.588 491.607 259.899 488.107C236.072 484.727 223.484 478.587 214.4 469.007L178.115 503.407C197.911 524.287 223.004 533.377 252.879 537.61C281.892 541.727 318.845 541.667 364.584 541.667V491.667ZM165.27 229H569.627V179H165.27V229ZM664.107 324.378L647.45 405.203L696.42 415.297L713.077 334.473L664.107 324.378ZM569.627 229C598.174 229 623.297 229.033 643.124 231.25C652.977 232.351 660.35 233.881 665.53 235.702C670.91 237.592 671.767 239.042 671.337 238.48L710.967 207.993C703.134 197.812 692.12 192.048 682.107 188.529C671.89 184.939 660.337 182.862 648.68 181.559C625.487 178.967 597.247 179 569.627 179V229ZM713.11 334.32C718.75 306.056 723.54 282.341 724.714 263.346C725.917 243.806 723.694 224.539 710.967 207.993L671.337 238.48C673.404 241.169 675.687 246.012 674.807 260.266C673.894 275.064 670.007 294.826 664.077 324.532L713.11 334.32ZM541.347 541.667C566.737 541.667 588.044 541.71 605.22 539.607C623.077 537.423 639.364 532.647 653.58 521.06L621.994 482.3C617.82 485.7 611.904 488.417 599.147 489.98C585.707 491.623 567.99 491.667 541.347 491.667V541.667ZM647.45 405.203C642.07 431.297 638.45 448.643 634.127 461.473C630.024 473.65 626.167 478.9 621.994 482.3L653.58 521.06C667.797 509.473 675.764 494.487 681.51 477.44C687.037 461.04 691.294 440.163 696.42 415.297L647.45 405.203Z" fill="#D9D9D9"/>
</svg>
