<svg width="786" height="546" viewBox="0 0 786 546" fill="none" xmlns="http://www.w3.org/2000/svg">
<path fill-rule="evenodd" clip-rule="evenodd" d="M178 20.003V40.006H228.5H279V53.465V66.924L225.75 67.215L172.5 67.506L167.753 69.844C161.879 72.737 156.616 78.735 155.053 84.318C154.402 86.643 153.786 95.4 153.684 103.776L153.5 119.006H123.432C89.48 119.006 85.704 119.569 78.999 125.626C76.864 127.555 74.078 131.242 72.808 133.82L70.5 138.506L70.213 198.791L69.926 259.075L59.713 258.791L49.5 258.506V201.506V144.506L24.75 144.239L0 143.971V283.489V423.006H24.794H49.588L49.471 366.529C49.406 335.466 49.612 309.703 49.927 309.276C50.242 308.849 54.888 308.485 60.25 308.466L70 308.432V366.537C70 431.513 70.017 431.699 76.738 439.138C78.732 441.345 82.194 444.131 84.432 445.328C88.385 447.445 89.629 447.515 128.5 447.816L168.5 448.126L172.987 454.316C175.454 457.721 190.622 478.149 206.692 499.713C237.17 540.608 239.215 542.849 248 544.982C251.186 545.756 299.957 545.992 415 545.791L577.5 545.506L582.247 543.168C588.144 540.264 593.471 534.169 595.405 528.115C596.214 525.58 600.773 509.556 605.534 492.506C610.295 475.456 615.092 458.468 616.193 454.756L618.195 448.006L629.847 448.011L641.5 448.016L645.162 459.761C647.177 466.221 652.715 484.106 657.469 499.506C662.224 514.906 666.638 528.853 667.279 530.499C668.924 534.726 674.647 540.767 679.432 543.328C683.386 545.445 684.469 545.506 718 545.501C748.711 545.497 752.908 545.305 756.213 543.753C761.944 541.063 766.548 536.488 768.781 531.263C773.299 520.696 780.431 465.53 784.198 412.006C785.944 387.191 785.963 284.053 784.226 259.506C781.33 218.592 777.943 187.946 772.896 157.006C769.423 135.708 767.093 129.535 760.812 124.985C753.72 119.848 752.026 119.641 716.5 119.571C684.451 119.508 683.383 119.569 679.432 121.684C670.456 126.488 669.002 129.229 659.017 160.169C653.987 175.754 647.77 194.932 645.202 202.786L640.532 217.065L629.062 216.786L617.592 216.506L614.89 207.006C613.404 201.781 608.288 183.331 603.52 166.006C598.753 148.681 593.968 133.075 592.888 131.326C589.782 126.298 584.466 122.222 578.833 120.549C574.957 119.398 568.874 119.006 554.883 119.006H536.129L535.814 101.673C535.501 84.369 535.495 84.331 532.478 79.456C528.83 73.562 523.173 69.475 516.701 68.057C513.737 67.408 494.516 67.006 466.451 67.006H421V53.506V40.006H466.521H512.042L511.771 20.256L511.5 0.505997L344.75 0.252998L178 0V20.003ZM486.188 133.256C486.669 151.708 487.849 155.849 494.451 162.262C500.686 168.317 504.32 169.006 530.003 169.006H552.65L560.423 197.256C573.645 245.309 575.148 250.384 577.357 254.459C579.917 259.182 586.62 264.529 591.775 265.96C596.95 267.398 660.268 267.337 665.481 265.89C671.604 264.19 677.292 259.729 680.188 254.354C682.368 250.309 695.806 209.838 705.802 177.217L708.341 168.928L715.921 169.217L723.5 169.506L724.656 176.506C728.325 198.716 733.262 246.163 734.489 271.006C734.801 277.331 735.285 284.756 735.563 287.506C736.323 294.996 736.295 368.652 735.528 383.006C733.693 417.299 729.976 457.467 726.228 483.506L724.5 495.506L716.5 495.791L708.5 496.076L706.364 488.791C700.393 468.425 683.55 415.124 682.257 412.506C680.135 408.208 675.136 403.175 670.5 400.668C666.605 398.563 665.526 398.506 629.5 398.506C593.406 398.506 592.4 398.559 588.432 400.684C583.674 403.23 577.951 409.254 576.244 413.513C575.083 416.41 553 494.218 553 495.414C553 495.739 488.466 496.006 409.59 496.006H266.181L233.968 452.756C216.25 428.968 200.347 408.004 198.627 406.168C196.907 404.333 193.7 401.858 191.5 400.668C187.661 398.593 186.146 398.494 153.75 398.207L120 397.907V283.457V169.006H151.134C172.105 169.006 183.549 168.622 186.193 167.83C191.328 166.292 198.81 159.632 201.122 154.545C202.664 151.15 202.96 147.836 202.978 133.756L203 117.006H344.383H485.765L486.188 133.256Z" fill="white"/>
</svg>
