<svg width="800" height="800" viewBox="0 0 800 800" fill="none" xmlns="http://www.w3.org/2000/svg">
<path d="M400 183.354L381.987 200.691C386.7 205.588 393.204 208.354 400 208.354C406.797 208.354 413.3 205.588 418.014 200.691L400 183.354ZM314.202 610.73C263.68 570.903 208.436 532.01 164.61 482.66C121.641 434.273 91.667 377.817 91.667 304.57H41.667C41.667 393.42 78.6837 461.203 127.224 515.86C174.908 569.553 235.693 612.507 283.248 649.997L314.202 610.73ZM91.667 304.57C91.667 232.874 132.179 172.751 187.479 147.473C241.203 122.916 313.389 129.419 381.987 200.691L418.014 166.018C336.617 81.4507 242.137 67.513 166.692 101.999C92.824 135.764 41.667 214.168 41.667 304.57H91.667ZM283.248 649.997C300.322 663.457 318.652 677.81 337.227 688.663C355.797 699.513 376.987 708.333 400 708.333V658.333C389.68 658.333 377.537 654.31 362.454 645.493C347.377 636.683 331.736 624.553 314.202 610.73L283.248 649.997ZM516.754 649.997C564.307 612.507 625.094 569.553 672.777 515.86C721.317 461.203 758.334 393.42 758.334 304.57H708.334C708.334 377.817 678.36 434.273 635.39 482.66C591.564 532.01 536.32 570.903 485.8 610.73L516.754 649.997ZM758.334 304.57C758.334 214.168 707.177 135.764 633.307 101.999C557.864 67.513 463.384 81.4507 381.987 166.018L418.014 200.691C486.61 129.419 558.797 122.916 612.52 147.473C667.82 172.751 708.334 232.874 708.334 304.57H758.334ZM485.8 610.73C468.264 624.553 452.624 636.683 437.547 645.493C422.464 654.31 410.32 658.333 400 658.333V708.333C423.014 708.333 444.204 699.513 462.774 688.663C481.35 677.81 499.677 663.457 516.754 649.997L485.8 610.73Z" fill="#D9D9D9"/>
<path d="M298.725 630.363L314.202 610.73M314.202 610.73C263.68 570.903 208.436 532.01 164.61 482.66C121.641 434.273 91.667 377.817 91.667 304.57M314.202 610.73L283.248 649.997M314.202 610.73C331.736 624.553 347.377 636.683 362.454 645.493C377.537 654.31 389.68 658.333 400 658.333M381.987 200.691L400 183.354L418.014 200.691M381.987 200.691C386.7 205.588 393.204 208.354 400 208.354C406.797 208.354 413.3 205.588 418.014 200.691M381.987 200.691C313.389 129.419 241.203 122.916 187.479 147.473C132.179 172.751 91.667 232.874 91.667 304.57M381.987 200.691L418.014 166.018C336.617 81.4507 242.137 67.513 166.692 101.999C92.824 135.764 41.667 214.168 41.667 304.57M418.014 200.691L381.987 166.018C463.384 81.4507 557.864 67.513 633.307 101.999C707.177 135.764 758.334 214.168 758.334 304.57M418.014 200.691C486.61 129.419 558.797 122.916 612.52 147.473C667.82 172.751 708.334 232.874 708.334 304.57M501.277 630.363L516.754 649.997M516.754 649.997C564.307 612.507 625.094 569.553 672.777 515.86C721.317 461.203 758.334 393.42 758.334 304.57M516.754 649.997L485.8 610.73M516.754 649.997C499.677 663.457 481.35 677.81 462.774 688.663C444.204 699.513 423.014 708.333 400 708.333M91.667 304.57H41.667M41.667 304.57C41.667 393.42 78.6837 461.203 127.224 515.86C174.908 569.553 235.693 612.507 283.248 649.997M283.248 649.997C300.322 663.457 318.652 677.81 337.227 688.663C355.797 699.513 376.987 708.333 400 708.333M400 708.333V658.333M400 658.333C410.32 658.333 422.464 654.31 437.547 645.493C452.624 636.683 468.264 624.553 485.8 610.73M758.334 304.57H708.334M708.334 304.57C708.334 377.817 678.36 434.273 635.39 482.66C591.564 532.01 536.32 570.903 485.8 610.73" stroke="#D9D9D9"/>
</svg>
