<svg width="404" height="55" viewBox="0 0 404 55" fill="none" xmlns="http://www.w3.org/2000/svg">
<path d="M30 0L22.4 19.6429L20 27.4214L17.7 19.6429L10 0H0V55H10V23.5714L9.2 15.7143L12.1 23.5714L20 41.7607L27.9 23.5714L30.8 15.7143L30 23.5714V55H40V0H30Z" fill="#D9D9D9"/>
<path d="M30 0L22.4 19.6429L20 27.4214L17.7 19.6429L10 0H0V55H10V23.5714L9.2 15.7143L12.1 23.5714L20 41.7607L27.9 23.5714L30.8 15.7143L30 23.5714V55H40V0H30Z" fill="#D9D9D9"/>
<path d="M60 0V23.5714H40V0H30V55H40V31.4286H60V55H70V0H60Z" fill="#D9D9D9"/>
<path d="M70 47.1429V0H60V55H100V47.1429H70Z" fill="#D9D9D9"/>
<path fill-rule="evenodd" clip-rule="evenodd" d="M198.33 0.0427277C198.909 -0.000424753 199.559 -0.000172124 200.09 2.78754e-05H202.91C203.441 -0.000172124 204.091 -0.000424753 204.67 0.0427277C205.355 0.0937277 206.304 0.223403 207.321 0.673427C208.607 1.24223 209.708 2.1434 210.503 3.27868C211.133 4.17687 211.425 5.06375 211.593 5.71075C211.736 6.25835 211.846 6.88122 211.936 7.38925L212.3 9.44087L212.307 9.4447C212.397 9.4928 212.486 9.54147 212.574 9.59075L212.581 9.59435L214.991 8.74662C215.48 8.57445 216.081 8.36272 216.631 8.21357C217.284 8.037 218.205 7.84722 219.301 7.92565C220.69 8.02495 222.024 8.48742 223.164 9.26407C224.064 9.87737 224.654 10.5909 225.044 11.1287C225.374 11.5831 225.702 12.1168 225.968 12.5507L227.259 14.6501C227.541 15.1086 227.886 15.6678 228.151 16.1882C228.464 16.8007 228.846 17.6868 228.961 18.8017C229.106 20.2055 228.841 21.6208 228.196 22.8847C227.684 23.8885 227.005 24.5867 226.49 25.053C226.053 25.4487 225.528 25.8542 225.098 26.1865L223.361 27.5L225.098 28.8135C225.528 29.146 226.053 29.5512 226.49 29.9472C227.005 30.4132 227.684 31.1115 228.196 32.1152C228.841 33.3792 229.106 34.7945 228.961 36.1985C228.846 37.3132 228.464 38.1992 228.151 38.812C227.885 39.3322 227.541 39.8915 227.259 40.35L225.968 42.4497C225.702 42.8837 225.374 43.417 225.044 43.8712C224.654 44.4092 224.064 45.1227 223.164 45.736C222.024 46.5127 220.689 46.9752 219.301 47.0745C218.205 47.153 217.284 46.963 216.631 46.7865C216.08 46.6372 215.479 46.4257 214.99 46.2535L212.581 45.4057L212.574 45.4095C212.486 45.4587 212.397 45.5072 212.307 45.5555L212.3 45.5592L211.936 47.6107C211.846 48.1187 211.736 48.7417 211.593 49.2892C211.425 49.9362 211.133 50.8232 210.503 51.7215C209.708 52.8567 208.607 53.758 207.321 54.3267C206.304 54.7767 205.355 54.9065 204.67 54.9575C204.091 55.0005 203.441 55.0002 202.91 55H200.09C199.559 55.0002 198.909 55.0005 198.33 54.9575C197.645 54.9065 196.696 54.7767 195.679 54.3267C194.393 53.758 193.292 52.8567 192.497 51.7215C191.867 50.8232 191.575 49.9362 191.407 49.2892C191.264 48.7417 191.154 48.1187 191.064 47.6107L190.7 45.5592L190.693 45.5555C190.603 45.5072 190.514 45.4587 190.426 45.4092L190.419 45.4057L188.01 46.2535C187.521 46.4255 186.92 46.6372 186.369 46.7865C185.716 46.963 184.795 47.1527 183.699 47.0745C182.311 46.9752 180.976 46.5127 179.836 45.736C178.936 45.1227 178.346 44.4092 177.956 43.8712C177.626 43.417 177.298 42.8835 177.032 42.4495L175.741 40.35C175.459 39.8915 175.115 39.3322 174.849 38.812C174.536 38.1992 174.154 37.3132 174.039 36.1985C173.894 34.7945 174.159 33.3792 174.804 32.1152C175.316 31.1115 175.995 30.4132 176.51 29.9472C176.947 29.5512 177.472 29.146 177.902 28.8135L179.584 27.5135V27.4867L177.902 26.1865C177.472 25.8542 176.947 25.4487 176.51 25.053C175.995 24.5867 175.316 23.8885 174.804 22.8847C174.159 21.6208 173.894 20.2056 174.039 18.8017C174.154 17.6869 174.536 16.8008 174.849 16.1882C175.115 15.6679 175.459 15.1087 175.741 14.6501L177.032 12.5506C177.298 12.1167 177.626 11.5831 177.956 11.1288C178.346 10.5909 178.936 9.8774 179.836 9.26412C180.976 8.48745 182.311 8.02497 183.699 7.92567C184.795 7.84725 185.716 8.03702 186.369 8.2136C186.92 8.36277 187.521 8.5745 188.009 8.74667L190.419 9.59437L190.426 9.59075C190.514 9.5415 190.603 9.4928 190.693 9.4447L190.7 9.44087L191.064 7.38927C191.154 6.88125 191.264 6.25835 191.407 5.71075C191.575 5.06375 191.867 4.17687 192.497 3.27868C193.292 2.1434 194.393 1.24223 195.679 0.673427C196.696 0.223403 197.645 0.0937277 198.33 0.0427277ZM206.885 8.34075C206.672 7.14085 206.566 6.54092 206.252 6.09292C205.987 5.7145 205.62 5.4141 205.191 5.2245C204.683 5.00005 204.057 5.00005 202.805 5.00005H200.195C198.943 5.00005 198.316 5.00005 197.809 5.2245C197.38 5.4141 197.013 5.7145 196.748 6.09292C196.435 6.54092 196.328 7.14085 196.115 8.34075L195.714 10.6016C195.571 11.4083 195.499 11.8117 195.347 12.1217C195.198 12.4262 195.077 12.5926 194.83 12.8291C194.578 13.0701 194.112 13.3202 193.182 13.8205C193.113 13.8574 193.045 13.8948 192.976 13.9325C192.086 14.4269 191.641 14.6741 191.31 14.7578C190.985 14.84 190.783 14.857 190.449 14.8299C190.108 14.8023 189.727 14.6681 188.964 14.3997L186.357 13.4827C185.202 13.0762 184.624 12.873 184.076 12.9122C183.614 12.9453 183.169 13.0994 182.789 13.3583C182.339 13.6647 182.024 14.1773 181.394 15.2026L180.212 17.1241C179.547 18.2065 179.214 18.7477 179.157 19.3019C179.108 19.7699 179.197 20.2416 179.412 20.663C179.666 21.162 180.174 21.5544 181.189 22.3392L183.053 23.7805C183.701 24.281 184.025 24.5315 184.228 24.7997C184.447 25.09 184.541 25.2785 184.638 25.626C184.728 25.9475 184.728 26.465 184.728 27.5C184.728 28.535 184.728 29.0525 184.638 29.3742C184.541 29.7217 184.447 29.9102 184.228 30.2002C184.025 30.4687 183.701 30.719 183.053 31.2197L181.189 32.6607C180.174 33.4457 179.666 33.838 179.412 34.3372C179.197 34.7585 179.108 35.2302 179.157 35.6982C179.214 36.2525 179.547 36.7935 180.212 37.876L181.394 39.7975C182.024 40.8227 182.339 41.3355 182.789 41.6417C183.169 41.9007 183.614 42.0547 184.076 42.088C184.624 42.127 185.202 41.9237 186.357 41.5175L188.964 40.6005C189.727 40.332 190.108 40.1977 190.449 40.1702C190.783 40.1432 190.985 40.16 191.31 40.2422C191.641 40.326 192.086 40.5732 192.976 41.0675C193.045 41.1052 193.113 41.1427 193.182 41.1795C194.112 41.6797 194.578 41.93 194.83 42.171C195.077 42.4075 195.198 42.574 195.347 42.8785C195.499 43.1885 195.571 43.5917 195.714 44.3985L196.115 46.6592C196.328 47.8592 196.435 48.4592 196.748 48.9072C197.013 49.2855 197.38 49.586 197.809 49.7755C198.316 50 198.943 50 200.195 50H202.805C204.057 50 204.683 50 205.191 49.7755C205.62 49.586 205.987 49.2855 206.252 48.9072C206.566 48.4592 206.672 47.8592 206.885 46.6592L207.286 44.3985C207.429 43.5917 207.501 43.1885 207.653 42.8785C207.802 42.574 207.923 42.4075 208.17 42.171C208.422 41.93 208.888 41.6797 209.818 41.1795C209.887 41.1427 209.955 41.1052 210.023 41.0675C210.914 40.5732 211.359 40.326 211.69 40.2422C212.015 40.16 212.217 40.1432 212.551 40.1702C212.892 40.1977 213.273 40.332 214.036 40.6005L216.643 41.5175C217.798 41.924 218.376 42.1272 218.924 42.088C219.386 42.0547 219.831 41.9007 220.211 41.6417C220.661 41.3355 220.976 40.8227 221.606 39.7975L222.788 37.876C223.453 36.7937 223.786 36.2525 223.843 35.6982C223.892 35.2302 223.803 34.7585 223.588 34.3372C223.334 33.8382 222.826 33.4457 221.811 32.6607L219.947 31.2197C219.299 30.719 218.975 30.4687 218.772 30.2002C218.553 29.9102 218.459 29.7217 218.362 29.3742C218.272 29.0527 218.272 28.535 218.272 27.5C218.272 26.465 218.272 25.9475 218.362 25.626C218.459 25.2785 218.553 25.09 218.772 24.7997C218.975 24.5315 219.299 24.281 219.947 23.7805L221.811 22.3392C222.826 21.5544 223.334 21.162 223.589 20.6629C223.804 20.2416 223.892 19.7699 223.843 19.3019C223.786 18.7476 223.453 18.2065 222.788 17.1241L221.606 15.2025C220.976 14.1773 220.661 13.6647 220.211 13.3583C219.831 13.0994 219.387 12.9452 218.924 12.9121C218.376 12.873 217.799 13.0762 216.643 13.4827L214.036 14.3997C213.273 14.6681 212.892 14.8023 212.551 14.8299C212.217 14.8569 212.015 14.84 211.69 14.7578C211.359 14.6741 210.914 14.4269 210.024 13.9325C209.955 13.8948 209.887 13.8574 209.819 13.8205C208.888 13.3202 208.422 13.0701 208.17 12.8291C207.923 12.5926 207.802 12.4262 207.653 12.1217C207.501 11.8117 207.429 11.4083 207.286 10.6016L206.885 8.34075Z" fill="#D9D9D9"/>
<path fill-rule="evenodd" clip-rule="evenodd" d="M259.043 30.6703C259 30.0911 259 29.4407 259 28.9104V26.0896C259 25.5593 259 24.9089 259.043 24.3297C259.094 23.645 259.223 22.6963 259.673 21.6789C260.242 20.3927 261.143 19.292 262.279 18.4967C263.177 17.8674 264.064 17.5747 264.711 17.4065C265.258 17.2643 265.881 17.154 266.389 17.0642L268.441 16.7001L268.445 16.6929C268.493 16.6034 268.541 16.5144 268.591 16.4256L268.594 16.419L267.747 14.0094C267.574 13.5205 267.363 12.9195 267.214 12.3686C267.037 11.7164 266.847 10.7949 266.926 9.69874C267.025 8.31047 267.487 6.97594 268.264 5.8361C268.877 4.93622 269.591 4.34598 270.129 3.95583C270.583 3.62586 271.117 3.29821 271.551 3.03151L273.65 1.74096C274.109 1.45858 274.668 1.11447 275.188 0.848796C275.801 0.53606 276.687 0.154141 277.802 0.0386657C279.206 -0.106386 280.621 0.158512 281.885 0.803529C282.888 1.31584 283.587 1.99481 284.053 2.50969C284.449 2.9469 284.854 3.47181 285.186 3.90208L286.5 5.63936L287.813 3.90208C288.146 3.47181 288.551 2.9469 288.947 2.50969C289.413 1.99481 290.111 1.31584 291.115 0.803789C292.379 0.158772 293.794 -0.106388 295.198 0.0389207C296.313 0.154139 297.199 0.536316 297.812 0.849051C298.332 1.11472 298.891 1.45883 299.35 1.74096L301.45 3.03203C301.884 3.29847 302.417 3.62612 302.871 3.95583C303.409 4.34624 304.123 4.93621 304.736 5.83636C305.513 6.97594 305.975 8.31072 306.074 9.69874C306.153 10.7949 305.963 11.7164 305.786 12.3686C305.637 12.9197 305.426 13.5208 305.253 14.0097L304.406 16.4192L304.409 16.4256C304.459 16.5144 304.507 16.6034 304.555 16.6929L304.559 16.7001L306.611 17.0642C307.119 17.154 307.742 17.2643 308.289 17.4065C308.936 17.5747 309.823 17.8674 310.721 18.4967C311.857 19.292 312.758 20.3927 313.327 21.6789C313.777 22.6963 313.906 23.645 313.957 24.3297C314 24.9091 314 25.5593 314 26.0896V28.9104C314 29.4407 314 30.0911 313.957 30.6703C313.906 31.3549 313.777 32.3037 313.327 33.3212C312.758 34.6073 311.857 35.708 310.721 36.5033C309.823 37.1325 308.936 37.4253 308.289 37.5934C307.742 37.7356 307.119 37.8459 306.611 37.9359L304.559 38.2999L304.555 38.3071C304.507 38.3966 304.459 38.4857 304.409 38.5744L304.406 38.5809L305.253 40.9903C305.425 41.4792 305.637 42.0803 305.786 42.6314C305.963 43.2837 306.153 44.205 306.074 45.3012C305.975 46.6893 305.513 48.024 304.736 49.1638C304.123 50.0637 303.409 50.6539 302.871 51.0442C302.417 51.3739 301.883 51.7016 301.449 51.9682L299.35 53.259C298.891 53.5412 298.332 53.8853 297.812 54.151C297.199 54.4638 296.313 54.8458 295.198 54.9612C293.794 55.1064 292.379 54.8413 291.115 54.1963C290.111 53.6841 289.413 53.0052 288.947 52.4903C288.551 52.053 288.146 51.5282 287.813 51.0979L286.513 49.416H286.487L285.186 51.098C284.854 51.5284 284.449 52.0531 284.053 52.4904C283.587 53.0053 282.888 53.6842 281.885 54.1964C280.621 54.8414 279.206 55.1065 277.802 54.9613C276.687 54.846 275.801 54.4639 275.188 54.1511C274.668 53.8854 274.109 53.5413 273.65 53.2591L271.551 51.9683C271.117 51.7018 270.583 51.374 270.129 51.0443C269.591 50.654 268.877 50.0639 268.264 49.1639C267.487 48.0241 267.025 46.6894 266.926 45.3013C266.847 44.2051 267.037 43.2838 267.214 42.6315C267.363 42.0804 267.574 41.4794 267.747 40.9905L268.594 38.581L268.591 38.5745C268.541 38.4857 268.493 38.3966 268.445 38.3071L268.441 38.2999L266.389 37.9359C265.881 37.8459 265.258 37.7356 264.711 37.5934C264.064 37.4253 263.177 37.1325 262.279 36.5033C261.143 35.708 260.242 34.6073 259.673 33.3212C259.223 32.3037 259.094 31.3549 259.043 30.6703ZM267.341 22.1151C266.141 22.328 265.541 22.4345 265.093 22.7483C264.714 23.0134 264.414 23.3802 264.224 23.8089C264 24.3166 264 24.9428 264 26.1953V28.8047C264 30.0572 264 30.6837 264.224 31.1911C264.414 31.6198 264.714 31.9865 265.093 32.2517C265.541 32.5655 266.141 32.6721 267.341 32.885L269.602 33.2863C270.408 33.4295 270.812 33.5011 271.122 33.6527C271.426 33.8016 271.593 33.9234 271.829 34.1704C272.07 34.422 272.32 34.8875 272.821 35.8185C272.857 35.8872 272.895 35.9555 272.933 36.0235C273.427 36.914 273.674 37.3593 273.758 37.69C273.84 38.0147 273.857 38.217 273.83 38.5514C273.802 38.892 273.668 39.2734 273.4 40.0364L272.483 42.6431C272.076 43.7985 271.873 44.3761 271.912 44.9238C271.945 45.3865 272.099 45.8314 272.358 46.2113C272.665 46.6609 273.177 46.9761 274.203 47.6065L276.124 48.7879C277.206 49.4533 277.748 49.7861 278.302 49.8434C278.77 49.8918 279.242 49.8034 279.663 49.5884C280.162 49.3338 280.554 48.8262 281.339 47.8109L282.78 45.9466C283.281 45.299 283.531 44.9752 283.8 44.7722C284.09 44.5527 284.278 44.4591 284.626 44.3621C284.947 44.2724 285.465 44.2724 286.5 44.2724C287.535 44.2724 288.052 44.2724 288.374 44.3621C288.722 44.4591 288.91 44.5527 289.2 44.7721C289.469 44.9752 289.719 45.299 290.22 45.9467L291.661 47.8108C292.446 48.826 292.838 49.3337 293.337 49.5883C293.758 49.8033 294.23 49.8917 294.698 49.8433C295.252 49.786 295.793 49.4532 296.876 48.7878L298.797 47.6064C299.823 46.976 300.335 46.6608 300.642 46.2112C300.901 45.8313 301.055 45.3864 301.088 44.9237C301.127 44.376 300.924 43.7984 300.517 42.643L299.6 40.0363C299.332 39.2734 299.198 38.8919 299.17 38.5514C299.143 38.217 299.16 38.0147 299.242 37.69C299.326 37.3593 299.573 36.914 300.067 36.0235C300.105 35.9555 300.143 35.8871 300.179 35.8185C300.68 34.8875 300.93 34.422 301.171 34.1704C301.407 33.9234 301.574 33.8016 301.878 33.6527C302.188 33.5011 302.592 33.4295 303.398 33.2863L305.659 32.885C306.859 32.6721 307.459 32.5655 307.907 32.2517C308.285 31.9865 308.586 31.6198 308.775 31.1911C309 30.6837 309 30.0572 309 28.8047V26.1953C309 24.9428 309 24.3166 308.775 23.8089C308.586 23.3802 308.285 23.0134 307.907 22.7483C307.459 22.4345 306.859 22.328 305.659 22.1151L303.398 21.7136C302.592 21.5706 302.188 21.4989 301.878 21.3474C301.574 21.1985 301.407 21.0766 301.171 20.8297C300.93 20.5779 300.68 20.1124 300.179 19.1816C300.143 19.113 300.105 19.0445 300.067 18.9767C299.573 18.086 299.326 17.6408 299.242 17.3101C299.16 16.9853 299.143 16.7831 299.17 16.4485C299.198 16.108 299.332 15.7266 299.6 14.9638L300.517 12.357C300.924 11.2017 301.127 10.6238 301.088 10.0763C301.055 9.61362 300.901 9.16869 300.642 8.78883C300.335 8.33927 299.823 8.02397 298.797 7.39361L296.876 6.21211C295.794 5.54677 295.252 5.21397 294.698 5.15662C294.23 5.10827 293.758 5.19675 293.337 5.41175C292.838 5.66636 292.446 6.17404 291.661 7.18915L290.22 9.05322C289.719 9.70106 289.469 10.0249 289.2 10.2278C288.91 10.4471 288.722 10.5408 288.374 10.638C288.053 10.7277 287.535 10.7277 286.5 10.7277C285.465 10.7277 284.947 10.7277 284.626 10.638C284.278 10.5408 284.09 10.4471 283.8 10.2278C283.531 10.0249 283.281 9.70106 282.78 9.05347L281.339 7.18915C280.554 6.17379 280.162 5.6661 279.663 5.41149C279.242 5.19649 278.77 5.10827 278.302 5.15662C277.748 5.21397 277.206 5.54651 276.124 6.21211L274.203 7.39361C273.177 8.02397 272.665 8.33902 272.358 8.78857C272.099 9.16869 271.945 9.61336 271.912 10.0763C271.873 10.6238 272.076 11.2015 272.483 12.357L273.4 14.9636C273.668 15.7266 273.802 16.108 273.83 16.4485C273.857 16.7831 273.84 16.9853 273.758 17.3101C273.674 17.6408 273.427 18.086 272.933 18.9764C272.895 19.0445 272.857 19.113 272.821 19.1814C272.32 20.1124 272.07 20.5779 271.829 20.8297C271.593 21.0766 271.426 21.1985 271.122 21.3474C270.812 21.4989 270.408 21.5706 269.602 21.7136L267.341 22.1151Z" fill="#D9D9D9"/>
<path fill-rule="evenodd" clip-rule="evenodd" d="M201 20C196.582 20 193 23.5817 193 28C193 32.4184 196.582 36 201 36C205.418 36 209 32.4184 209 28C209 23.5817 205.418 20 201 20ZM197 28C197 25.791 198.791 24 201 24C203.209 24 205 25.791 205 28C205 30.2092 203.209 32 201 32C198.791 32 197 30.2092 197 28Z" fill="#D9D9D9"/>
<path fill-rule="evenodd" clip-rule="evenodd" d="M286 20C281.582 20 278 23.5817 278 28C278 32.4184 281.582 36 286 36C290.418 36 294 32.4184 294 28C294 23.5817 290.418 20 286 20ZM282 28C282 25.791 283.791 24 286 24C288.209 24 290 25.791 290 28C290 30.2092 288.209 32 286 32C283.791 32 282 30.2092 282 28Z" fill="#D9D9D9"/>
<path d="M225 7.85714H240V55H250V7.85714H265V0H225V7.85714Z" fill="#D9D9D9"/>
<path d="M394 55H364V47.1429H394V31.4286H374C371.348 31.4286 368.804 30.6008 366.929 29.1273C365.054 27.6538 364 25.6553 364 23.5714V7.85714C364 5.7733 365.054 3.77481 366.929 2.30131C368.804 0.827805 371.348 0 374 0H404V7.85714H374V23.5714H394C396.652 23.5714 399.196 24.3992 401.071 25.8727C402.946 27.3462 404 29.3447 404 31.4286V47.1429C404 49.2267 402.946 51.2252 401.071 52.6987C399.196 54.1722 396.652 55 394 55Z" fill="#D9D9D9"/>
<path d="M359 23.5714V7.85714C359 5.7733 357.946 3.77481 356.071 2.30131C354.196 0.827805 351.652 0 349 0H319V55H329V31.4286H336.4L348.1 55H359L347.35 31.4286H349C351.652 31.4286 354.196 30.6008 356.071 29.1273C357.946 27.6538 359 25.6553 359 23.5714ZM329 7.85714H349V23.5714H329V7.85714Z" fill="#D9D9D9"/>
<path d="M159 0L151.4 19.6429L149 27.4214L146.7 19.6429L139 0H129V55H139V23.5714L138.2 15.7143L141.1 23.5714L149 41.7607L156.9 23.5714L159.8 15.7143L159 23.5714V55H169V0H159Z" fill="#D9D9D9"/>
</svg>
