<svg width="972" height="152" viewBox="0 0 972 152" fill="none" xmlns="http://www.w3.org/2000/svg">
<g clip-path="url(#clip0_119_13)">
<path fill-rule="evenodd" clip-rule="evenodd" d="M689.342 50.3113C675.469 50.3113 664.224 61.9224 664.224 76.2454C664.224 90.5689 675.469 102.18 689.342 102.18C703.213 102.18 714.459 90.5689 714.459 76.2454C714.459 61.9224 703.213 50.3113 689.342 50.3113ZM676.783 76.2454C676.783 69.0843 682.405 63.2783 689.342 63.2783C696.278 63.2783 701.9 69.0843 701.9 76.2454C701.9 83.4072 696.278 89.2126 689.342 89.2126C682.405 89.2126 676.783 83.4072 676.783 76.2454Z" fill="#7FC4F2"/>
<path fill-rule="evenodd" clip-rule="evenodd" d="M433.377 50.4421C419.505 50.4421 408.259 62.0533 408.259 76.3763C408.259 90.6998 419.505 102.311 433.377 102.311C447.249 102.311 458.495 90.6998 458.495 76.3763C458.495 62.0533 447.249 50.4421 433.377 50.4421ZM420.818 76.3763C420.818 69.2152 426.441 63.4091 433.377 63.4091C440.314 63.4091 445.936 69.2152 445.936 76.3763C445.936 83.538 440.314 89.3434 433.377 89.3434C426.441 89.3434 420.818 83.538 420.818 76.3763Z" fill="#7FC4F2"/>
<path d="M951.133 151.874H887.768V130.138H951.133V86.6677H908.889C903.287 86.6677 897.915 84.3777 893.954 80.3015C889.993 76.2254 887.768 70.6969 887.768 64.9323V21.4617C887.768 15.6971 889.993 10.1686 893.954 6.09246C897.915 2.01629 903.287 -0.273682 908.889 -0.273682H972.255V21.4617H908.889V64.9323H951.133C956.735 64.9323 962.107 67.2223 966.068 71.2985C970.03 75.3746 972.255 80.9031 972.255 86.6677V130.138C972.255 135.903 970.03 141.431 966.068 145.508C962.107 149.584 956.735 151.874 951.133 151.874Z" fill="#7FC4F2"/>
<path d="M866.737 64.9323V21.4617C866.737 15.6971 864.512 10.1686 860.551 6.09246C856.59 2.01629 851.217 -0.273682 845.616 -0.273682H782.25V151.874H803.372V86.6677H819.002L843.715 151.874H866.737L842.13 86.6677H845.616C851.217 86.6677 856.59 84.3777 860.551 80.3015C864.512 76.2254 866.737 70.6969 866.737 64.9323ZM803.372 21.4617H845.616V64.9323H803.372V21.4617Z" fill="#7FC4F2"/>
<path fill-rule="evenodd" clip-rule="evenodd" d="M642.847 13.3587C644.154 12.5131 645.688 11.6812 646.938 11.0029L653.59 7.39256C654.84 6.71332 656.373 5.88023 657.798 5.24323C659.483 4.49025 661.899 3.58937 664.919 3.37493C668.736 3.10361 672.575 3.87301 676.016 5.59933C678.739 6.96492 680.653 8.73402 681.942 10.0826C683.033 11.2242 684.152 12.5886 685.065 13.7017L688.754 18.1946L688.776 18.1947C689.053 18.1964 689.33 18.2001 689.607 18.2057L689.628 18.2058L694.14 13.0727C695.056 12.0308 696.181 10.7497 697.274 9.68414C698.568 8.42255 700.48 6.7844 703.172 5.57103C706.583 4.03417 710.368 3.44396 714.127 3.86233C717.095 4.19299 719.471 5.16223 721.133 5.96293C722.538 6.63895 724.046 7.50943 725.274 8.217L731.213 11.6396C732.511 12.3866 734.094 13.2978 735.438 14.2155C737.021 15.2959 739.144 16.9489 740.954 19.4958C743.233 22.7036 744.56 26.4634 744.783 30.3442C744.96 33.4261 744.322 35.9829 743.751 37.7689C743.266 39.2851 742.588 40.9371 742.031 42.2909L739.747 47.6893L745.655 48.6407C747.128 48.8937 748.925 49.2014 750.502 49.599C752.359 50.0664 754.924 50.8851 757.516 52.6559C760.78 54.8856 763.358 57.9671 764.952 61.5468C766.218 64.3887 766.539 67.0195 766.647 68.9009C766.738 70.4984 766.698 72.2906 766.665 73.76L766.518 80.4879C766.488 81.8779 766.451 83.5862 766.3 85.1062C766.122 86.9063 765.715 89.3861 764.438 92.0205C762.823 95.3566 760.313 98.1829 757.177 100.199C754.701 101.792 752.266 102.512 750.485 102.92C748.979 103.265 747.27 103.523 745.88 103.733L739.029 104.767L739.019 104.785C738.877 105.017 738.734 105.248 738.59 105.48L738.578 105.498L740.549 110.923C741.039 112.266 741.638 113.913 742.058 115.418C742.554 117.197 743.087 119.716 742.842 122.693C742.533 126.454 741.181 130.042 738.933 133.063C737.155 135.453 735.096 136.981 733.552 137.98C732.245 138.826 730.712 139.657 729.461 140.335L722.81 143.946C721.56 144.625 720.026 145.458 718.601 146.096C716.917 146.848 714.5 147.749 711.48 147.964C707.663 148.235 703.824 147.466 700.383 145.739C697.66 144.374 695.746 142.604 694.458 141.255C693.367 140.114 692.247 138.749 691.334 137.637L687.646 133.144L687.624 133.144C687.346 133.142 687.069 133.139 686.792 133.133L686.772 133.133L682.26 138.266C681.344 139.307 680.219 140.588 679.125 141.654C677.831 142.916 675.92 144.554 673.227 145.767C669.817 147.304 666.032 147.895 662.273 147.476C659.305 147.146 656.929 146.176 655.267 145.375C653.863 144.699 652.354 143.829 651.127 143.121L645.187 139.699C643.889 138.952 642.306 138.04 640.962 137.123C639.379 136.042 637.256 134.39 635.446 131.843C633.167 128.635 631.84 124.875 631.617 120.994C631.44 117.912 632.078 115.355 632.649 113.57C633.134 112.053 633.812 110.402 634.368 109.047L636.541 103.752L636.504 103.688L630.744 102.698C629.271 102.445 627.474 102.137 625.897 101.74C624.04 101.272 621.476 100.453 618.883 98.6825C615.619 96.4529 613.041 93.3715 611.447 89.7923C610.181 86.95 609.86 84.3191 609.752 82.4381C609.661 80.8403 609.701 79.0482 609.734 77.5787L609.881 70.8518C609.911 69.4618 609.948 67.7525 610.099 66.2322C610.277 64.4326 610.684 61.9526 611.961 59.3183C613.577 55.9822 616.086 53.1561 619.222 51.1393C621.699 49.5468 624.133 48.8262 625.915 48.4182C627.42 48.0735 629.129 47.8159 630.519 47.6064L637.37 46.5714L637.381 46.5543C637.522 46.3217 637.665 46.0899 637.81 45.859L637.821 45.8407L635.85 40.4157C635.361 39.0725 634.762 37.4258 634.342 35.9201C633.846 34.1411 633.312 31.6226 633.557 28.6462C633.866 24.8842 635.219 21.2971 637.467 18.2761C639.245 15.886 641.303 14.3582 642.847 13.3587ZM674.467 22.4662C672.31 19.8385 671.231 18.5246 669.874 17.8433C668.726 17.268 667.447 17.0113 666.175 17.1017C664.668 17.209 663.191 18.0105 660.238 19.6136L654.085 22.9534C651.132 24.5565 649.654 25.3584 648.767 26.5503C648.018 27.5574 647.568 28.7529 647.465 30.007C647.343 31.4914 647.919 33.078 649.072 36.2509L651.245 42.2293C652.02 44.3625 652.407 45.4291 652.478 46.3726C652.546 47.2991 652.489 47.8571 652.233 48.7451C651.972 49.6496 651.219 50.85 649.714 53.2509C649.603 53.428 649.494 53.6057 649.385 53.784C647.967 56.1189 647.259 57.2863 646.594 57.9119C645.942 58.5262 645.488 58.826 644.662 59.1886C643.821 59.5578 642.737 59.7217 640.567 60.0495L633.156 61.1692C629.871 61.6655 628.228 61.9137 626.991 62.7093C625.946 63.3815 625.109 64.3236 624.57 65.4356C623.933 66.7517 623.897 68.3942 623.825 71.6791L623.69 77.8358C623.614 81.3038 623.576 83.0378 624.205 84.451C624.737 85.644 625.596 86.6711 626.684 87.4144C627.973 88.2947 629.711 88.5935 633.188 89.1911L639.572 90.2887C641.789 90.6695 642.898 90.8606 643.747 91.2491C644.665 91.6698 645.146 92.0057 645.854 92.7215C646.509 93.3837 647.223 94.6346 648.651 97.1363C650.078 99.6381 650.792 100.889 651.024 101.782C651.275 102.746 651.314 103.321 651.197 104.303C651.089 105.212 650.67 106.231 649.834 108.27L647.426 114.139C646.115 117.336 645.459 118.934 645.548 120.467C645.622 121.76 646.064 123.014 646.824 124.083C647.724 125.349 649.254 126.231 652.317 127.996L657.753 131.128C660.654 132.8 662.104 133.636 663.587 133.801C664.84 133.94 666.102 133.743 667.239 133.231C668.584 132.625 669.666 131.394 671.83 128.933L676.711 123.38C678.14 121.755 678.854 120.942 679.619 120.44C680.37 119.946 680.87 119.728 681.75 119.511C682.645 119.29 684.036 119.318 686.817 119.373C687.03 119.377 687.243 119.38 687.455 119.381C690.341 119.399 691.784 119.408 692.709 119.669C693.618 119.924 694.135 120.171 694.906 120.716C695.691 121.271 696.416 122.154 697.867 123.921L701.932 128.872C704.089 131.5 705.168 132.814 706.526 133.495C707.673 134.07 708.952 134.327 710.225 134.236C711.731 134.13 713.208 133.328 716.162 131.725L722.315 128.385C725.268 126.782 726.745 125.98 727.632 124.788C728.381 123.781 728.832 122.585 728.935 121.332C729.057 119.847 728.48 118.261 727.327 115.087L725.155 109.109C724.379 106.976 723.992 105.909 723.922 104.966C723.853 104.04 723.911 103.481 724.167 102.594C724.428 101.689 725.18 100.488 726.685 98.0876C726.796 97.9109 726.906 97.7327 727.014 97.5545C728.432 95.2199 729.141 94.0525 729.805 93.4267C730.457 92.8122 730.911 92.513 731.737 92.15C732.578 91.7806 733.663 91.617 735.832 91.2896L743.244 90.1697C746.528 89.6736 748.171 89.4252 749.408 88.6295C750.454 87.957 751.29 87.0153 751.829 85.903C752.466 84.5874 752.502 82.9444 752.574 79.6594L752.71 73.5027C752.786 70.0352 752.824 68.3009 752.194 66.8878C751.663 65.6947 750.803 64.6677 749.715 63.9246C748.427 63.0444 746.688 62.7454 743.212 62.1472L736.828 61.05C734.61 60.6688 733.501 60.4783 732.652 60.089C731.735 59.6688 731.254 59.333 730.546 58.6175C729.89 57.9553 729.176 56.7038 727.748 54.202C726.321 51.7003 725.607 50.4494 725.375 49.5574C725.125 48.593 725.086 48.0176 725.202 47.0352C725.311 46.1271 725.729 45.1072 726.565 43.0686L728.973 37.1987C730.285 34.002 730.941 32.4037 730.852 30.8715C730.778 29.5779 730.336 28.3248 729.576 27.2555C728.676 25.9892 727.145 25.1067 724.083 23.3424L718.646 20.2099C715.746 18.5386 714.295 17.7028 712.813 17.5376C711.559 17.3984 710.298 17.5948 709.161 18.1073C707.816 18.7135 706.734 19.944 704.57 22.4055L699.689 27.9583C698.26 29.5837 697.546 30.3963 696.781 30.8987C696.029 31.3924 695.529 31.6102 694.65 31.8273C693.754 32.0483 692.364 32.0205 689.582 31.9652C689.369 31.9611 689.157 31.9584 688.944 31.9568C686.059 31.9391 684.616 31.9303 683.69 31.6701C682.782 31.4143 682.265 31.1681 681.493 30.6228C680.709 30.0672 679.983 29.1841 678.533 27.4172L674.467 22.4662Z" fill="#7FC4F2"/>
<path d="M517.442 21.4617H549.124V151.874H570.246V21.4617H601.929V-0.273682H517.442V21.4617Z" fill="#7FC4F2"/>
<path fill-rule="evenodd" clip-rule="evenodd" d="M424.822 -0.155483C426.385 -0.274857 428.14 -0.274158 429.571 -0.273605H437.183C438.615 -0.274158 440.37 -0.274857 441.933 -0.155483C443.78 -0.0144013 446.341 0.34432 449.086 1.58923C452.557 3.16271 455.528 5.65564 457.674 8.79617C459.372 11.2809 460.162 13.7342 460.616 15.5241C460.999 17.0389 461.297 18.762 461.539 20.1673L462.522 25.8427L462.542 25.8533C462.783 25.9864 463.023 26.121 463.263 26.2573L463.281 26.2673L469.783 23.9222C471.103 23.4459 472.724 22.8602 474.211 22.4477C475.971 21.9592 478.458 21.4342 481.416 21.6512C485.162 21.9259 488.764 23.2052 491.84 25.3537C494.268 27.0502 495.861 29.0241 496.914 30.5119C497.804 31.769 498.689 33.2451 499.408 34.4456L502.891 40.253C503.653 41.5215 504.582 43.0684 505.299 44.5079C506.142 46.2025 507.173 48.6537 507.485 51.7377C507.876 55.6212 507.161 59.5362 505.421 63.0327C504.038 65.8094 502.206 67.741 500.816 69.0308C499.637 70.1256 498.22 71.2473 497.059 72.1664L492.371 75.8L497.059 79.4335C498.22 80.3533 499.637 81.4744 500.816 82.5698C502.206 83.8589 504.038 85.7905 505.42 88.5672C507.161 92.0638 507.876 95.9788 507.484 99.8627C507.173 102.946 506.142 105.397 505.298 107.092C504.581 108.532 503.652 110.079 502.891 111.347L499.407 117.156C498.688 118.356 497.804 119.831 496.914 121.088C495.86 122.576 494.268 124.55 491.839 126.246C488.764 128.395 485.162 129.675 481.416 129.949C478.458 130.166 475.971 129.641 474.211 129.152C472.724 128.74 471.102 128.155 469.782 127.678L463.28 125.333L463.263 125.343C463.023 125.479 462.783 125.614 462.542 125.747L462.522 125.758L461.539 131.433C461.297 132.838 460.999 134.561 460.616 136.076C460.162 137.866 459.372 140.319 457.674 142.804C455.528 145.945 452.557 148.438 449.086 150.011C446.341 151.256 443.78 151.615 441.933 151.756C440.369 151.875 438.615 151.874 437.183 151.874H429.571C428.14 151.874 426.385 151.875 424.822 151.756C422.974 151.615 420.414 151.256 417.668 150.011C414.197 148.438 411.227 145.945 409.081 142.804C407.383 140.319 406.593 137.866 406.139 136.076C405.755 134.561 405.458 132.838 405.215 131.433L404.232 125.758L404.213 125.747C403.972 125.614 403.731 125.479 403.492 125.343L403.474 125.333L396.972 127.678C395.653 128.154 394.031 128.74 392.544 129.152C390.783 129.641 388.297 130.166 385.339 129.949C381.593 129.675 377.991 128.395 374.915 126.246C372.486 124.55 370.894 122.576 369.841 121.088C368.951 119.831 368.066 118.356 367.347 117.155L363.864 111.347C363.102 110.079 362.173 108.532 361.457 107.092C360.612 105.397 359.581 102.946 359.27 99.8627C358.878 95.9788 359.594 92.0638 361.334 88.5672C362.717 85.7905 364.549 83.8589 365.938 82.5698C367.118 81.4744 368.534 80.3533 369.696 79.4335L374.234 75.8373V75.7633L369.695 72.1664C368.534 71.2473 367.118 70.1256 365.938 69.0308C364.548 67.741 362.716 65.8094 361.334 63.0327C359.593 59.5362 358.878 55.6214 359.27 51.7378C359.581 48.6538 360.612 46.2026 361.456 44.508C362.173 43.0686 363.102 41.5217 363.863 40.2532L367.347 34.4454C368.066 33.245 368.951 31.769 369.84 30.512C370.894 29.0241 372.486 27.0503 374.915 25.3538C377.991 23.2053 381.592 21.9259 385.338 21.6512C388.297 21.4343 390.783 21.9593 392.543 22.4477C394.03 22.8604 395.652 23.4461 396.972 23.9224L403.474 26.2674L403.492 26.2573C403.731 26.1211 403.972 25.9864 404.213 25.8533L404.232 25.8427L405.215 20.1674C405.458 18.762 405.755 17.0389 406.139 15.5241C406.593 13.7342 407.383 11.2809 409.081 8.79617C411.227 5.65564 414.197 3.16271 417.668 1.58923C420.414 0.34432 422.974 -0.0144013 424.822 -0.155483ZM447.909 22.7995C447.334 19.4802 447.047 17.8206 446.2 16.5813C445.485 15.5344 444.495 14.7034 443.338 14.1789C441.968 13.558 440.278 13.558 436.898 13.558H429.856C426.476 13.558 424.786 13.558 423.416 14.1789C422.259 14.7034 421.27 15.5344 420.554 16.5813C419.707 17.8206 419.42 19.4802 418.845 22.7995L417.762 29.0537C417.376 31.2853 417.183 32.4011 416.773 33.2588C416.372 34.101 416.043 34.5613 415.376 35.2158C414.697 35.8823 413.441 36.5743 410.929 37.9583C410.744 38.0604 410.559 38.1636 410.376 38.2681C407.972 39.6358 406.771 40.3196 405.878 40.5512C405.002 40.7786 404.456 40.8254 403.554 40.7505C402.635 40.6743 401.605 40.303 399.546 39.5606L392.512 37.0237C389.394 35.8993 387.835 35.3371 386.357 35.4455C385.109 35.537 383.908 35.9635 382.883 36.6796C381.669 37.5272 380.819 38.9453 379.118 41.7814L375.929 47.097C374.134 50.0912 373.236 51.5883 373.081 53.1216C372.95 54.4161 373.189 55.721 373.769 56.8866C374.456 58.2671 375.826 59.3526 378.566 61.5237L383.597 65.5107C385.345 66.8952 386.219 67.5882 386.766 68.3302C387.359 69.1331 387.611 69.6546 387.873 70.6159C388.115 71.5052 388.115 72.9368 388.115 75.8C388.115 78.6631 388.115 80.0947 387.873 80.9847C387.611 81.946 387.359 82.4675 386.767 83.2697C386.219 84.0124 385.345 84.7047 383.597 86.0899L378.566 90.0762C375.826 92.2478 374.457 93.3329 373.769 94.7139C373.189 95.8792 372.951 97.1842 373.081 98.4789C373.236 100.012 374.134 101.509 375.93 104.503L379.118 109.819C380.819 112.655 381.67 114.073 382.883 114.92C383.908 115.637 385.109 116.063 386.358 116.155C387.835 116.263 389.394 115.701 392.512 114.577L399.547 112.04C401.605 111.297 402.635 110.926 403.554 110.85C404.456 110.775 405.002 110.821 405.878 111.049C406.771 111.281 407.972 111.965 410.376 113.332C410.559 113.436 410.744 113.54 410.929 113.642C413.441 115.026 414.697 115.718 415.376 116.385C416.043 117.039 416.372 117.499 416.773 118.342C417.183 119.199 417.376 120.315 417.762 122.547L418.845 128.8C419.42 132.12 419.707 133.78 420.554 135.019C421.27 136.065 422.259 136.897 423.416 137.421C424.786 138.042 426.476 138.042 429.856 138.042H436.898C440.278 138.042 441.968 138.042 443.338 137.421C444.495 136.897 445.485 136.065 446.2 135.019C447.047 133.78 447.334 132.12 447.909 128.8L448.993 122.547C449.378 120.315 449.572 119.199 449.981 118.342C450.383 117.499 450.712 117.039 451.378 116.385C452.057 115.718 453.314 115.026 455.825 113.642C456.011 113.54 456.195 113.436 456.378 113.332C458.782 111.965 459.983 111.281 460.876 111.049C461.752 110.821 462.298 110.775 463.201 110.85C464.12 110.926 465.149 111.297 467.208 112.04L474.242 114.577C477.36 115.701 478.919 116.264 480.397 116.155C481.646 116.063 482.846 115.637 483.871 114.92C485.085 114.073 485.936 112.655 487.637 109.819L490.825 104.503C492.621 101.509 493.519 100.012 493.673 98.4789C493.804 97.1842 493.565 95.8792 492.985 94.7139C492.298 93.3335 490.928 92.2478 488.188 90.0762L483.158 86.0899C481.41 84.7047 480.536 84.0124 479.988 83.2697C479.396 82.4675 479.144 81.946 478.881 80.9847C478.639 80.0953 478.639 78.6631 478.639 75.8C478.639 72.9368 478.639 71.5052 478.881 70.6159C479.144 69.6546 479.396 69.1331 479.988 68.3302C480.536 67.5882 481.41 66.8952 483.157 65.5107L488.188 61.5237C490.928 59.3526 492.298 58.267 492.986 56.8865C493.566 55.7209 493.804 54.416 493.673 53.1214C493.519 51.5882 492.621 50.0911 490.825 47.097L487.637 41.7813C485.936 38.9453 485.085 37.5272 483.872 36.6796C482.846 35.9634 481.646 35.5369 480.397 35.4454C478.919 35.337 477.361 35.8992 474.242 37.0236L467.208 39.5605C465.149 40.303 464.12 40.6742 463.201 40.7504C462.298 40.8253 461.752 40.7785 460.876 40.5511C459.983 40.3196 458.782 39.6357 456.379 38.2681C456.195 38.1636 456.011 38.0604 455.826 37.9583C453.314 36.5743 452.057 35.8823 451.378 35.2158C450.712 34.5613 450.383 34.101 449.981 33.2588C449.572 32.4011 449.378 31.2853 448.993 29.0537L447.909 22.7995Z" fill="#7FC4F2"/>
<path d="M315.84 -0.273682L299.571 54.0647L294.433 75.5826L289.51 54.0647L273.026 -0.273682H251.619V151.874H273.026V64.9323L271.313 43.197L277.521 64.9323L294.433 115.25L311.345 64.9323L317.553 43.197L315.84 64.9323V151.874H337.248V-0.273682H315.84Z" fill="#7FC4F2"/>
<path d="M146.931 130.138V-0.273682H125.809V151.874H210.297V130.138H146.931Z" fill="#7FC4F2"/>
<path d="M126.27 -0.273682V64.9323H84.0265V-0.273682H62.9047V151.874H84.0265V86.6677H126.27V151.874H147.392V-0.273682H126.27Z" fill="#7FC4F2"/>
<path d="M63.3655 -0.273682L47.3129 54.0647L42.2437 75.5826L37.3857 54.0647L21.1218 -0.273682H0V151.874H21.1218V64.9323L19.4321 43.197L25.5574 64.9323L42.2437 115.25L58.9299 64.9323L65.0553 43.197L63.3655 64.9323V151.874H84.4874V-0.273682H63.3655Z" fill="#7FC4F2"/>
</g>
<defs>
<clipPath id="clip0_119_13">
<rect width="972" height="152" fill="white"/>
</clipPath>
</defs>
</svg>
