<svg width="800" height="800" viewBox="0 0 800 800" fill="none" xmlns="http://www.w3.org/2000/svg">
<path d="M153.491 549.662V661.71C153.482 675.431 157.723 688.85 165.693 700.316C173.663 711.781 185.012 720.796 198.341 726.237C211.668 731.679 226.389 733.315 240.689 730.94C254.989 728.568 268.242 722.294 278.81 712.889L371.202 630.608H402C597.408 630.608 756 503.507 756 346.304C756 189.1 597.408 62 402 62C206.592 62 48 189.435 48 346.304C48.7954 385.397 58.7291 423.838 77.089 458.878C95.4489 493.921 121.781 524.692 154.201 548.992L153.491 549.662Z" stroke="white" stroke-width="50" stroke-linecap="round" stroke-linejoin="round"/>
</svg>
