<svg width="800" height="800" viewBox="0 0 800 800" fill="none" xmlns="http://www.w3.org/2000/svg">
<path d="M617.5 256C574.146 256 539 220.854 539 177.5C539 134.146 574.146 99 617.5 99C660.854 99 696 134.146 696 177.5C696 220.854 660.854 256 617.5 256Z" stroke="#D9D9D9" stroke-width="50"/>
<path d="M466.6 85.9212C445.082 82.0383 422.807 80 400 80C216.089 80 67 212.524 67 376C67 423.351 79.5081 468.103 101.747 507.794C107.657 518.34 109.624 530.397 106.198 541.778L86.3643 607.67C77.7542 636.273 107.193 662.439 139.373 654.788L213.5 637.158C226.305 634.112 239.867 635.861 251.733 641.112C296.383 660.882 346.73 672 400 672C583.909 672 733 539.475 733 376C733 355.727 730.706 335.928 726.34 316.8" stroke="#D9D9D9" stroke-width="50" stroke-linecap="round"/>
</svg>
