<svg width="116" height="45" viewBox="0 0 116 45" fill="none" xmlns="http://www.w3.org/2000/svg">
<path d="M7.81885 28.0278C7.58382 28.0278 7.41374 28 7.30859 27.9443C7.20345 27.8825 7.15088 27.7897 7.15088 27.666V16.7837C7.15088 16.5363 7.37354 16.4126 7.81885 16.4126H8.40332C8.76823 16.4126 9.00016 16.5146 9.09912 16.7188L12.2163 22.1274L12.6431 23.1665L13.0698 22.2202L16.1963 16.7188C16.3014 16.5146 16.5303 16.4126 16.8828 16.4126H17.4302C17.8693 16.4126 18.0889 16.5363 18.0889 16.7837V27.666C18.0889 27.9072 17.8693 28.0278 17.4302 28.0278H17.3188C17.0838 28.0278 16.9137 28 16.8086 27.9443C16.7035 27.8825 16.6509 27.7897 16.6509 27.666V18.7876L16.623 18.8618L13.3389 24.5674C13.2956 24.6416 13.2461 24.6973 13.1904 24.7344C13.1348 24.7653 13.0636 24.7808 12.9771 24.7808H12.3184C12.1514 24.7808 12.0277 24.7096 11.9473 24.5674L8.58887 18.6948V27.666C8.58887 27.9072 8.3693 28.0278 7.93018 28.0278H7.81885ZM21.8276 28.0278C21.3823 28.0278 21.1597 27.9072 21.1597 27.666V16.7837C21.1597 16.5363 21.3823 16.4126 21.8276 16.4126H21.9575C22.3966 16.4126 22.6162 16.5363 22.6162 16.7837V21.4502H28.5908V16.7837C28.5908 16.5363 28.8104 16.4126 29.2495 16.4126H29.3794C29.8185 16.4126 30.0381 16.5363 30.0381 16.7837V27.666C30.0381 27.7897 29.9855 27.8825 29.8804 27.9443C29.7752 28 29.6082 28.0278 29.3794 28.0278H29.2495C29.0207 28.0278 28.8537 28 28.7485 27.9443C28.6434 27.8825 28.5908 27.7897 28.5908 27.666V22.7026H22.6162V27.666C22.6162 27.9072 22.3966 28.0278 21.9575 28.0278H21.8276ZM33.7583 28C33.5851 28 33.4583 27.9598 33.3779 27.8794C33.2975 27.799 33.2573 27.6753 33.2573 27.5083V16.7837C33.2573 16.5363 33.48 16.4126 33.9253 16.4126H34.0552C34.4943 16.4126 34.7139 16.5363 34.7139 16.7837V26.7476H39.2505C39.368 26.7476 39.4515 26.7878 39.501 26.8682C39.5505 26.9424 39.5752 27.0661 39.5752 27.2393V27.5083C39.5752 27.6753 39.5505 27.799 39.501 27.8794C39.4515 27.9598 39.368 28 39.2505 28H33.7583ZM40.6978 24.2056C40.5802 24.2056 40.4937 24.1685 40.438 24.0942C40.3885 24.0138 40.3638 23.887 40.3638 23.7139V23.5376C40.3638 23.3706 40.3885 23.2469 40.438 23.1665C40.4937 23.0861 40.5802 23.0459 40.6978 23.0459H43.8149C43.9325 23.0459 44.016 23.0861 44.0654 23.1665C44.1211 23.2469 44.1489 23.3706 44.1489 23.5376V23.7139C44.1489 23.887 44.1211 24.0138 44.0654 24.0942C44.016 24.1685 43.9325 24.2056 43.8149 24.2056H40.6978ZM47.0806 28.0278C46.8455 28.0278 46.6755 28 46.5703 27.9443C46.4652 27.8825 46.4126 27.7897 46.4126 27.666V16.7837C46.4126 16.5363 46.6353 16.4126 47.0806 16.4126H47.665C48.0299 16.4126 48.2619 16.5146 48.3608 16.7188L51.478 22.1274L51.9048 23.1665L52.3315 22.2202L55.458 16.7188C55.5632 16.5146 55.792 16.4126 56.1445 16.4126H56.6919C57.131 16.4126 57.3506 16.5363 57.3506 16.7837V27.666C57.3506 27.9072 57.131 28.0278 56.6919 28.0278H56.5806C56.3455 28.0278 56.1755 28 56.0703 27.9443C55.9652 27.8825 55.9126 27.7897 55.9126 27.666V18.7876L55.8848 18.8618L52.6006 24.5674C52.5573 24.6416 52.5078 24.6973 52.4521 24.7344C52.3965 24.7653 52.3254 24.7808 52.2388 24.7808H51.5801C51.4131 24.7808 51.2894 24.7096 51.209 24.5674L47.8506 18.6948V27.666C47.8506 27.9072 47.631 28.0278 47.1919 28.0278H47.0806ZM64.8467 28.0928C63.1953 28.0928 61.9367 27.5918 61.0708 26.5898C60.2049 25.5879 59.772 24.1221 59.772 22.1924C59.772 20.2689 60.2018 18.8154 61.0615 17.832C61.9274 16.8424 63.1891 16.3477 64.8467 16.3477C66.5104 16.3477 67.7752 16.8424 68.6411 17.832C69.507 18.8154 69.9399 20.2689 69.9399 22.1924C69.9399 24.1221 69.507 25.5879 68.6411 26.5898C67.7752 27.5918 66.5104 28.0928 64.8467 28.0928ZM64.8467 26.8403C66.0094 26.8403 66.9001 26.4445 67.5186 25.6528C68.137 24.855 68.4463 23.7015 68.4463 22.1924C68.4463 20.6833 68.137 19.5422 67.5186 18.769C66.9062 17.9897 66.0156 17.6001 64.8467 17.6001C63.6839 17.6001 62.7964 17.9897 62.1841 18.769C61.5718 19.5422 61.2656 20.6833 61.2656 22.1924C61.2656 23.7077 61.5718 24.8612 62.1841 25.6528C62.7964 26.4445 63.6839 26.8403 64.8467 26.8403ZM75.3765 28.0278C75.1476 28.0278 74.9806 28 74.8755 27.9443C74.7703 27.8825 74.7178 27.7897 74.7178 27.666V17.7114H71.5449C71.4274 17.7114 71.3439 17.6712 71.2944 17.5908C71.245 17.5104 71.2202 17.3867 71.2202 17.2197V16.9507C71.2202 16.7775 71.245 16.6538 71.2944 16.5796C71.3439 16.4992 71.4274 16.459 71.5449 16.459H79.2822C79.3997 16.459 79.4832 16.4992 79.5327 16.5796C79.5822 16.6538 79.6069 16.7775 79.6069 16.9507V17.2197C79.6069 17.3867 79.5822 17.5104 79.5327 17.5908C79.4832 17.6712 79.3997 17.7114 79.2822 17.7114H76.1743V27.666C76.1743 27.9072 75.9517 28.0278 75.5063 28.0278H75.3765ZM85.9619 28.0928C84.3105 28.0928 83.0519 27.5918 82.186 26.5898C81.3201 25.5879 80.8872 24.1221 80.8872 22.1924C80.8872 20.2689 81.3171 18.8154 82.1768 17.832C83.0426 16.8424 84.3044 16.3477 85.9619 16.3477C87.6257 16.3477 88.8905 16.8424 89.7563 17.832C90.6222 18.8154 91.0552 20.2689 91.0552 22.1924C91.0552 24.1221 90.6222 25.5879 89.7563 26.5898C88.8905 27.5918 87.6257 28.0928 85.9619 28.0928ZM85.9619 26.8403C87.1247 26.8403 88.0153 26.4445 88.6338 25.6528C89.2523 24.855 89.5615 23.7015 89.5615 22.1924C89.5615 20.6833 89.2523 19.5422 88.6338 18.769C88.0215 17.9897 87.1309 17.6001 85.9619 17.6001C84.7992 17.6001 83.9116 17.9897 83.2993 18.769C82.687 19.5422 82.3809 20.6833 82.3809 22.1924C82.3809 23.7077 82.687 24.8612 83.2993 25.6528C83.9116 26.4445 84.7992 26.8403 85.9619 26.8403ZM94.2651 28.0278C93.8198 28.0278 93.5972 27.9072 93.5972 27.666V16.9507C93.5972 16.7775 93.6374 16.6538 93.7178 16.5796C93.7982 16.4992 93.925 16.459 94.0981 16.459H96.8721C98.1895 16.459 99.179 16.6909 99.8408 17.1548C100.509 17.6187 100.843 18.3577 100.843 19.3721C100.843 20.0586 100.676 20.6369 100.342 21.1069C100.014 21.5708 99.5501 21.9202 98.9502 22.1553V22.2202C99.2718 22.3315 99.5347 22.548 99.7388 22.8696C99.9491 23.1851 100.181 23.6551 100.435 24.2798L101.724 27.5361C101.755 27.6475 101.771 27.7248 101.771 27.7681C101.771 27.9412 101.539 28.0278 101.075 28.0278H100.908C100.741 28.0278 100.595 28.0062 100.472 27.9629C100.354 27.9134 100.28 27.8485 100.249 27.7681L98.9966 24.5303C98.8358 24.1097 98.6471 23.7819 98.4307 23.5469C98.2142 23.3118 97.9575 23.1479 97.6606 23.0552C97.3638 22.9624 96.9896 22.916 96.5381 22.916H95.0537V27.666C95.0537 27.9072 94.8341 28.0278 94.395 28.0278H94.2651ZM97.2246 21.6636C97.6143 21.6636 97.9699 21.5708 98.2915 21.3853C98.6193 21.1997 98.876 20.9523 99.0615 20.6431C99.2533 20.3276 99.3491 19.9937 99.3491 19.6411C99.3491 18.9917 99.1512 18.5093 98.7554 18.1938C98.3595 17.8722 97.8122 17.7114 97.1133 17.7114H95.0537V21.6636H97.2246ZM106.103 28.0928C105.497 28.0928 104.931 28.0278 104.405 27.8979C103.886 27.7619 103.468 27.6011 103.153 27.4155C102.844 27.2238 102.689 27.0506 102.689 26.896C102.689 26.8094 102.723 26.695 102.791 26.5527C102.865 26.4105 102.949 26.2837 103.042 26.1724C103.134 26.061 103.208 26.0054 103.264 26.0054C103.314 26.0054 103.422 26.0549 103.589 26.1538C103.972 26.3517 104.353 26.5156 104.73 26.6455C105.107 26.7754 105.565 26.8403 106.103 26.8403C106.524 26.8403 106.898 26.7599 107.226 26.5991C107.553 26.4383 107.807 26.2126 107.986 25.9219C108.172 25.625 108.265 25.2848 108.265 24.9014C108.265 24.4932 108.153 24.1561 107.931 23.8901C107.714 23.618 107.448 23.4046 107.133 23.25C106.824 23.0892 106.372 22.8913 105.778 22.6562C105.135 22.4089 104.625 22.18 104.248 21.9697C103.876 21.7533 103.558 21.4409 103.292 21.0327C103.032 20.6245 102.902 20.0833 102.902 19.4092C102.902 18.8216 103.054 18.2959 103.357 17.832C103.66 17.362 104.09 16.9971 104.646 16.7373C105.203 16.4775 105.843 16.3477 106.567 16.3477C106.895 16.3477 107.269 16.394 107.689 16.4868C108.11 16.5734 108.469 16.694 108.766 16.8486C109.069 17.0033 109.22 17.1733 109.22 17.3589C109.22 17.4393 109.186 17.5506 109.118 17.6929C109.056 17.8289 108.982 17.9526 108.896 18.064C108.809 18.1753 108.741 18.231 108.691 18.231C108.636 18.231 108.524 18.1846 108.357 18.0918C108.079 17.9434 107.804 17.8258 107.532 17.7393C107.26 17.6465 106.929 17.6001 106.539 17.6001C105.902 17.6001 105.386 17.764 104.99 18.0918C104.6 18.4196 104.405 18.8773 104.405 19.4648C104.405 19.8174 104.492 20.1081 104.665 20.3369C104.838 20.5658 105.058 20.7482 105.324 20.8843C105.59 21.0203 105.961 21.1781 106.437 21.3574C106.468 21.3636 106.539 21.3883 106.65 21.4316C107.306 21.6852 107.841 21.9326 108.255 22.1738C108.676 22.4089 109.032 22.749 109.322 23.1943C109.619 23.6396 109.768 24.2087 109.768 24.9014C109.768 25.5508 109.616 26.1167 109.313 26.5991C109.016 27.0815 108.589 27.4526 108.033 27.7124C107.482 27.966 106.839 28.0928 106.103 28.0928Z" fill="#D9D9D9"/>
</svg>
