<svg width="30" height="30" viewBox="0 0 30 30" fill="none" xmlns="http://www.w3.org/2000/svg">
<g clip-path="url(#clip0_325_59)">
<path d="M28.5925 12.028C30.6503 19.3408 26.3315 26.1453 18.9438 28.222C11.5561 30.2986 3.89884 26.0537 1.84106 18.7409C-0.216732 11.428 4.10411 3.81619 11.4918 1.73953C13.9283 1.05466 16.2431 1.05773 18.5277 1.63129" stroke="#D9D9D9" stroke-width="1.5" stroke-linecap="round"/>
<path d="M28.5544 12.192C30.6122 19.5049 26.2934 26.3094 18.9057 28.386C11.518 30.4627 3.86076 26.2178 1.80298 18.905C-0.254818 11.592 4.06603 3.98025 11.4537 1.90359C13.8902 1.21872 16.2051 1.22179 18.4896 1.79535" stroke="#D9D9D9" stroke-width="1.5" stroke-linecap="round"/>
<path d="M28.5925 12.028C30.6503 19.3408 26.3315 26.1453 18.9438 28.222C11.5561 30.2986 3.89884 26.0537 1.84106 18.7409C-0.216732 11.428 4.10411 3.81619 11.4918 1.73953C13.9283 1.05466 16.2431 1.05773 18.5277 1.63129" stroke="#D9D9D9" stroke-width="1.5" stroke-linecap="round"/>
<path d="M22.957 9C22.7436 9 22.587 8.95333 22.487 8.86C22.3936 8.76 22.347 8.61667 22.347 8.43C22.347 8.31667 22.377 8.20667 22.437 8.1C22.497 7.99333 22.5836 7.88 22.697 7.76L24.707 5.62C25.0136 5.3 25.2336 5.01 25.367 4.75C25.5003 4.48333 25.567 4.21667 25.567 3.95C25.567 3.61667 25.4603 3.36333 25.247 3.19C25.0403 3.01667 24.737 2.93 24.337 2.93C24.1103 2.93 23.8836 2.96333 23.657 3.03C23.4303 3.09 23.2003 3.19667 22.967 3.35C22.847 3.43 22.7336 3.46333 22.627 3.45C22.527 3.43667 22.437 3.39333 22.357 3.32C22.2836 3.24667 22.2336 3.15667 22.207 3.05C22.1803 2.94333 22.1836 2.83667 22.217 2.73C22.257 2.61667 22.337 2.52 22.457 2.44C22.7436 2.24667 23.0636 2.1 23.417 2C23.777 1.9 24.137 1.85 24.497 1.85C25.0036 1.85 25.4303 1.92667 25.777 2.08C26.1236 2.23333 26.387 2.45667 26.567 2.75C26.747 3.04333 26.837 3.4 26.837 3.82C26.837 4.1 26.7903 4.37333 26.697 4.64C26.6103 4.90667 26.4736 5.17667 26.287 5.45C26.107 5.72333 25.8703 6.01333 25.577 6.32L23.697 8.28V7.94H26.637C26.817 7.94 26.9536 7.98333 27.047 8.07C27.1403 8.15667 27.187 8.28667 27.187 8.46C27.187 8.63333 27.1403 8.76667 27.047 8.86C26.9536 8.95333 26.817 9 26.637 9H22.957Z" fill="#F21F3F"/>
<path d="M17.7596 17.7475L20.11 20.11M17.7596 17.7475C18.684 16.8201 19.2554 15.5405 19.2554 14.1277C19.2554 11.2958 16.9597 9 14.1277 9C11.2957 9 9 11.2958 9 14.1277C9 16.9597 11.2957 19.2554 14.1277 19.2554C15.5467 19.2554 16.8312 18.679 17.7596 17.7475Z" stroke="#D9D9D9" stroke-width="1.5" stroke-linecap="round"/>
</g>
<defs>
<clipPath id="clip0_325_59">
<rect width="30" height="30" fill="white"/>
</clipPath>
</defs>
</svg>
