<svg width="30" height="30" viewBox="0 0 30 30" fill="none" xmlns="http://www.w3.org/2000/svg">
<g clip-path="url(#clip0_327_1099)">
<path d="M28.5925 12.028C30.6503 19.3408 26.3315 26.1453 18.9438 28.222C11.5561 30.2986 3.89884 26.0537 1.84106 18.7409C-0.216732 11.428 4.10411 3.81619 11.4918 1.73953C13.9283 1.05466 16.2431 1.05773 18.5277 1.63129" stroke="#7FFC7F" stroke-width="1.5" stroke-linecap="round"/>
<path d="M28.5544 12.192C30.6122 19.5049 26.2934 26.3094 18.9057 28.386C11.518 30.4627 3.86076 26.2178 1.80298 18.905C-0.254818 11.592 4.06603 3.98025 11.4537 1.90359C13.8902 1.21872 16.2051 1.22179 18.4896 1.79535" stroke="#7FFC7F" stroke-width="1.5" stroke-linecap="round"/>
<path d="M28.5925 12.028C30.6503 19.3408 26.3315 26.1453 18.9438 28.222C11.5561 30.2986 3.89884 26.0537 1.84106 18.7409C-0.216732 11.428 4.10411 3.81619 11.4918 1.73953C13.9283 1.05466 16.2431 1.05773 18.5277 1.63129" stroke="#7FFC7F" stroke-width="1.5" stroke-linecap="round"/>
<path d="M24.077 9.1C23.7903 9.1 23.4936 9.05667 23.187 8.97C22.8803 8.87667 22.5936 8.74 22.327 8.56C22.2203 8.49333 22.1503 8.40667 22.117 8.3C22.0836 8.19333 22.077 8.09 22.097 7.99C22.1236 7.88333 22.1703 7.79333 22.237 7.72C22.3103 7.64 22.4003 7.59333 22.507 7.58C22.6136 7.56 22.7303 7.58667 22.857 7.66C23.0836 7.79333 23.297 7.88667 23.497 7.94C23.697 7.99333 23.897 8.02 24.097 8.02C24.4836 8.02 24.8103 7.93 25.077 7.75C25.3436 7.57 25.5436 7.3 25.677 6.94C25.817 6.57333 25.887 6.12333 25.887 5.59V4.84H26.007C25.9603 5.17333 25.8503 5.46333 25.677 5.71C25.5036 5.95667 25.2836 6.14667 25.017 6.28C24.7503 6.40667 24.4536 6.47 24.127 6.47C23.727 6.47 23.367 6.37333 23.047 6.18C22.7336 5.98667 22.487 5.72 22.307 5.38C22.127 5.03333 22.037 4.64333 22.037 4.21C22.037 3.75 22.1336 3.34333 22.327 2.99C22.527 2.63667 22.8036 2.36 23.157 2.16C23.5103 1.95333 23.9136 1.85 24.367 1.85C24.9536 1.85 25.4503 1.98667 25.857 2.26C26.2636 2.53333 26.5736 2.93333 26.787 3.46C27.0003 3.98 27.107 4.61 27.107 5.35C27.107 5.95 27.037 6.48333 26.897 6.95C26.7636 7.41 26.567 7.8 26.307 8.12C26.047 8.44 25.727 8.68333 25.347 8.85C24.9736 9.01667 24.5503 9.1 24.077 9.1ZM24.447 5.45C24.687 5.45 24.897 5.39667 25.077 5.29C25.2636 5.17667 25.407 5.02333 25.507 4.83C25.607 4.63 25.657 4.40333 25.657 4.15C25.657 3.89 25.607 3.66333 25.507 3.47C25.407 3.27667 25.2636 3.12667 25.077 3.02C24.897 2.91333 24.687 2.86 24.447 2.86C24.207 2.86 23.997 2.91333 23.817 3.02C23.637 3.12667 23.4936 3.27667 23.387 3.47C23.287 3.66333 23.237 3.89 23.237 4.15C23.237 4.40333 23.287 4.63 23.387 4.83C23.4936 5.02333 23.637 5.17667 23.817 5.29C23.997 5.39667 24.207 5.45 24.447 5.45Z" fill="#F21F3F"/>
<path d="M17.7596 17.7475L20.11 20.11M17.7596 17.7475C18.684 16.8201 19.2554 15.5405 19.2554 14.1277C19.2554 11.2958 16.9597 9 14.1277 9C11.2957 9 9 11.2958 9 14.1277C9 16.9597 11.2957 19.2554 14.1277 19.2554C15.5467 19.2554 16.8312 18.679 17.7596 17.7475Z" stroke="#7FFC7F" stroke-width="1.5" stroke-linecap="round"/>
</g>
<defs>
<clipPath id="clip0_327_1099">
<rect width="30" height="30" fill="white"/>
</clipPath>
</defs>
</svg>
