<svg width="30" height="30" viewBox="0 0 30 30" fill="none" xmlns="http://www.w3.org/2000/svg">
<g clip-path="url(#clip0_327_1092)">
<path d="M28.5925 12.028C30.6503 19.3408 26.3315 26.1453 18.9438 28.222C11.5561 30.2986 3.89884 26.0537 1.84106 18.7409C-0.216732 11.428 4.10411 3.81619 11.4918 1.73953C13.9283 1.05466 16.2431 1.05773 18.5277 1.63129" stroke="#7FFC7F" stroke-width="1.5" stroke-linecap="round"/>
<path d="M28.5544 12.192C30.6122 19.5049 26.2934 26.3094 18.9057 28.386C11.518 30.4627 3.86076 26.2178 1.80298 18.905C-0.254818 11.592 4.06603 3.98025 11.4537 1.90359C13.8902 1.21872 16.2051 1.22179 18.4896 1.79535" stroke="#7FFC7F" stroke-width="1.5" stroke-linecap="round"/>
<path d="M28.5925 12.028C30.6503 19.3408 26.3315 26.1453 18.9438 28.222C11.5561 30.2986 3.89884 26.0537 1.84106 18.7409C-0.216732 11.428 4.10411 3.81619 11.4918 1.73953C13.9283 1.05466 16.2431 1.05773 18.5277 1.63129" stroke="#7FFC7F" stroke-width="1.5" stroke-linecap="round"/>
<path d="M23.347 9.08C23.1936 9.08 23.067 9.04333 22.967 8.97C22.867 8.89667 22.807 8.8 22.787 8.68C22.767 8.55333 22.797 8.41333 22.877 8.26L25.897 2.58V3.02H22.657C22.477 3.02 22.337 2.97333 22.237 2.88C22.1436 2.78667 22.097 2.65667 22.097 2.49C22.097 2.31667 22.1436 2.18333 22.237 2.09C22.337 1.99667 22.477 1.95 22.657 1.95H26.527C26.707 1.95 26.8536 1.99667 26.967 2.09C27.0803 2.18333 27.137 2.31667 27.137 2.49C27.137 2.63667 27.117 2.76667 27.077 2.88C27.037 2.98667 26.9836 3.10333 26.917 3.23L24.077 8.66C24.0036 8.80667 23.907 8.91333 23.787 8.98C23.6736 9.04667 23.527 9.08 23.347 9.08Z" fill="#F21F3F"/>
<path d="M17.7596 17.7475L20.11 20.11M17.7596 17.7475C18.684 16.8201 19.2554 15.5405 19.2554 14.1277C19.2554 11.2958 16.9597 9 14.1277 9C11.2957 9 9 11.2958 9 14.1277C9 16.9597 11.2957 19.2554 14.1277 19.2554C15.5467 19.2554 16.8312 18.679 17.7596 17.7475Z" stroke="#7FFC7F" stroke-width="1.5" stroke-linecap="round"/>
</g>
<defs>
<clipPath id="clip0_327_1092">
<rect width="30" height="30" fill="white"/>
</clipPath>
</defs>
</svg>
