<svg width="30" height="30" viewBox="0 0 30 30" fill="none" xmlns="http://www.w3.org/2000/svg">
<g clip-path="url(#clip0_327_979)">
<path d="M28.5925 12.028C30.6503 19.3408 26.3315 26.1453 18.9438 28.222C11.5561 30.2986 3.89884 26.0537 1.84106 18.7409C-0.216732 11.428 4.10411 3.81619 11.4918 1.73953C13.9283 1.05466 16.2431 1.05773 18.5277 1.63129" stroke="#7FC4F2" stroke-width="1.5" stroke-linecap="round"/>
<path d="M28.5544 12.192C30.6122 19.5049 26.2934 26.3094 18.9057 28.386C11.518 30.4627 3.86076 26.2178 1.80298 18.905C-0.254818 11.592 4.06603 3.98025 11.4537 1.90359C13.8902 1.21872 16.2051 1.22179 18.4896 1.79535" stroke="#7FC4F2" stroke-width="1.5" stroke-linecap="round"/>
<path d="M28.5925 12.028C30.6503 19.3408 26.3315 26.1453 18.9438 28.222C11.5561 30.2986 3.89884 26.0537 1.84106 18.7409C-0.216732 11.428 4.10411 3.81619 11.4918 1.73953C13.9283 1.05466 16.2431 1.05773 18.5277 1.63129" stroke="#7FC4F2" stroke-width="1.5" stroke-linecap="round"/>
<path d="M23.187 9C23.0136 9 22.877 8.95333 22.777 8.86C22.6836 8.76 22.637 8.62667 22.637 8.46C22.637 8.28667 22.6836 8.15667 22.777 8.07C22.877 7.98333 23.0136 7.94 23.187 7.94H24.307V3.03H24.927L23.457 3.92C23.3303 3.99333 23.2103 4.02333 23.097 4.01C22.9903 3.99 22.897 3.94333 22.817 3.87C22.7436 3.79 22.6936 3.69667 22.667 3.59C22.6403 3.48333 22.647 3.37667 22.687 3.27C22.7336 3.15667 22.8203 3.06333 22.947 2.99L24.327 2.16C24.4603 2.08 24.5936 2.01333 24.727 1.96C24.8603 1.9 24.9836 1.87 25.097 1.87C25.237 1.87 25.3536 1.91 25.447 1.99C25.5403 2.06333 25.587 2.18667 25.587 2.36V7.94H26.607C26.7803 7.94 26.9136 7.98333 27.007 8.07C27.107 8.15667 27.157 8.28667 27.157 8.46C27.157 8.63333 27.107 8.76667 27.007 8.86C26.9136 8.95333 26.7803 9 26.607 9H23.187Z" fill="#F21F3F"/>
<path d="M17.7596 17.7475L20.11 20.11M17.7596 17.7475C18.684 16.8201 19.2554 15.5405 19.2554 14.1277C19.2554 11.2958 16.9597 9 14.1277 9C11.2957 9 9 11.2958 9 14.1277C9 16.9597 11.2957 19.2554 14.1277 19.2554C15.5467 19.2554 16.8312 18.679 17.7596 17.7475Z" stroke="#7FC4F2" stroke-width="1.5" stroke-linecap="round"/>
</g>
<defs>
<clipPath id="clip0_327_979">
<rect width="30" height="30" fill="white"/>
</clipPath>
</defs>
</svg>
