<svg width="30" height="30" viewBox="0 0 30 30" fill="none" xmlns="http://www.w3.org/2000/svg">
<g clip-path="url(#clip0_327_1057)">
<path d="M28.5925 12.028C30.6503 19.3408 26.3315 26.1453 18.9438 28.222C11.5561 30.2986 3.89884 26.0537 1.84106 18.7409C-0.216732 11.428 4.10411 3.81619 11.4918 1.73953C13.9283 1.05466 16.2431 1.05773 18.5277 1.63129" stroke="#7FFC7F" stroke-width="1.5" stroke-linecap="round"/>
<path d="M28.5544 12.192C30.6122 19.5049 26.2934 26.3094 18.9057 28.386C11.518 30.4627 3.86076 26.2178 1.80298 18.905C-0.254818 11.592 4.06603 3.98025 11.4537 1.90359C13.8902 1.21872 16.2051 1.22179 18.4896 1.79535" stroke="#7FFC7F" stroke-width="1.5" stroke-linecap="round"/>
<path d="M28.5925 12.028C30.6503 19.3408 26.3315 26.1453 18.9438 28.222C11.5561 30.2986 3.89884 26.0537 1.84106 18.7409C-0.216732 11.428 4.10411 3.81619 11.4918 1.73953C13.9283 1.05466 16.2431 1.05773 18.5277 1.63129" stroke="#7FFC7F" stroke-width="1.5" stroke-linecap="round"/>
<path d="M24.487 9.1C24.127 9.1 23.7536 9.05333 23.367 8.96C22.9803 8.86667 22.6436 8.72667 22.357 8.54C22.2236 8.45333 22.1336 8.35333 22.087 8.24C22.0403 8.12667 22.027 8.02 22.047 7.92C22.0736 7.81333 22.1236 7.72333 22.197 7.65C22.277 7.57667 22.3736 7.53333 22.487 7.52C22.607 7.50667 22.737 7.53667 22.877 7.61C23.1503 7.75667 23.4136 7.86333 23.667 7.93C23.9203 7.99 24.1803 8.02 24.447 8.02C24.7403 8.02 24.987 7.98 25.187 7.9C25.387 7.82 25.537 7.7 25.637 7.54C25.7436 7.38 25.797 7.18667 25.797 6.96C25.797 6.62667 25.6836 6.38 25.457 6.22C25.237 6.05333 24.9136 5.97 24.487 5.97H23.847C23.6603 5.97 23.517 5.92333 23.417 5.83C23.3236 5.73667 23.277 5.60667 23.277 5.44C23.277 5.27333 23.3236 5.14333 23.417 5.05C23.517 4.95667 23.6603 4.91 23.847 4.91H24.367C24.6203 4.91 24.837 4.87 25.017 4.79C25.197 4.70333 25.337 4.58333 25.437 4.43C25.537 4.27667 25.587 4.09 25.587 3.87C25.587 3.56333 25.4836 3.33 25.277 3.17C25.077 3.01 24.7836 2.93 24.397 2.93C24.1503 2.93 23.917 2.96 23.697 3.02C23.4836 3.07333 23.247 3.17667 22.987 3.33C22.867 3.40333 22.7503 3.43333 22.637 3.42C22.5303 3.40667 22.4403 3.36333 22.367 3.29C22.2936 3.21667 22.2436 3.13 22.217 3.03C22.1903 2.92333 22.197 2.81667 22.237 2.71C22.277 2.59667 22.3603 2.5 22.487 2.42C22.7736 2.23333 23.0903 2.09333 23.437 2C23.7836 1.9 24.1403 1.85 24.507 1.85C24.9936 1.85 25.4103 1.92667 25.757 2.08C26.1036 2.22667 26.367 2.44 26.547 2.72C26.7336 2.99333 26.827 3.32667 26.827 3.72C26.827 4 26.7736 4.25667 26.667 4.49C26.5603 4.71667 26.4103 4.91 26.217 5.07C26.0236 5.23 25.7903 5.34333 25.517 5.41V5.29C25.997 5.37 26.3703 5.57 26.637 5.89C26.9036 6.20333 27.037 6.59667 27.037 7.07C27.037 7.48333 26.9336 7.84333 26.727 8.15C26.5203 8.45667 26.227 8.69333 25.847 8.86C25.467 9.02 25.0136 9.1 24.487 9.1Z" fill="#F21F3F"/>
<path d="M17.7596 17.7475L20.11 20.11M17.7596 17.7475C18.684 16.8201 19.2554 15.5405 19.2554 14.1277C19.2554 11.2958 16.9597 9 14.1277 9C11.2957 9 9 11.2958 9 14.1277C9 16.9597 11.2957 19.2554 14.1277 19.2554C15.5467 19.2554 16.8312 18.679 17.7596 17.7475Z" stroke="#7FFC7F" stroke-width="1.5" stroke-linecap="round"/>
</g>
<defs>
<clipPath id="clip0_327_1057">
<rect width="30" height="30" fill="white"/>
</clipPath>
</defs>
</svg>
