<svg width="30" height="30" viewBox="0 0 30 30" fill="none" xmlns="http://www.w3.org/2000/svg">
<g clip-path="url(#clip0_327_1000)">
<path d="M28.5925 12.028C30.6503 19.3408 26.3315 26.1453 18.9438 28.222C11.5561 30.2986 3.89884 26.0537 1.84106 18.7409C-0.216732 11.428 4.10411 3.81619 11.4918 1.73953C13.9283 1.05466 16.2431 1.05773 18.5277 1.63129" stroke="#7FC4F2" stroke-width="1.5" stroke-linecap="round"/>
<path d="M28.5544 12.192C30.6122 19.5049 26.2934 26.3094 18.9057 28.386C11.518 30.4627 3.86076 26.2178 1.80298 18.905C-0.254818 11.592 4.06603 3.98025 11.4537 1.90359C13.8902 1.21872 16.2051 1.22179 18.4896 1.79535" stroke="#7FC4F2" stroke-width="1.5" stroke-linecap="round"/>
<path d="M28.5925 12.028C30.6503 19.3408 26.3315 26.1453 18.9438 28.222C11.5561 30.2986 3.89884 26.0537 1.84106 18.7409C-0.216732 11.428 4.10411 3.81619 11.4918 1.73953C13.9283 1.05466 16.2431 1.05773 18.5277 1.63129" stroke="#7FC4F2" stroke-width="1.5" stroke-linecap="round"/>
<path d="M25.757 9.08C25.557 9.08 25.4003 9.02667 25.287 8.92C25.1736 8.80667 25.117 8.64667 25.117 8.44V7.66H22.647C22.4403 7.66 22.2736 7.61667 22.147 7.53C22.027 7.44333 21.967 7.30667 21.967 7.12C21.967 7.01333 21.9936 6.89667 22.047 6.77C22.107 6.64333 22.2103 6.47667 22.357 6.27L25.097 2.3C25.1903 2.16 25.2936 2.05333 25.407 1.98C25.5203 1.90667 25.6503 1.87 25.797 1.87C25.9703 1.87 26.1136 1.92333 26.227 2.03C26.3403 2.13 26.397 2.29 26.397 2.51V6.6H26.887C27.0803 6.6 27.2236 6.64667 27.317 6.74C27.417 6.82667 27.467 6.95667 27.467 7.13C27.467 7.30333 27.417 7.43667 27.317 7.53C27.2236 7.61667 27.0803 7.66 26.887 7.66H26.397V8.44C26.397 8.64667 26.3403 8.80667 26.227 8.92C26.1136 9.02667 25.957 9.08 25.757 9.08ZM25.117 6.6V3.48H25.407L23.047 6.94V6.6H25.117Z" fill="#F21F3F"/>
<path d="M17.7596 17.7475L20.11 20.11M17.7596 17.7475C18.684 16.8201 19.2554 15.5405 19.2554 14.1277C19.2554 11.2958 16.9597 9 14.1277 9C11.2957 9 9 11.2958 9 14.1277C9 16.9597 11.2957 19.2554 14.1277 19.2554C15.5467 19.2554 16.8312 18.679 17.7596 17.7475Z" stroke="#7FC4F2" stroke-width="1.5" stroke-linecap="round"/>
</g>
<defs>
<clipPath id="clip0_327_1000">
<rect width="30" height="30" fill="white"/>
</clipPath>
</defs>
</svg>
