<svg width="30" height="30" viewBox="0 0 30 30" fill="none" xmlns="http://www.w3.org/2000/svg">
<g clip-path="url(#clip0_325_962)">
<path d="M28.5925 12.028C30.6503 19.3408 26.3315 26.1453 18.9438 28.222C11.5561 30.2986 3.89884 26.0537 1.84106 18.7409C-0.216732 11.428 4.10411 3.81619 11.4918 1.73953C13.9283 1.05466 16.2431 1.05773 18.5277 1.63129" stroke="#D9D9D9" stroke-width="1.5" stroke-linecap="round"/>
<path d="M28.5544 12.192C30.6122 19.5049 26.2934 26.3094 18.9057 28.386C11.518 30.4627 3.86076 26.2178 1.80298 18.905C-0.254818 11.592 4.06603 3.98025 11.4537 1.90359C13.8902 1.21872 16.2051 1.22179 18.4896 1.79535" stroke="#D9D9D9" stroke-width="1.5" stroke-linecap="round"/>
<path d="M28.5925 12.028C30.6503 19.3408 26.3315 26.1453 18.9438 28.222C11.5561 30.2986 3.89884 26.0537 1.84106 18.7409C-0.216732 11.428 4.10411 3.81619 11.4918 1.73953C13.9283 1.05466 16.2431 1.05773 18.5277 1.63129" stroke="#D9D9D9" stroke-width="1.5" stroke-linecap="round"/>
<path d="M23.827 10.1C23.5403 10.1 23.2436 10.0567 22.937 9.97C22.6303 9.87667 22.3436 9.74 22.077 9.56C21.9703 9.49333 21.9003 9.40667 21.867 9.3C21.8336 9.19333 21.827 9.09 21.847 8.99C21.8736 8.88333 21.9203 8.79333 21.987 8.72C22.0603 8.64 22.1503 8.59333 22.257 8.58C22.3636 8.56 22.4803 8.58667 22.607 8.66C22.8336 8.79333 23.047 8.88667 23.247 8.94C23.447 8.99333 23.647 9.02 23.847 9.02C24.2336 9.02 24.5603 8.93 24.827 8.75C25.0936 8.57 25.2936 8.3 25.427 7.94C25.567 7.57333 25.637 7.12333 25.637 6.59V5.84H25.757C25.7103 6.17333 25.6003 6.46333 25.427 6.71C25.2536 6.95667 25.0336 7.14667 24.767 7.28C24.5003 7.40667 24.2036 7.47 23.877 7.47C23.477 7.47 23.117 7.37333 22.797 7.18C22.4836 6.98667 22.237 6.72 22.057 6.38C21.877 6.03333 21.787 5.64333 21.787 5.21C21.787 4.75 21.8836 4.34333 22.077 3.99C22.277 3.63667 22.5536 3.36 22.907 3.16C23.2603 2.95333 23.6636 2.85 24.117 2.85C24.7036 2.85 25.2003 2.98667 25.607 3.26C26.0136 3.53333 26.3236 3.93333 26.537 4.46C26.7503 4.98 26.857 5.61 26.857 6.35C26.857 6.95 26.787 7.48333 26.647 7.95C26.5136 8.41 26.317 8.8 26.057 9.12C25.797 9.44 25.477 9.68333 25.097 9.85C24.7236 10.0167 24.3003 10.1 23.827 10.1ZM24.197 6.45C24.437 6.45 24.647 6.39667 24.827 6.29C25.0136 6.17667 25.157 6.02333 25.257 5.83C25.357 5.63 25.407 5.40333 25.407 5.15C25.407 4.89 25.357 4.66333 25.257 4.47C25.157 4.27667 25.0136 4.12667 24.827 4.02C24.647 3.91333 24.437 3.86 24.197 3.86C23.957 3.86 23.747 3.91333 23.567 4.02C23.387 4.12667 23.2436 4.27667 23.137 4.47C23.037 4.66333 22.987 4.89 22.987 5.15C22.987 5.40333 23.037 5.63 23.137 5.83C23.2436 6.02333 23.387 6.17667 23.567 6.29C23.747 6.39667 23.957 6.45 24.197 6.45Z" fill="#F21F3F"/>
<path d="M28.1264 3.776C28.0237 3.776 27.9444 3.748 27.8884 3.692C27.8324 3.63133 27.8044 3.54967 27.8044 3.447V2.299H26.6774C26.5794 2.299 26.5024 2.27333 26.4464 2.222C26.3904 2.166 26.3624 2.089 26.3624 1.991C26.3624 1.893 26.3904 1.81833 26.4464 1.767C26.5024 1.711 26.5794 1.683 26.6774 1.683H27.8044V0.57C27.8044 0.467333 27.8324 0.388 27.8884 0.332C27.9444 0.276 28.026 0.248 28.1334 0.248C28.236 0.248 28.313 0.276 28.3644 0.332C28.4204 0.388 28.4484 0.467333 28.4484 0.57V1.683H29.5754C29.678 1.683 29.755 1.711 29.8064 1.767C29.8624 1.81833 29.8904 1.893 29.8904 1.991C29.8904 2.089 29.8624 2.166 29.8064 2.222C29.755 2.27333 29.678 2.299 29.5754 2.299H28.4484V3.447C28.4484 3.54967 28.4204 3.63133 28.3644 3.692C28.313 3.748 28.2337 3.776 28.1264 3.776Z" fill="#F21F3F"/>
<path d="M17.7596 17.7475L20.11 20.11M17.7596 17.7475C18.684 16.8201 19.2554 15.5405 19.2554 14.1277C19.2554 11.2958 16.9597 9 14.1277 9C11.2957 9 9 11.2958 9 14.1277C9 16.9597 11.2957 19.2554 14.1277 19.2554C15.5467 19.2554 16.8312 18.679 17.7596 17.7475Z" stroke="#D9D9D9" stroke-width="1.5" stroke-linecap="round"/>
</g>
<defs>
<clipPath id="clip0_325_962">
<rect width="30" height="30" fill="white"/>
</clipPath>
</defs>
</svg>
