<svg width="30" height="30" viewBox="0 0 30 30" fill="none" xmlns="http://www.w3.org/2000/svg">
<g clip-path="url(#clip0_327_1078)">
<path d="M28.5925 12.028C30.6503 19.3408 26.3315 26.1453 18.9438 28.222C11.5561 30.2986 3.89884 26.0537 1.84106 18.7409C-0.216732 11.428 4.10411 3.81619 11.4918 1.73953C13.9283 1.05466 16.2431 1.05773 18.5277 1.63129" stroke="#7FFC7F" stroke-width="1.5" stroke-linecap="round"/>
<path d="M28.5544 12.192C30.6122 19.5049 26.2934 26.3094 18.9057 28.386C11.518 30.4627 3.86076 26.2178 1.80298 18.905C-0.254818 11.592 4.06603 3.98025 11.4537 1.90359C13.8902 1.21872 16.2051 1.22179 18.4896 1.79535" stroke="#7FFC7F" stroke-width="1.5" stroke-linecap="round"/>
<path d="M28.5925 12.028C30.6503 19.3408 26.3315 26.1453 18.9438 28.222C11.5561 30.2986 3.89884 26.0537 1.84106 18.7409C-0.216732 11.428 4.10411 3.81619 11.4918 1.73953C13.9283 1.05466 16.2431 1.05773 18.5277 1.63129" stroke="#7FFC7F" stroke-width="1.5" stroke-linecap="round"/>
<path d="M24.887 9.1C24.307 9.1 23.8103 8.96333 23.397 8.69C22.9903 8.41 22.6803 8.01 22.467 7.49C22.2536 6.97 22.147 6.34 22.147 5.6C22.147 5 22.2136 4.47 22.347 4.01C22.487 3.54333 22.687 3.15 22.947 2.83C23.207 2.51 23.5236 2.26667 23.897 2.1C24.277 1.93333 24.7036 1.85 25.177 1.85C25.4703 1.85 25.767 1.89667 26.067 1.99C26.3736 2.07667 26.6603 2.21 26.927 2.39C27.0336 2.45667 27.1036 2.54333 27.137 2.65C27.1703 2.75667 27.1736 2.86333 27.147 2.97C27.127 3.07 27.0803 3.16 27.007 3.24C26.9403 3.31333 26.8536 3.36 26.747 3.38C26.6403 3.39333 26.5236 3.36333 26.397 3.29C26.1703 3.15667 25.957 3.06333 25.757 3.01C25.557 2.95667 25.357 2.93 25.157 2.93C24.7703 2.93 24.4436 3.02 24.177 3.2C23.9103 3.38 23.707 3.65 23.567 4.01C23.4336 4.37 23.367 4.82 23.367 5.36V6.11H23.247C23.3003 5.77 23.4103 5.48 23.577 5.24C23.7503 4.99333 23.9703 4.80667 24.237 4.68C24.5036 4.54667 24.8003 4.48 25.127 4.48C25.5336 4.48 25.8936 4.57667 26.207 4.77C26.5203 4.96333 26.767 5.23 26.947 5.57C27.127 5.91 27.217 6.3 27.217 6.74C27.217 7.19333 27.117 7.6 26.917 7.96C26.7236 8.31333 26.4503 8.59333 26.097 8.8C25.7503 9 25.347 9.1 24.887 9.1ZM24.817 8.08C25.057 8.08 25.267 8.02667 25.447 7.92C25.6336 7.81333 25.777 7.66333 25.877 7.47C25.977 7.27 26.027 7.04333 26.027 6.79C26.027 6.53 25.977 6.30333 25.877 6.11C25.777 5.91667 25.6336 5.76667 25.447 5.66C25.267 5.54667 25.057 5.49 24.817 5.49C24.577 5.49 24.367 5.54667 24.187 5.66C24.007 5.76667 23.8636 5.91667 23.757 6.11C23.657 6.30333 23.607 6.53 23.607 6.79C23.607 7.04333 23.657 7.27 23.757 7.47C23.8636 7.66333 24.007 7.81333 24.187 7.92C24.367 8.02667 24.577 8.08 24.817 8.08Z" fill="#F21F3F"/>
<path d="M17.7596 17.7475L20.11 20.11M17.7596 17.7475C18.684 16.8201 19.2554 15.5405 19.2554 14.1277C19.2554 11.2958 16.9597 9 14.1277 9C11.2957 9 9 11.2958 9 14.1277C9 16.9597 11.2957 19.2554 14.1277 19.2554C15.5467 19.2554 16.8312 18.679 17.7596 17.7475Z" stroke="#7FFC7F" stroke-width="1.5" stroke-linecap="round"/>
</g>
<defs>
<clipPath id="clip0_327_1078">
<rect width="30" height="30" fill="white"/>
</clipPath>
</defs>
</svg>
