<svg width="30" height="30" viewBox="0 0 30 30" fill="none" xmlns="http://www.w3.org/2000/svg">
<g clip-path="url(#clip0_327_1106)">
<path d="M28.5925 12.028C30.6503 19.3408 26.3315 26.1453 18.9438 28.222C11.5561 30.2986 3.89884 26.0537 1.84106 18.7409C-0.216732 11.428 4.10411 3.81619 11.4918 1.73953C13.9283 1.05466 16.2431 1.05773 18.5277 1.63129" stroke="#7FFC7F" stroke-width="1.5" stroke-linecap="round"/>
<path d="M28.5544 12.192C30.6122 19.5049 26.2934 26.3094 18.9057 28.386C11.518 30.4627 3.86076 26.2178 1.80298 18.905C-0.254818 11.592 4.06603 3.98025 11.4537 1.90359C13.8902 1.21872 16.2051 1.22179 18.4896 1.79535" stroke="#7FFC7F" stroke-width="1.5" stroke-linecap="round"/>
<path d="M28.5925 12.028C30.6503 19.3408 26.3315 26.1453 18.9438 28.222C11.5561 30.2986 3.89884 26.0537 1.84106 18.7409C-0.216732 11.428 4.10411 3.81619 11.4918 1.73953C13.9283 1.05466 16.2431 1.05773 18.5277 1.63129" stroke="#7FFC7F" stroke-width="1.5" stroke-linecap="round"/>
<path d="M24.627 9.1C24.0803 9.1 23.6103 9.02333 23.217 8.87C22.8303 8.71 22.5303 8.48 22.317 8.18C22.1103 7.88 22.007 7.52 22.007 7.1C22.007 6.76667 22.0736 6.47333 22.207 6.22C22.347 5.96 22.537 5.75 22.777 5.59C23.017 5.43 23.2903 5.33 23.597 5.29V5.5C23.1703 5.40667 22.827 5.20333 22.567 4.89C22.3136 4.57 22.187 4.19 22.187 3.75C22.187 3.35 22.287 3.01 22.487 2.73C22.687 2.44333 22.9703 2.22667 23.337 2.08C23.7036 1.92667 24.1336 1.85 24.627 1.85C25.127 1.85 25.5603 1.92667 25.927 2.08C26.2936 2.22667 26.577 2.44333 26.777 2.73C26.977 3.01 27.077 3.35 27.077 3.75C27.077 4.04333 27.017 4.31333 26.897 4.56C26.7836 4.80667 26.6203 5.01 26.407 5.17C26.2003 5.33 25.957 5.43667 25.677 5.49V5.29C26.1436 5.35667 26.5203 5.55333 26.807 5.88C27.1003 6.2 27.247 6.60667 27.247 7.1C27.247 7.52 27.1403 7.88 26.927 8.18C26.7203 8.48 26.4203 8.71 26.027 8.87C25.6403 9.02333 25.1736 9.1 24.627 9.1ZM24.627 8.1C25.1003 8.1 25.457 8.01 25.697 7.83C25.937 7.64333 26.057 7.37 26.057 7.01C26.057 6.65 25.937 6.38 25.697 6.2C25.457 6.02 25.1003 5.93 24.627 5.93C24.1603 5.93 23.8036 6.02 23.557 6.2C23.317 6.38 23.197 6.65 23.197 7.01C23.197 7.37 23.317 7.64333 23.557 7.83C23.8036 8.01 24.1603 8.1 24.627 8.1ZM24.627 4.93C24.8936 4.93 25.1203 4.89 25.307 4.81C25.4936 4.72333 25.637 4.6 25.737 4.44C25.837 4.28 25.887 4.09333 25.887 3.88C25.887 3.56 25.7736 3.31 25.547 3.13C25.327 2.94333 25.0203 2.85 24.627 2.85C24.2336 2.85 23.927 2.94333 23.707 3.13C23.487 3.31 23.377 3.56 23.377 3.88C23.377 4.20667 23.487 4.46333 23.707 4.65C23.927 4.83667 24.2336 4.93 24.627 4.93Z" fill="#F21F3F"/>
<path d="M17.7596 17.7475L20.11 20.11M17.7596 17.7475C18.684 16.8201 19.2554 15.5405 19.2554 14.1277C19.2554 11.2958 16.9597 9 14.1277 9C11.2957 9 9 11.2958 9 14.1277C9 16.9597 11.2957 19.2554 14.1277 19.2554C15.5467 19.2554 16.8312 18.679 17.7596 17.7475Z" stroke="#7FFC7F" stroke-width="1.5" stroke-linecap="round"/>
</g>
<defs>
<clipPath id="clip0_327_1106">
<rect width="30" height="30" fill="white"/>
</clipPath>
</defs>
</svg>
