<svg width="30" height="30" viewBox="0 0 30 30" fill="none" xmlns="http://www.w3.org/2000/svg">
<g clip-path="url(#clip0_327_1014)">
<path d="M28.5925 12.028C30.6503 19.3408 26.3315 26.1453 18.9438 28.222C11.5561 30.2986 3.89884 26.0537 1.84106 18.7409C-0.216732 11.428 4.10411 3.81619 11.4918 1.73953C13.9283 1.05466 16.2431 1.05773 18.5277 1.63129" stroke="#7FC4F2" stroke-width="1.5" stroke-linecap="round"/>
<path d="M28.5544 12.192C30.6122 19.5049 26.2934 26.3094 18.9057 28.386C11.518 30.4627 3.86076 26.2178 1.80298 18.905C-0.254818 11.592 4.06603 3.98025 11.4537 1.90359C13.8902 1.21872 16.2051 1.22179 18.4896 1.79535" stroke="#7FC4F2" stroke-width="1.5" stroke-linecap="round"/>
<path d="M28.5925 12.028C30.6503 19.3408 26.3315 26.1453 18.9438 28.222C11.5561 30.2986 3.89884 26.0537 1.84106 18.7409C-0.216732 11.428 4.10411 3.81619 11.4918 1.73953C13.9283 1.05466 16.2431 1.05773 18.5277 1.63129" stroke="#7FC4F2" stroke-width="1.5" stroke-linecap="round"/>
<path d="M24.687 9.1C24.3336 9.1 23.9736 9.05333 23.607 8.96C23.2403 8.86667 22.9036 8.72333 22.597 8.53C22.4703 8.45 22.3836 8.35667 22.337 8.25C22.297 8.13667 22.287 8.02667 22.307 7.92C22.3336 7.80667 22.3836 7.71333 22.457 7.64C22.537 7.56 22.6303 7.51333 22.737 7.5C22.8503 7.48667 22.9736 7.51667 23.107 7.59C23.3536 7.73 23.6036 7.83667 23.857 7.91C24.1103 7.98333 24.3803 8.02 24.667 8.02C24.947 8.02 25.187 7.97 25.387 7.87C25.587 7.77 25.7403 7.63 25.847 7.45C25.9536 7.27 26.007 7.06 26.007 6.82C26.007 6.44667 25.8936 6.14667 25.667 5.92C25.4403 5.68667 25.1303 5.57 24.737 5.57C24.5236 5.57 24.317 5.60667 24.117 5.68C23.917 5.74667 23.7203 5.86667 23.527 6.04C23.467 6.09333 23.3903 6.14667 23.297 6.2C23.2036 6.24667 23.1036 6.27 22.997 6.27C22.8303 6.27 22.7036 6.22667 22.617 6.14C22.5303 6.05333 22.487 5.93333 22.487 5.78V2.51C22.487 2.33 22.5336 2.19333 22.627 2.1C22.727 2 22.867 1.95 23.047 1.95H26.337C26.517 1.95 26.6536 1.99667 26.747 2.09C26.847 2.17667 26.897 2.30667 26.897 2.48C26.897 2.64667 26.847 2.77667 26.747 2.87C26.6536 2.96333 26.517 3.01 26.337 3.01H23.737V5.25H23.407C23.5803 5.01667 23.8103 4.83667 24.097 4.71C24.3836 4.58333 24.697 4.52 25.037 4.52C25.4836 4.52 25.8703 4.61667 26.197 4.81C26.5303 4.99667 26.787 5.26 26.967 5.6C27.1536 5.93333 27.247 6.32333 27.247 6.77C27.247 7.23 27.1436 7.63667 26.937 7.99C26.7303 8.33667 26.4336 8.61 26.047 8.81C25.667 9.00333 25.2136 9.1 24.687 9.1Z" fill="#F21F3F"/>
<path d="M17.7596 17.7475L20.11 20.11M17.7596 17.7475C18.684 16.8201 19.2554 15.5405 19.2554 14.1277C19.2554 11.2958 16.9597 9 14.1277 9C11.2957 9 9 11.2958 9 14.1277C9 16.9597 11.2957 19.2554 14.1277 19.2554C15.5467 19.2554 16.8312 18.679 17.7596 17.7475Z" stroke="#7FC4F2" stroke-width="1.5" stroke-linecap="round"/>
</g>
<defs>
<clipPath id="clip0_327_1014">
<rect width="30" height="30" fill="white"/>
</clipPath>
</defs>
</svg>
