<svg width="30" height="30" viewBox="0 0 30 30" fill="none" xmlns="http://www.w3.org/2000/svg">
<g clip-path="url(#clip0_324_21)">
<path d="M14.9 28.8C22.5768 28.8 28.8 22.5768 28.8 14.9C28.8 7.22324 22.5768 1 14.9 1C7.22324 1 1 7.22324 1 14.9C1 22.5768 7.22324 28.8 14.9 28.8Z" stroke="#7FC4F2" stroke-width="1.5"/>
<path d="M17.7596 17.7475L20.11 20.11M17.7596 17.7475C18.684 16.8201 19.2554 15.5405 19.2554 14.1277C19.2554 11.2958 16.9597 9 14.1277 9C11.2957 9 9 11.2958 9 14.1277C9 16.9597 11.2957 19.2554 14.1277 19.2554C15.5467 19.2554 16.8312 18.679 17.7596 17.7475Z" stroke="#7FC4F2" stroke-width="1.5" stroke-linecap="round"/>
<path d="M14.9 28.8C22.5768 28.8 28.8 22.5768 28.8 14.9C28.8 7.22324 22.5768 1 14.9 1C7.22324 1 1 7.22324 1 14.9C1 22.5768 7.22324 28.8 14.9 28.8Z" stroke="#7FC4F2" stroke-width="1.5"/>
<path d="M17.7596 17.7475L20.11 20.11M17.7596 17.7475C18.684 16.8201 19.2554 15.5405 19.2554 14.1277C19.2554 11.2958 16.9597 9 14.1277 9C11.2957 9 9 11.2958 9 14.1277C9 16.9597 11.2957 19.2554 14.1277 19.2554C15.5467 19.2554 16.8312 18.679 17.7596 17.7475Z" stroke="#7FC4F2" stroke-width="1.5" stroke-linecap="round"/>
</g>
<defs>
<clipPath id="clip0_324_21">
<rect width="30" height="30" fill="white"/>
</clipPath>
</defs>
</svg>
