<svg width="30" height="30" viewBox="0 0 30 30" fill="none" xmlns="http://www.w3.org/2000/svg">
<g clip-path="url(#clip0_27_1007)">
<path d="M12.1548 21.1079L21.0968 12.1497C23.1871 12.964 25.6258 12.4987 27.3678 10.8699C29.1097 9.24115 29.4581 6.68167 28.6452 4.58754L25.8581 7.37971L23.3032 6.68167L22.6065 4.12218L25.3936 1.33001C23.3032 0.515632 20.8645 0.980993 19.1226 2.60976C17.3807 4.23852 17.0323 6.79801 17.8452 8.89213L8.90321 17.8503C6.81288 17.036 4.37417 17.5013 2.63223 19.1301C0.890289 20.7588 0.541901 23.3183 1.35481 25.4125L4.14191 22.6203L6.69675 23.3183L7.39353 25.8778L4.60643 28.67C6.69675 29.4844 9.13547 29.019 10.8774 27.3902C12.6193 25.7615 12.9677 23.202 12.1548 21.1079Z" stroke="#D9D9D9" stroke-width="1.5" stroke-miterlimit="10" stroke-linejoin="round"/>
<path fill-rule="evenodd" clip-rule="evenodd" d="M0.365945 3.22104C4.23704 9.24054 15.8973 21.4159 15.8973 21.4159L15.9018 21.4112C15.9292 21.4425 15.954 21.4753 15.9833 21.5059C16.332 21.8674 16.7546 22.1412 17.2194 22.3066C17.6841 22.472 18.1787 22.5247 18.6658 22.4607C18.5059 23.1416 18.5134 23.8538 18.6877 24.5309C18.8621 25.208 19.1975 25.8279 19.6627 26.3327C19.6627 26.3327 24.566 32.6748 30 28.6786C30 28.6786 27.0698 27.82 26.8148 25.3473C26.882 24.4605 26.7588 23.5691 26.4542 22.7385C26.1496 21.9078 25.6713 21.1589 25.0544 20.5465C24.6037 20.0584 24.0395 19.7013 23.4171 19.51C22.7947 19.3187 22.1355 19.2999 21.5041 19.4553C21.5583 18.9526 21.5037 18.4436 21.3445 17.9659C21.1852 17.4882 20.9253 17.054 20.5841 16.6955C20.5554 16.6648 20.5234 16.6389 20.4934 16.6096L20.498 16.6048C20.498 16.6048 8.84558 4.42739 3.08165 0.384162C2.70727 0.101792 2.24905 -0.032074 1.78896 0.00650791C1.32886 0.0450899 0.896893 0.253603 0.570316 0.594753C0.243738 0.935902 0.0438516 1.38744 0.00640936 1.86859C-0.0310329 2.34975 0.0964105 2.82915 0.365945 3.22104ZM20.5704 21.4746C20.8022 21.2253 21.0792 21.0267 21.3851 20.8903C21.691 20.7539 22.0198 20.6825 22.3524 20.6801C22.6866 20.6804 23.0174 20.7513 23.3248 20.8886C23.6322 21.0258 23.91 21.2265 24.1415 21.4787C24.6273 21.9807 25.0037 22.5865 25.2451 23.2546C25.4865 23.9227 25.5871 24.6375 25.5401 25.35C25.695 26.6129 26.2883 27.7721 27.2074 28.607C26.9309 28.6598 26.6505 28.6863 26.3695 28.6861C23.2724 28.6861 20.6629 25.5083 20.6388 25.481C20.6382 25.4783 18.8529 23.2715 20.5704 21.4746ZM20.2196 19.1028C20.2228 19.3692 20.1753 19.6336 20.0797 19.8806C19.9841 20.1275 19.8423 20.352 19.6627 20.541C19.2907 20.9278 18.7881 21.1461 18.2635 21.1486C18.0124 21.1478 17.7639 21.0947 17.5326 20.9923C17.3013 20.89 17.0918 20.7405 16.9164 20.5526L15.9031 19.4819L15.7245 19.291L18.463 16.4268C18.523 16.4875 18.5934 16.5632 18.6501 16.6171L19.6634 17.6652C19.843 17.854 19.9847 18.0784 20.0802 18.3253C20.1757 18.5722 20.2231 18.8365 20.2196 19.1028ZM1.48939 1.56188C1.54866 1.49976 1.6191 1.45054 1.69666 1.41707C1.77422 1.38359 1.85735 1.36652 1.94125 1.36684C2.09136 1.3687 2.23677 1.42187 2.35529 1.51823C6.4096 4.36193 14.0918 11.9976 17.5476 15.498L14.8358 18.3342C11.4843 14.7199 4.16597 6.68462 1.42484 2.42317C1.33562 2.29514 1.2931 2.13798 1.30494 1.98005C1.31677 1.82211 1.38219 1.6738 1.48939 1.56188Z" fill="#D9D9D9"/>
<path d="M12.3376 12.8256C12.2435 12.6845 12.0908 12.6005 11.993 12.4636C11.8001 12.1935 11.5189 11.9923 11.2776 11.7657C10.7982 11.3153 10.3509 10.8434 9.89489 10.3698C9.42644 9.88337 8.9202 9.43712 8.47725 8.92603C7.90379 8.26434 7.44505 7.51189 6.88513 6.841C6.66437 6.57649 6.43315 6.29299 6.25919 5.99478C6.11756 5.75198 5.93632 5.53361 5.80336 5.28814C5.56115 4.84098 5.23682 4.44966 4.92006 4.05371C4.6603 3.729 4.35439 3.40576 4.04767 3.12461C3.93914 3.02512 3.75072 2.80858 3.60493 2.76693C3.43176 2.71745 3.19903 2.63435 3.04224 2.54883C2.89964 2.47104 2.74477 2.49469 2.60168 2.4027C2.54324 2.36513 2.30471 2.15625 2.27017 2.15625C2.15705 2.15625 2.60675 2.67875 2.63221 2.71022C3.08286 3.26738 3.75125 3.64715 4.23305 4.1802C4.51107 4.4878 4.85645 4.69342 5.15343 4.97626C5.40409 5.21499 5.76844 5.36478 5.99311 5.62402C6.35677 6.04363 6.62768 6.63913 6.88077 7.13326C7.01696 7.39915 7.16103 7.66487 7.35186 7.8966C7.3789 7.92943 7.58202 8.10495 7.50453 8.02746C7.35013 7.87306 7.18412 7.73287 7.04216 7.56509C6.94199 7.44671 6.90274 7.28907 6.79789 7.1747C6.71932 7.08899 6.60613 7.05491 6.52745 6.97623C6.40579 6.85456 6.28275 6.71847 6.17631 6.58365C6.1296 6.52448 5.97575 6.33938 6.12179 6.4746C6.22178 6.56718 6.35314 6.62685 6.45766 6.71887C6.49223 6.74931 6.87866 7.10925 6.73901 6.9108C6.51228 6.5886 6.28144 6.1588 5.95821 5.92063C5.9154 5.88908 5.86014 5.84393 5.81427 5.81812C5.69564 5.7514 5.39119 5.48284 5.47622 5.58912C6.14104 6.42015 6.96976 7.06972 7.69646 7.8399C8.3853 8.56995 9.16411 9.16616 9.90143 9.84204C10.136 10.0571 10.3607 10.2868 10.5884 10.5094C10.7184 10.6365 10.8616 10.7373 10.9439 10.902C11.1036 11.2212 11.1196 11.5513 11.0639 11.9096C11.026 12.1536 10.9668 12.3339 11.1337 12.5312C11.1811 12.5873 11.1965 12.6893 11.2384 12.7558C11.4327 13.0644 11.2142 12.4595 11.1729 12.372C10.9693 11.9402 10.6801 11.5983 10.414 11.2139C10.3431 11.1115 10.2531 10.9946 10.1304 10.95C10.0458 10.9192 10.2833 11.0453 10.3616 11.0896C10.4616 11.1461 10.5979 11.2481 10.7019 11.2859C10.7429 11.3008 10.728 11.1611 10.728 11.1375" stroke="#D9D9D9" stroke-width="3" stroke-linecap="round"/>
<path d="M13.2409 11.4163C13.1272 11.3936 12.9962 11.2516 12.9094 11.1895C12.711 11.0474 12.466 10.8035 12.2202 10.7489C12.0978 10.7217 11.9959 10.6372 11.8799 10.5919C11.748 10.5403 11.607 10.5261 11.4677 10.509C10.8573 10.4339 10.2555 10.3757 9.64006 10.4349C9.5336 10.4451 9.35148 10.5083 9.23876 10.4632C8.88337 10.321 8.58815 10.0204 8.27695 9.80455C8.15105 9.71723 7.83358 9.49744 7.98033 9.45341C8.04044 9.43538 8.68914 10.2828 8.72405 10.3193C9.34987 10.9735 10.0342 11.6061 10.748 12.1644C10.9799 12.3457 11.2248 12.4856 11.4568 12.6507C11.5199 12.6956 11.8668 13.262 11.8668 12.9866" stroke="#D9D9D9" stroke-width="3" stroke-linecap="round"/>
<path d="M14.4975 15.026C14.4975 14.8496 14.4995 14.7365 14.6458 14.6116C14.7055 14.5606 14.7606 14.5107 14.8115 14.4502C14.945 14.2917 14.8446 14.5223 14.8028 14.5854C14.6975 14.7446 14.5716 14.901 14.624 15.1045C14.668 15.2757 14.9169 15.2505 15.0383 15.1743C15.2214 15.0594 15.16 14.7899 15.1648 14.6116C15.1685 14.4744 15.3178 14.3121 15.2346 14.1623C15.1997 14.0994 15.0547 14.1194 14.9991 14.1231C14.8032 14.1359 14.7372 14.2854 14.7025 14.459C14.6612 14.6654 14.5511 14.8434 14.4887 15.0435C14.4146 15.2812 14.3933 15.5317 14.2248 15.7261C14.1418 15.8219 13.89 15.9566 13.8715 16.086C13.8145 16.4852 14.3356 16.6213 14.6196 16.4044C15.0641 16.0648 15.063 15.2616 15.7166 15.2616C15.8664 15.2616 16.6325 15.4614 16.5912 15.3139C16.3425 14.4258 15.0724 15.2095 14.613 15.3728C14.5305 15.4021 14.1474 15.4377 14.155 15.5255C14.1706 15.7047 14.4005 15.8677 14.5236 15.9726C14.7631 16.1763 14.9724 16.313 15.2826 16.3608" stroke="#D9D9D9" stroke-width="3" stroke-linecap="round"/>
<path d="M11.71 14.2812C12.1748 14.4323 12.66 14.5458 13.1145 14.7262C13.2555 14.7821 13.404 14.8254 13.5158 14.929C13.605 15.0117 14.3037 15.5253 13.8691 15.3805" stroke="#D9D9D9" stroke-width="3" stroke-linecap="round"/>
<path d="M17.7734 18.0474C18.1703 18.4443 18.1039 18.0805 17.7734 17.9861C17.7005 17.9653 17.5426 17.917 17.6156 18.0036C17.7958 18.2176 17.7767 18.5586 17.7383 18.8145C17.7102 19.0019 18.3505 18.3553 18.5448 18.363C18.7231 18.3702 18.9178 18.7199 18.9524 18.8759C18.9888 19.0394 18.7021 19.3606 18.6062 19.4939C18.4402 19.7244 17.9972 19.4612 17.8961 19.3142C17.7267 19.0677 17.4519 18.7866 17.2386 18.5734C17.0367 18.3715 16.7504 18.3441 16.5549 18.1307C16.5074 18.079 16.3942 17.9955 16.3182 18.0606C16.1329 18.2194 16.5773 18.5622 16.6644 18.6348C16.9723 18.8914 17.3717 19.2119 17.6156 19.5289C17.7012 19.6403 17.8361 19.6828 17.9312 19.7832C18.0693 19.929 18.0626 20.1863 18.1679 20.3574C18.3652 20.6781 18.7323 20.403 18.8341 20.1952C19.318 19.2076 19.4932 16.6873 18.0101 16.3906" stroke="#D9D9D9" stroke-width="3" stroke-linecap="round"/>
</g>
<defs>
<clipPath id="clip0_27_1007">
<rect width="30" height="30" fill="white"/>
</clipPath>
</defs>
</svg>
