<svg width="30" height="30" viewBox="0 0 30 30" fill="none" xmlns="http://www.w3.org/2000/svg">
<path d="M1 9.13333L5.23402 12.46C5.51357 12.6797 5.86595 12.8 6.22986 12.8H23.7701C24.1341 12.8 24.4864 12.6797 24.7659 12.46L29 9.13333M6.44444 17.9333H6.46M23.5556 17.9333H23.5711M9.02768 4H20.9724C22.0888 4 23.1197 4.56404 23.6735 5.47799L28.1802 12.914C28.7174 13.8004 29 14.8036 29 15.8247V24.5333C29 25.3434 28.3036 26 27.4444 26H25.8889C25.0298 26 24.3333 25.3434 24.3333 24.5333V23.0667H5.66667V24.5333C5.66667 25.3434 4.97021 26 4.11111 26H2.55556C1.69645 26 1 25.3434 1 24.5333V15.8247C1 14.8036 1.28258 13.8004 1.81982 12.914L6.32647 5.47799C6.88037 4.56404 7.91122 4 9.02768 4ZM7.22222 17.9333C7.22222 18.3383 6.874 18.6667 6.44444 18.6667C6.01489 18.6667 5.66667 18.3383 5.66667 17.9333C5.66667 17.5284 6.01489 17.2 6.44444 17.2C6.874 17.2 7.22222 17.5284 7.22222 17.9333ZM24.3333 17.9333C24.3333 18.3383 23.985 18.6667 23.5556 18.6667C23.1261 18.6667 22.7778 18.3383 22.7778 17.9333C22.7778 17.5284 23.1261 17.2 23.5556 17.2C23.985 17.2 24.3333 17.5284 24.3333 17.9333Z" stroke="#7FC4F2" stroke-width="1.7" stroke-linecap="round" stroke-linejoin="round"/>
</svg>
