<svg width="30" height="30" viewBox="0 0 30 30" fill="none" xmlns="http://www.w3.org/2000/svg">
<g clip-path="url(#clip0_34_1181)">
<path d="M17.9 1.52756C17.0034 1.34554 16.0753 1.25 15.125 1.25C7.46205 1.25 1.25 7.46205 1.25 15.125C1.25 17.3446 1.77117 19.4423 2.6978 21.3028C2.94405 21.7972 3.02601 22.3623 2.88325 22.8958L2.05685 25.9845C1.69809 27.3253 2.92473 28.5518 4.26552 28.1932L7.35415 27.3668C7.8877 27.224 8.4528 27.306 8.9472 27.5521C10.8076 28.4789 12.9054 29 15.125 29C22.7879 29 29 22.7879 29 15.125C29 14.1747 28.9044 13.2466 28.7225 12.35" stroke="#7FC4F2" stroke-width="1.5" stroke-linecap="round"/>
<path d="M24.377 10.1C23.8303 10.1 23.3603 10.0233 22.967 9.87C22.5803 9.71 22.2803 9.48 22.067 9.18C21.8603 8.88 21.757 8.52 21.757 8.1C21.757 7.76667 21.8236 7.47333 21.957 7.22C22.097 6.96 22.287 6.75 22.527 6.59C22.767 6.43 23.0403 6.33 23.347 6.29V6.5C22.9203 6.40667 22.577 6.20333 22.317 5.89C22.0636 5.57 21.937 5.19 21.937 4.75C21.937 4.35 22.037 4.01 22.237 3.73C22.437 3.44333 22.7203 3.22667 23.087 3.08C23.4536 2.92667 23.8836 2.85 24.377 2.85C24.877 2.85 25.3103 2.92667 25.677 3.08C26.0436 3.22667 26.327 3.44333 26.527 3.73C26.727 4.01 26.827 4.35 26.827 4.75C26.827 5.04333 26.767 5.31333 26.647 5.56C26.5336 5.80667 26.3703 6.01 26.157 6.17C25.9503 6.33 25.707 6.43667 25.427 6.49V6.29C25.8936 6.35667 26.2703 6.55333 26.557 6.88C26.8503 7.2 26.997 7.60667 26.997 8.1C26.997 8.52 26.8903 8.88 26.677 9.18C26.4703 9.48 26.1703 9.71 25.777 9.87C25.3903 10.0233 24.9236 10.1 24.377 10.1ZM24.377 9.1C24.8503 9.1 25.207 9.01 25.447 8.83C25.687 8.64333 25.807 8.37 25.807 8.01C25.807 7.65 25.687 7.38 25.447 7.2C25.207 7.02 24.8503 6.93 24.377 6.93C23.9103 6.93 23.5536 7.02 23.307 7.2C23.067 7.38 22.947 7.65 22.947 8.01C22.947 8.37 23.067 8.64333 23.307 8.83C23.5536 9.01 23.9103 9.1 24.377 9.1ZM24.377 5.93C24.6436 5.93 24.8703 5.89 25.057 5.81C25.2436 5.72333 25.387 5.6 25.487 5.44C25.587 5.28 25.637 5.09333 25.637 4.88C25.637 4.56 25.5236 4.31 25.297 4.13C25.077 3.94333 24.7703 3.85 24.377 3.85C23.9836 3.85 23.677 3.94333 23.457 4.13C23.237 4.31 23.127 4.56 23.127 4.88C23.127 5.20667 23.237 5.46333 23.457 5.65C23.677 5.83667 23.9836 5.93 24.377 5.93Z" fill="#F21F3F"/>
</g>
<defs>
<clipPath id="clip0_34_1181">
<rect width="30" height="30" fill="white"/>
</clipPath>
</defs>
</svg>
