<svg width="30" height="30" viewBox="0 0 30 30" fill="none" xmlns="http://www.w3.org/2000/svg">
<g clip-path="url(#clip0_1_41)">
<path d="M17.9 1.52756C17.0034 1.34554 16.0753 1.25 15.125 1.25C7.46205 1.25 1.25 7.46205 1.25 15.125C1.25 17.3446 1.77117 19.4423 2.6978 21.3028C2.94405 21.7972 3.02601 22.3623 2.88325 22.8958L2.05685 25.9845C1.69809 27.3253 2.92473 28.5518 4.26552 28.1932L7.35415 27.3668C7.8877 27.224 8.4528 27.306 8.9472 27.5521C10.8076 28.4789 12.9054 29 15.125 29C22.7879 29 29 22.7879 29 15.125C29 14.1747 28.9044 13.2466 28.7225 12.35" stroke="#D9D9D9" stroke-width="1.5" stroke-linecap="round"/>
<path d="M24.437 10.1C24.0836 10.1 23.7236 10.0533 23.357 9.96C22.9903 9.86667 22.6536 9.72333 22.347 9.53C22.2203 9.45 22.1336 9.35667 22.087 9.25C22.047 9.13667 22.037 9.02667 22.057 8.92C22.0836 8.80667 22.1336 8.71333 22.207 8.64C22.287 8.56 22.3803 8.51333 22.487 8.5C22.6003 8.48667 22.7236 8.51667 22.857 8.59C23.1036 8.73 23.3536 8.83667 23.607 8.91C23.8603 8.98333 24.1303 9.02 24.417 9.02C24.697 9.02 24.937 8.97 25.137 8.87C25.337 8.77 25.4903 8.63 25.597 8.45C25.7036 8.27 25.757 8.06 25.757 7.82C25.757 7.44667 25.6436 7.14667 25.417 6.92C25.1903 6.68667 24.8803 6.57 24.487 6.57C24.2736 6.57 24.067 6.60667 23.867 6.68C23.667 6.74667 23.4703 6.86667 23.277 7.04C23.217 7.09333 23.1403 7.14667 23.047 7.2C22.9536 7.24667 22.8536 7.27 22.747 7.27C22.5803 7.27 22.4536 7.22667 22.367 7.14C22.2803 7.05333 22.237 6.93333 22.237 6.78V3.51C22.237 3.33 22.2836 3.19333 22.377 3.1C22.477 3 22.617 2.95 22.797 2.95H26.087C26.267 2.95 26.4036 2.99667 26.497 3.09C26.597 3.17667 26.647 3.30667 26.647 3.48C26.647 3.64667 26.597 3.77667 26.497 3.87C26.4036 3.96333 26.267 4.01 26.087 4.01H23.487V6.25H23.157C23.3303 6.01667 23.5603 5.83667 23.847 5.71C24.1336 5.58333 24.447 5.52 24.787 5.52C25.2336 5.52 25.6203 5.61667 25.947 5.81C26.2803 5.99667 26.537 6.26 26.717 6.6C26.9036 6.93333 26.997 7.32333 26.997 7.77C26.997 8.23 26.8936 8.63667 26.687 8.99C26.4803 9.33667 26.1836 9.61 25.797 9.81C25.417 10.0033 24.9636 10.1 24.437 10.1Z" fill="#F21F3F"/>
</g>
<defs>
<clipPath id="clip0_1_41">
<rect width="30" height="30" fill="white"/>
</clipPath>
</defs>
</svg>
