<svg width="30" height="30" viewBox="0 0 30 30" fill="none" xmlns="http://www.w3.org/2000/svg">
<g clip-path="url(#clip0_34_1291)">
<path d="M14.9992 19.125C17.4155 19.125 19.3744 17.2782 19.3744 15C19.3744 12.7218 17.4155 10.875 14.9992 10.875C12.5829 10.875 10.624 12.7218 10.624 15C10.624 17.2782 12.5829 19.125 14.9992 19.125Z" stroke="#7FFC7F" stroke-width="1.5"/>
<path d="M17.5747 1.45933C17.0385 1.25 16.3591 1.25 15 1.25C13.6409 1.25 12.9615 1.25 12.4254 1.45933C11.7107 1.73844 11.1429 2.2738 10.8469 2.94762C10.7117 3.25522 10.6588 3.61294 10.6381 4.13474C10.6077 4.90156 10.1906 5.61135 9.48575 5.99503C8.78092 6.3787 7.92039 6.36437 7.20082 6.00579C6.71119 5.76179 6.35616 5.6261 6.00604 5.58265C5.23907 5.48745 4.46341 5.6834 3.8497 6.1274C3.3894 6.4604 3.04964 7.01524 2.37012 8.1249C1.69059 9.23458 1.35083 9.78941 1.2751 10.3318C1.17413 11.0548 1.38197 11.7862 1.8529 12.3648C2.06784 12.6289 2.36993 12.8509 2.83878 13.1286C3.52803 13.537 3.97151 14.2326 3.97147 15C3.97143 15.7674 3.52796 16.4629 2.83877 16.8711C2.36985 17.149 2.06772 17.3711 1.85275 17.6352C1.38182 18.2138 1.17399 18.945 1.27497 19.6681C1.35069 20.2104 1.69045 20.7654 2.36997 21.875C3.04951 22.9846 3.38927 23.5396 3.84955 23.8725C4.46327 24.3164 5.23893 24.5124 6.00589 24.4172C6.35598 24.3738 6.711 24.2381 7.20061 23.9942C7.92022 23.6356 8.7808 23.6212 9.4857 24.0049C10.1906 24.3886 10.6077 25.0984 10.6381 25.8654C10.6588 26.3871 10.7117 26.7448 10.8469 27.0524C11.1429 27.7262 11.7107 28.2616 12.4254 28.5407C12.9615 28.75 13.6409 28.75 15 28.75C16.3591 28.75 17.0385 28.75 17.5747 28.5407C18.2893 28.2616 18.8572 27.7262 19.1531 27.0524C19.2883 26.7448 19.3412 26.3871 19.3619 25.8653C19.3922 25.0984 19.8093 24.3886 20.5142 24.0049C21.219 23.6211 22.0796 23.6356 22.7993 23.9942C23.2889 24.2381 23.6439 24.3737 23.9939 24.4171C24.7609 24.5124 25.5366 24.3164 26.1503 23.8725C26.6105 23.5394 26.9503 22.9846 27.6298 21.8749C28.3094 20.7652 28.6492 20.2104 28.7249 19.6681C28.8258 18.945 28.618 18.2136 28.1471 17.635C27.9321 17.3709 27.63 17.1488 27.1611 16.8711C26.472 16.4629 26.0285 15.7672 26.0285 14.9999C26.0285 14.2325 26.472 13.5371 27.1611 13.1289C27.6301 12.851 27.9323 12.6291 28.1472 12.3648C28.6182 11.7863 28.826 11.0549 28.7251 10.3318C28.6494 9.78951 28.3096 9.23467 27.63 8.125C26.9505 7.01533 26.6107 6.46049 26.1504 6.1275C25.5367 5.68349 24.761 5.48754 23.994 5.58275C23.644 5.6262 23.2891 5.76187 22.7993 6.00585C22.0798 6.36444 21.2192 6.37878 20.5143 5.99507C19.8093 5.61138 19.3922 4.90153 19.3619 4.13467C19.3412 3.61291 19.2883 3.2552 19.1531 2.94762C18.8572 2.2738 18.2893 1.73844 17.5747 1.45933Z" stroke="#7FFC7F" stroke-width="1.5"/>
</g>
<defs>
<clipPath id="clip0_34_1291">
<rect width="30" height="30" fill="white"/>
</clipPath>
</defs>
</svg>
