<svg width="170" height="24" viewBox="0 0 170 24" fill="none" xmlns="http://www.w3.org/2000/svg">
<g clip-path="url(#clip0_24_189)">
<path d="M89.5 22C94.7467 22 99 17.7467 99 12.5C99 7.25329 94.7467 3 89.5 3C84.2533 3 80 7.25329 80 12.5C80 17.7467 84.2533 22 89.5 22Z" stroke="#D9D9D9" stroke-width="1.5"/>
<path d="M89.4969 18.2047C92.6449 18.2047 95.1969 15.6527 95.1969 12.5047C95.1969 9.35666 92.6449 6.80469 89.4969 6.80469C86.3489 6.80469 83.7969 9.35666 83.7969 12.5047C83.7969 15.6527 86.3489 18.2047 89.4969 18.2047Z" stroke="#D9D9D9" stroke-width="1.5"/>
<path d="M89.5016 14.3937C90.5509 14.3937 91.4016 13.5431 91.4016 12.4937C91.4016 11.4444 90.5509 10.5938 89.5016 10.5938C88.4522 10.5938 87.6016 11.4444 87.6016 12.4937C87.6016 13.5431 88.4522 14.3937 89.5016 14.3937Z" stroke="#D9D9D9" stroke-width="1.5"/>
<path d="M83.7969 12.5H87.5969" stroke="#D9D9D9" stroke-width="1.5" stroke-linecap="round"/>
<path d="M91.3984 12.5H95.1984" stroke="#D9D9D9" stroke-width="1.5" stroke-linecap="round"/>
<path d="M86.6504 17.4471L88.5504 14.1562" stroke="#D9D9D9" stroke-width="1.5" stroke-linecap="round"/>
<path d="M90.4561 10.8534L92.3561 7.5625" stroke="#D9D9D9" stroke-width="1.5" stroke-linecap="round"/>
<path d="M92.3561 17.4471L90.4561 14.1562" stroke="#D9D9D9" stroke-width="1.5" stroke-linecap="round"/>
<path d="M88.5504 10.8534L86.6504 7.5625" stroke="#D9D9D9" stroke-width="1.5" stroke-linecap="round"/>
<path d="M126.5 22C131.747 22 136 17.7467 136 12.5C136 7.25329 131.747 3 126.5 3C121.253 3 117 7.25329 117 12.5C117 17.7467 121.253 22 126.5 22Z" stroke="#D9D9D9" stroke-width="1.5"/>
<path d="M126.497 18.2047C129.645 18.2047 132.197 15.6527 132.197 12.5047C132.197 9.35666 129.645 6.80469 126.497 6.80469C123.349 6.80469 120.797 9.35666 120.797 12.5047C120.797 15.6527 123.349 18.2047 126.497 18.2047Z" stroke="#D9D9D9" stroke-width="1.5"/>
<path d="M126.502 14.3937C127.551 14.3937 128.402 13.5431 128.402 12.4937C128.402 11.4444 127.551 10.5938 126.502 10.5938C125.452 10.5938 124.602 11.4444 124.602 12.4937C124.602 13.5431 125.452 14.3937 126.502 14.3937Z" stroke="#D9D9D9" stroke-width="1.5"/>
<path d="M120.797 12.5H124.597" stroke="#D9D9D9" stroke-width="1.5" stroke-linecap="round"/>
<path d="M128.398 12.5H132.198" stroke="#D9D9D9" stroke-width="1.5" stroke-linecap="round"/>
<path d="M123.65 17.4471L125.55 14.1562" stroke="#D9D9D9" stroke-width="1.5" stroke-linecap="round"/>
<path d="M127.456 10.8534L129.356 7.5625" stroke="#D9D9D9" stroke-width="1.5" stroke-linecap="round"/>
<path d="M129.356 17.4471L127.456 14.1562" stroke="#D9D9D9" stroke-width="1.5" stroke-linecap="round"/>
<path d="M125.55 10.8534L123.65 7.5625" stroke="#D9D9D9" stroke-width="1.5" stroke-linecap="round"/>
<path d="M3.06481 3.09091H9.45401L12.0762 13.8011H12.2978L18.4654 3.09091H24.8546L21.7154 22H16.6926L18.5023 11.0682H18.3546L12.3716 21.8523H9.34322L6.94265 10.9943H6.79492L4.94833 22H-0.0743963L3.06481 3.09091Z" fill="#7FC4F2"/>
<path d="M57.0648 3.09091H63.454L66.0762 13.8011H66.2978L72.4654 3.09091H78.8546L75.7154 22H70.6926L72.5023 11.0682H72.3546L66.3716 21.8523H63.3432L60.9426 10.9943H60.7949L58.9483 22H53.9256L57.0648 3.09091Z" fill="#7FC4F2"/>
<path d="M100.033 7.22727L100.734 3.09091H117.169L116.467 7.22727H110.78L108.342 22H103.283L105.72 7.22727H100.033Z" fill="#7FC4F2"/>
<path d="M136.226 22L139.366 3.09091H147.528C148.931 3.09091 150.116 3.34635 151.082 3.85724C152.049 4.36813 152.744 5.10369 153.169 6.06392C153.594 7.02415 153.695 8.17519 153.474 9.51704C153.252 10.8712 152.763 12.013 152.006 12.9425C151.255 13.8658 150.297 14.5675 149.134 15.0476C147.977 15.5215 146.678 15.7585 145.238 15.7585H140.363L141.028 11.7699H144.868C145.472 11.7699 146.001 11.696 146.456 11.5483C146.912 11.3944 147.281 11.1544 147.564 10.8281C147.848 10.4957 148.032 10.0587 148.118 9.51704C148.205 8.97538 148.162 8.53527 147.989 8.19673C147.817 7.85204 147.531 7.59967 147.131 7.43963C146.73 7.27344 146.235 7.19034 145.644 7.19034H143.834L141.36 22H136.226ZM148.746 13.321L152.033 22H146.456L143.28 13.321H148.746Z" fill="#7FC4F2"/>
<path d="M18.1541 22L21.2933 3.09091H26.4268L25.2081 10.4773H32.0036L33.2223 3.09091H38.3558L35.2166 22H30.0831L31.3018 14.6136H24.5064L23.2876 22H18.1541Z" fill="#7FC4F2"/>
<path d="M30.6805 22L33.8197 3.09091H38.9532L36.5157 17.8636H44.1606L43.4589 22H30.6805Z" fill="#7FC4F2"/>
<path d="M164.714 9C164.769 8.39062 164.622 7.91359 164.271 7.56889C163.92 7.21804 163.329 7.04261 162.498 7.04261C161.969 7.04261 161.526 7.10417 161.169 7.22727C160.818 7.35038 160.544 7.51965 160.347 7.73509C160.156 7.95052 160.036 8.19981 159.987 8.48295C159.931 8.70454 159.934 8.90767 159.996 9.09233C160.064 9.27083 160.19 9.43395 160.374 9.58168C160.565 9.7294 160.815 9.86174 161.122 9.97869C161.436 10.0956 161.809 10.2003 162.24 10.2926L163.717 10.625C164.726 10.8466 165.573 11.139 166.256 11.5021C166.945 11.8591 167.487 12.2839 167.881 12.7763C168.275 13.2687 168.533 13.8196 168.656 14.429C168.786 15.0384 168.789 15.7031 168.666 16.4233C168.456 17.6667 167.973 18.7192 167.216 19.581C166.459 20.4427 165.471 21.0982 164.252 21.5476C163.034 21.9969 161.624 22.2216 160.024 22.2216C158.386 22.2216 156.995 21.9785 155.85 21.4922C154.712 20.9998 153.887 20.2488 153.376 19.2393C152.871 18.2237 152.748 16.928 153.007 15.3523H157.882C157.808 15.9309 157.869 16.4171 158.066 16.8111C158.263 17.205 158.58 17.5036 159.017 17.7067C159.454 17.9098 159.999 18.0114 160.651 18.0114C161.205 18.0114 161.679 17.9437 162.073 17.8082C162.467 17.6728 162.778 17.4851 163.006 17.245C163.234 17.005 163.372 16.7311 163.421 16.4233C163.471 16.1402 163.421 15.8878 163.274 15.6662C163.126 15.4446 162.858 15.2446 162.47 15.0661C162.083 14.8875 161.55 14.7244 160.873 14.5767L159.063 14.1705C157.457 13.8011 156.244 13.1918 155.426 12.3423C154.607 11.4929 154.318 10.3295 154.558 8.85227C154.755 7.64583 155.25 6.59328 156.044 5.6946C156.844 4.78977 157.86 4.08807 159.091 3.58949C160.328 3.08475 161.698 2.83239 163.2 2.83239C164.726 2.83239 166.003 3.08783 167.031 3.59872C168.066 4.10961 168.807 4.8267 169.257 5.75C169.712 6.67329 169.835 7.75663 169.626 9H164.714Z" fill="#7FC4F2"/>
</g>
<defs>
<clipPath id="clip0_24_189">
<rect width="170" height="24" fill="white"/>
</clipPath>
</defs>
</svg>
