<svg width="30" height="30" viewBox="0 0 30 30" fill="none" xmlns="http://www.w3.org/2000/svg">
<g clip-path="url(#clip0_1_53)">
<path d="M17.9 1.52756C17.0034 1.34554 16.0753 1.25 15.125 1.25C7.46205 1.25 1.25 7.46205 1.25 15.125C1.25 17.3446 1.77117 19.4423 2.6978 21.3028C2.94405 21.7972 3.02601 22.3623 2.88325 22.8958L2.05685 25.9845C1.69809 27.3253 2.92473 28.5518 4.26552 28.1932L7.35415 27.3668C7.8877 27.224 8.4528 27.306 8.9472 27.5521C10.8076 28.4789 12.9054 29 15.125 29C22.7879 29 29 22.7879 29 15.125C29 14.1747 28.9044 13.2466 28.7225 12.35" stroke="#D9D9D9" stroke-width="1.5" stroke-linecap="round"/>
<path d="M24.347 10.08C24.1936 10.08 24.067 10.0433 23.967 9.97C23.867 9.89667 23.807 9.8 23.787 9.68C23.767 9.55333 23.797 9.41333 23.877 9.26L26.897 3.58V4.02H23.657C23.477 4.02 23.337 3.97333 23.237 3.88C23.1436 3.78667 23.097 3.65667 23.097 3.49C23.097 3.31667 23.1436 3.18333 23.237 3.09C23.337 2.99667 23.477 2.95 23.657 2.95H27.527C27.707 2.95 27.8536 2.99667 27.967 3.09C28.0803 3.18333 28.137 3.31667 28.137 3.49C28.137 3.63667 28.117 3.76667 28.077 3.88C28.037 3.98667 27.9836 4.10333 27.917 4.23L25.077 9.66C25.0036 9.80667 24.907 9.91333 24.787 9.98C24.6736 10.0467 24.527 10.08 24.347 10.08Z" fill="#F21F3F"/>
</g>
<defs>
<clipPath id="clip0_1_53">
<rect width="30" height="30" fill="white"/>
</clipPath>
</defs>
</svg>
