<svg width="30" height="30" viewBox="0 0 30 30" fill="none" xmlns="http://www.w3.org/2000/svg">
<g clip-path="url(#clip0_1_90)">
<path d="M17.9 1.52756C17.0034 1.34554 16.0753 1.25 15.125 1.25C7.46205 1.25 1.25 7.46205 1.25 15.125C1.25 17.3446 1.77117 19.4423 2.6978 21.3028C2.94405 21.7972 3.02601 22.3623 2.88325 22.8958L2.05685 25.9845C1.69809 27.3253 2.92473 28.5518 4.26552 28.1932L7.35415 27.3668C7.8877 27.224 8.4528 27.306 8.9472 27.5521C10.8076 28.4789 12.9054 29 15.125 29C22.7879 29 29 22.7879 29 15.125C29 14.1747 28.9044 13.2466 28.7225 12.35" stroke="#7FC4F2" stroke-width="1.5" stroke-linecap="round"/>
<path d="M23.827 10.1C23.5403 10.1 23.2436 10.0567 22.937 9.97C22.6303 9.87667 22.3436 9.74 22.077 9.56C21.9703 9.49333 21.9003 9.40667 21.867 9.3C21.8336 9.19333 21.827 9.09 21.847 8.99C21.8736 8.88333 21.9203 8.79333 21.987 8.72C22.0603 8.64 22.1503 8.59333 22.257 8.58C22.3636 8.56 22.4803 8.58667 22.607 8.66C22.8336 8.79333 23.047 8.88667 23.247 8.94C23.447 8.99333 23.647 9.02 23.847 9.02C24.2336 9.02 24.5603 8.93 24.827 8.75C25.0936 8.57 25.2936 8.3 25.427 7.94C25.567 7.57333 25.637 7.12333 25.637 6.59V5.84H25.757C25.7103 6.17333 25.6003 6.46333 25.427 6.71C25.2536 6.95667 25.0336 7.14667 24.767 7.28C24.5003 7.40667 24.2036 7.47 23.877 7.47C23.477 7.47 23.117 7.37333 22.797 7.18C22.4836 6.98667 22.237 6.72 22.057 6.38C21.877 6.03333 21.787 5.64333 21.787 5.21C21.787 4.75 21.8836 4.34333 22.077 3.99C22.277 3.63667 22.5536 3.36 22.907 3.16C23.2603 2.95333 23.6636 2.85 24.117 2.85C24.7036 2.85 25.2003 2.98667 25.607 3.26C26.0136 3.53333 26.3236 3.93333 26.537 4.46C26.7503 4.98 26.857 5.61 26.857 6.35C26.857 6.95 26.787 7.48333 26.647 7.95C26.5136 8.41 26.317 8.8 26.057 9.12C25.797 9.44 25.477 9.68333 25.097 9.85C24.7236 10.0167 24.3003 10.1 23.827 10.1ZM24.197 6.45C24.437 6.45 24.647 6.39667 24.827 6.29C25.0136 6.17667 25.157 6.02333 25.257 5.83C25.357 5.63 25.407 5.40333 25.407 5.15C25.407 4.89 25.357 4.66333 25.257 4.47C25.157 4.27667 25.0136 4.12667 24.827 4.02C24.647 3.91333 24.437 3.86 24.197 3.86C23.957 3.86 23.747 3.91333 23.567 4.02C23.387 4.12667 23.2436 4.27667 23.137 4.47C23.037 4.66333 22.987 4.89 22.987 5.15C22.987 5.40333 23.037 5.63 23.137 5.83C23.2436 6.02333 23.387 6.17667 23.567 6.29C23.747 6.39667 23.957 6.45 24.197 6.45Z" fill="#F21F3F"/>
</g>
<defs>
<clipPath id="clip0_1_90">
<rect width="30" height="30" fill="white"/>
</clipPath>
</defs>
</svg>
