<svg width="30" height="30" viewBox="0 0 30 30" fill="none" xmlns="http://www.w3.org/2000/svg">
<g clip-path="url(#clip0_34_1169)">
<path d="M17.9 1.52756C17.0034 1.34554 16.0753 1.25 15.125 1.25C7.46205 1.25 1.25 7.46205 1.25 15.125C1.25 17.3446 1.77117 19.4423 2.6978 21.3028C2.94405 21.7972 3.02601 22.3623 2.88325 22.8958L2.05685 25.9845C1.69809 27.3253 2.92473 28.5518 4.26552 28.1932L7.35415 27.3668C7.8877 27.224 8.4528 27.306 8.9472 27.5521C10.8076 28.4789 12.9054 29 15.125 29C22.7879 29 29 22.7879 29 15.125C29 14.1747 28.9044 13.2466 28.7225 12.35" stroke="#7FC4F2" stroke-width="1.5" stroke-linecap="round"/>
<path d="M22.937 8.75C22.7636 8.75 22.627 8.70333 22.527 8.61C22.4336 8.51 22.387 8.37667 22.387 8.21C22.387 8.03667 22.4336 7.90667 22.527 7.82C22.627 7.73333 22.7636 7.69 22.937 7.69H24.057V2.78H24.677L23.207 3.67C23.0803 3.74333 22.9603 3.77333 22.847 3.76C22.7403 3.74 22.647 3.69333 22.567 3.62C22.4936 3.54 22.4436 3.44667 22.417 3.34C22.3903 3.23333 22.397 3.12667 22.437 3.02C22.4836 2.90667 22.5703 2.81333 22.697 2.74L24.077 1.91C24.2103 1.83 24.3436 1.76333 24.477 1.71C24.6103 1.65 24.7336 1.62 24.847 1.62C24.987 1.62 25.1036 1.66 25.197 1.74C25.2903 1.81333 25.337 1.93667 25.337 2.11V7.69H26.357C26.5303 7.69 26.6636 7.73333 26.757 7.82C26.857 7.90667 26.907 8.03667 26.907 8.21C26.907 8.38333 26.857 8.51667 26.757 8.61C26.6636 8.70333 26.5303 8.75 26.357 8.75H22.937Z" fill="#F21F3F"/>
</g>
<defs>
<clipPath id="clip0_34_1169">
<rect width="30" height="30" fill="white"/>
</clipPath>
</defs>
</svg>
