<svg width="30" height="30" viewBox="0 0 30 30" fill="none" xmlns="http://www.w3.org/2000/svg">
<g clip-path="url(#clip0_1_37)">
<path d="M17.9 1.52756C17.0034 1.34554 16.0753 1.25 15.125 1.25C7.46205 1.25 1.25 7.46205 1.25 15.125C1.25 17.3446 1.77117 19.4423 2.6978 21.3028C2.94405 21.7972 3.02601 22.3623 2.88325 22.8958L2.05685 25.9845C1.69809 27.3253 2.92473 28.5518 4.26552 28.1932L7.35415 27.3668C7.8877 27.224 8.4528 27.306 8.9472 27.5521C10.8076 28.4789 12.9054 29 15.125 29C22.7879 29 29 22.7879 29 15.125C29 14.1747 28.9044 13.2466 28.7225 12.35" stroke="#D9D9D9" stroke-width="1.5" stroke-linecap="round"/>
<path d="M24.257 10.08C24.057 10.08 23.9003 10.0267 23.787 9.92C23.6736 9.80667 23.617 9.64667 23.617 9.44V8.66H21.147C20.9403 8.66 20.7736 8.61667 20.647 8.53C20.527 8.44333 20.467 8.30667 20.467 8.12C20.467 8.01333 20.4936 7.89667 20.547 7.77C20.607 7.64333 20.7103 7.47667 20.857 7.27L23.597 3.3C23.6903 3.16 23.7936 3.05333 23.907 2.98C24.0203 2.90667 24.1503 2.87 24.297 2.87C24.4703 2.87 24.6136 2.92333 24.727 3.03C24.8403 3.13 24.897 3.29 24.897 3.51V7.6H25.387C25.5803 7.6 25.7236 7.64667 25.817 7.74C25.917 7.82667 25.967 7.95667 25.967 8.13C25.967 8.30333 25.917 8.43667 25.817 8.53C25.7236 8.61667 25.5803 8.66 25.387 8.66H24.897V9.44C24.897 9.64667 24.8403 9.80667 24.727 9.92C24.6136 10.0267 24.457 10.08 24.257 10.08ZM23.617 7.6V4.48H23.907L21.547 7.94V7.6H23.617Z" fill="#F21F3F"/>
<path d="M17.9 1.52756C17.0034 1.34554 16.0753 1.25 15.125 1.25C7.46205 1.25 1.25 7.46205 1.25 15.125C1.25 17.3446 1.77117 19.4423 2.6978 21.3028C2.94405 21.7972 3.02601 22.3623 2.88325 22.8958L2.05685 25.9845C1.69809 27.3253 2.92473 28.5518 4.26552 28.1932L7.35415 27.3668C7.8877 27.224 8.4528 27.306 8.9472 27.5521C10.8076 28.4789 12.9054 29 15.125 29C22.7879 29 29 22.7879 29 15.125C29 14.1747 28.9044 13.2466 28.7225 12.35" stroke="#D9D9D9" stroke-width="1.5" stroke-linecap="round"/>
</g>
<defs>
<clipPath id="clip0_1_37">
<rect width="30" height="30" fill="white"/>
</clipPath>
</defs>
</svg>
