<svg width="30" height="30" viewBox="0 0 30 30" fill="none" xmlns="http://www.w3.org/2000/svg">
<g clip-path="url(#clip0_34_1165)">
<path d="M17.9 1.52756C17.0034 1.34554 16.0753 1.25 15.125 1.25C7.46205 1.25 1.25 7.46205 1.25 15.125C1.25 17.3446 1.77117 19.4423 2.6978 21.3028C2.94405 21.7972 3.02601 22.3623 2.88325 22.8958L2.05685 25.9845C1.69809 27.3253 2.92473 28.5518 4.26552 28.1932L7.35415 27.3668C7.8877 27.224 8.4528 27.306 8.9472 27.5521C10.8076 28.4789 12.9054 29 15.125 29C22.7879 29 29 22.7879 29 15.125C29 14.1747 28.9044 13.2466 28.7225 12.35" stroke="#7FC4F2" stroke-width="1.5" stroke-linecap="round"/>
<path d="M22.707 10C22.4936 10 22.337 9.95333 22.237 9.86C22.1436 9.76 22.097 9.61667 22.097 9.43C22.097 9.31667 22.127 9.20667 22.187 9.1C22.247 8.99333 22.3336 8.88 22.447 8.76L24.457 6.62C24.7636 6.3 24.9836 6.01 25.117 5.75C25.2503 5.48333 25.317 5.21667 25.317 4.95C25.317 4.61667 25.2103 4.36333 24.997 4.19C24.7903 4.01667 24.487 3.93 24.087 3.93C23.8603 3.93 23.6336 3.96333 23.407 4.03C23.1803 4.09 22.9503 4.19667 22.717 4.35C22.597 4.43 22.4836 4.46333 22.377 4.45C22.277 4.43667 22.187 4.39333 22.107 4.32C22.0336 4.24667 21.9836 4.15667 21.957 4.05C21.9303 3.94333 21.9336 3.83667 21.967 3.73C22.007 3.61667 22.087 3.52 22.207 3.44C22.4936 3.24667 22.8136 3.1 23.167 3C23.527 2.9 23.887 2.85 24.247 2.85C24.7536 2.85 25.1803 2.92667 25.527 3.08C25.8736 3.23333 26.137 3.45667 26.317 3.75C26.497 4.04333 26.587 4.4 26.587 4.82C26.587 5.1 26.5403 5.37333 26.447 5.64C26.3603 5.90667 26.2236 6.17667 26.037 6.45C25.857 6.72333 25.6203 7.01333 25.327 7.32L23.447 9.28V8.94H26.387C26.567 8.94 26.7036 8.98333 26.797 9.07C26.8903 9.15667 26.937 9.28667 26.937 9.46C26.937 9.63333 26.8903 9.76667 26.797 9.86C26.7036 9.95333 26.567 10 26.387 10H22.707Z" fill="#F21F3F"/>
</g>
<defs>
<clipPath id="clip0_34_1165">
<rect width="30" height="30" fill="white"/>
</clipPath>
</defs>
</svg>
