<svg width="30" height="30" viewBox="0 0 30 30" fill="none" xmlns="http://www.w3.org/2000/svg">
<g clip-path="url(#clip0_1_33)">
<path d="M17.9 1.52756C17.0034 1.34554 16.0753 1.25 15.125 1.25C7.46205 1.25 1.25 7.46205 1.25 15.125C1.25 17.3446 1.77117 19.4423 2.6978 21.3028C2.94405 21.7972 3.02601 22.3623 2.88325 22.8958L2.05685 25.9845C1.69809 27.3253 2.92473 28.5518 4.26552 28.1932L7.35415 27.3668C7.8877 27.224 8.4528 27.306 8.9472 27.5521C10.8076 28.4789 12.9054 29 15.125 29C22.7879 29 29 22.7879 29 15.125C29 14.1747 28.9044 13.2466 28.7225 12.35" stroke="#D9D9D9" stroke-width="1.5" stroke-linecap="round"/>
<path d="M24.237 10.1C23.877 10.1 23.5036 10.0533 23.117 9.96C22.7303 9.86667 22.3936 9.72667 22.107 9.54C21.9736 9.45333 21.8836 9.35333 21.837 9.24C21.7903 9.12667 21.777 9.02 21.797 8.92C21.8236 8.81333 21.8736 8.72333 21.947 8.65C22.027 8.57667 22.1236 8.53333 22.237 8.52C22.357 8.50667 22.487 8.53667 22.627 8.61C22.9003 8.75667 23.1636 8.86333 23.417 8.93C23.6703 8.99 23.9303 9.02 24.197 9.02C24.4903 9.02 24.737 8.98 24.937 8.9C25.137 8.82 25.287 8.7 25.387 8.54C25.4936 8.38 25.547 8.18667 25.547 7.96C25.547 7.62667 25.4336 7.38 25.207 7.22C24.987 7.05333 24.6636 6.97 24.237 6.97H23.597C23.4103 6.97 23.267 6.92333 23.167 6.83C23.0736 6.73667 23.027 6.60667 23.027 6.44C23.027 6.27333 23.0736 6.14333 23.167 6.05C23.267 5.95667 23.4103 5.91 23.597 5.91H24.117C24.3703 5.91 24.587 5.87 24.767 5.79C24.947 5.70333 25.087 5.58333 25.187 5.43C25.287 5.27667 25.337 5.09 25.337 4.87C25.337 4.56333 25.2336 4.33 25.027 4.17C24.827 4.01 24.5336 3.93 24.147 3.93C23.9003 3.93 23.667 3.96 23.447 4.02C23.2336 4.07333 22.997 4.17667 22.737 4.33C22.617 4.40333 22.5003 4.43333 22.387 4.42C22.2803 4.40667 22.1903 4.36333 22.117 4.29C22.0436 4.21667 21.9936 4.13 21.967 4.03C21.9403 3.92333 21.947 3.81667 21.987 3.71C22.027 3.59667 22.1103 3.5 22.237 3.42C22.5236 3.23333 22.8403 3.09333 23.187 3C23.5336 2.9 23.8903 2.85 24.257 2.85C24.7436 2.85 25.1603 2.92667 25.507 3.08C25.8536 3.22667 26.117 3.44 26.297 3.72C26.4836 3.99333 26.577 4.32667 26.577 4.72C26.577 5 26.5236 5.25667 26.417 5.49C26.3103 5.71667 26.1603 5.91 25.967 6.07C25.7736 6.23 25.5403 6.34333 25.267 6.41V6.29C25.747 6.37 26.1203 6.57 26.387 6.89C26.6536 7.20333 26.787 7.59667 26.787 8.07C26.787 8.48333 26.6836 8.84333 26.477 9.15C26.2703 9.45667 25.977 9.69333 25.597 9.86C25.217 10.02 24.7636 10.1 24.237 10.1Z" fill="#F21F3F"/>
</g>
<defs>
<clipPath id="clip0_1_33">
<rect width="30" height="30" fill="white"/>
</clipPath>
</defs>
</svg>
