<svg width="30" height="30" viewBox="0 0 30 30" fill="none" xmlns="http://www.w3.org/2000/svg">
<g clip-path="url(#clip0_1_29)">
<path d="M17.9 1.52756C17.0034 1.34554 16.0753 1.25 15.125 1.25C7.46205 1.25 1.25 7.46205 1.25 15.125C1.25 17.3446 1.77117 19.4423 2.6978 21.3028C2.94405 21.7972 3.02601 22.3623 2.88325 22.8958L2.05685 25.9845C1.69809 27.3253 2.92473 28.5518 4.26552 28.1932L7.35415 27.3668C7.8877 27.224 8.4528 27.306 8.9472 27.5521C10.8076 28.4789 12.9054 29 15.125 29C22.7879 29 29 22.7879 29 15.125C29 14.1747 28.9044 13.2466 28.7225 12.35" stroke="#D9D9D9" stroke-width="1.5" stroke-linecap="round"/>
<path d="M21.957 10C21.7436 10 21.587 9.95333 21.487 9.86C21.3936 9.76 21.347 9.61667 21.347 9.43C21.347 9.31667 21.377 9.20667 21.437 9.1C21.497 8.99333 21.5836 8.88 21.697 8.76L23.707 6.62C24.0136 6.3 24.2336 6.01 24.367 5.75C24.5003 5.48333 24.567 5.21667 24.567 4.95C24.567 4.61667 24.4603 4.36333 24.247 4.19C24.0403 4.01667 23.737 3.93 23.337 3.93C23.1103 3.93 22.8836 3.96333 22.657 4.03C22.4303 4.09 22.2003 4.19667 21.967 4.35C21.847 4.43 21.7336 4.46333 21.627 4.45C21.527 4.43667 21.437 4.39333 21.357 4.32C21.2836 4.24667 21.2336 4.15667 21.207 4.05C21.1803 3.94333 21.1836 3.83667 21.217 3.73C21.257 3.61667 21.337 3.52 21.457 3.44C21.7436 3.24667 22.0636 3.1 22.417 3C22.777 2.9 23.137 2.85 23.497 2.85C24.0036 2.85 24.4303 2.92667 24.777 3.08C25.1236 3.23333 25.387 3.45667 25.567 3.75C25.747 4.04333 25.837 4.4 25.837 4.82C25.837 5.1 25.7903 5.37333 25.697 5.64C25.6103 5.90667 25.4736 6.17667 25.287 6.45C25.107 6.72333 24.8703 7.01333 24.577 7.32L22.697 9.28V8.94H25.637C25.817 8.94 25.9536 8.98333 26.047 9.07C26.1403 9.15667 26.187 9.28667 26.187 9.46C26.187 9.63333 26.1403 9.76667 26.047 9.86C25.9536 9.95333 25.817 10 25.637 10H21.957Z" fill="#F21F3F"/>
</g>
<defs>
<clipPath id="clip0_1_29">
<rect width="30" height="30" fill="white"/>
</clipPath>
</defs>
</svg>
