<svg width="30" height="30" viewBox="0 0 30 30" fill="none" xmlns="http://www.w3.org/2000/svg">
<g clip-path="url(#clip0_34_1246)">
<path fill-rule="evenodd" clip-rule="evenodd" d="M15 4.64036C12.2509 1.02901 7.65715 -0.0870569 4.21271 3.21986C0.76826 6.52678 0.283328 12.0557 2.98828 15.9669C5.23726 19.2186 12.0435 26.077 14.2742 28.2969C14.5237 28.5452 14.6485 28.6694 14.7941 28.7181C14.921 28.7606 15.0601 28.7606 15.1872 28.7181C15.3328 28.6694 15.4574 28.5452 15.7071 28.2969C17.9378 26.077 24.7439 19.2186 26.9929 15.9669C29.6979 12.0557 29.2721 6.49199 25.7684 3.21986C22.2648 -0.0522697 17.7491 1.02901 15 4.64036Z" stroke="#D9D9D9" stroke-width="1.5" stroke-linecap="round" stroke-linejoin="round"/>
</g>
<defs>
<clipPath id="clip0_34_1246">
<rect width="30" height="30" fill="white"/>
</clipPath>
</defs>
</svg>
