<svg width="30" height="30" viewBox="0 0 30 30" fill="none" xmlns="http://www.w3.org/2000/svg">
<g clip-path="url(#clip0_1_12)">
<path d="M17.9 1.52756C17.0034 1.34554 16.0753 1.25 15.125 1.25C7.46205 1.25 1.25 7.46205 1.25 15.125C1.25 17.3446 1.77117 19.4423 2.6978 21.3028C2.94405 21.7972 3.02601 22.3623 2.88325 22.8958L2.05685 25.9845C1.69809 27.3253 2.92473 28.5518 4.26552 28.1932L7.35415 27.3668C7.8877 27.224 8.4528 27.306 8.9472 27.5521C10.8076 28.4789 12.9054 29 15.125 29C22.7879 29 29 22.7879 29 15.125C29 14.1747 28.9044 13.2466 28.7225 12.35" stroke="#D9D9D9" stroke-width="1.5" stroke-linecap="round"/>
<path d="M23.627 10.1C22.7936 10.1 22.157 9.78667 21.717 9.16C21.277 8.52667 21.057 7.62667 21.057 6.46C21.057 5.67333 21.1536 5.01333 21.347 4.48C21.547 3.94 21.837 3.53333 22.217 3.26C22.6036 2.98667 23.0736 2.85 23.627 2.85C24.467 2.85 25.1036 3.15667 25.537 3.77C25.977 4.38333 26.197 5.27667 26.197 6.45C26.197 7.23 26.097 7.89333 25.897 8.44C25.7036 8.98 25.417 9.39333 25.037 9.68C24.657 9.96 24.187 10.1 23.627 10.1ZM23.627 9.05C24.0803 9.05 24.4136 8.84 24.627 8.42C24.847 8 24.957 7.34333 24.957 6.45C24.957 5.55667 24.847 4.91 24.627 4.51C24.4136 4.10333 24.0803 3.9 23.627 3.9C23.1803 3.9 22.847 4.10333 22.627 4.51C22.407 4.91 22.297 5.55667 22.297 6.45C22.297 7.34333 22.407 8 22.627 8.42C22.847 8.84 23.1803 9.05 23.627 9.05Z" fill="#D9D9D9"/>
</g>
<defs>
<clipPath id="clip0_1_12">
<rect width="30" height="30" fill="white"/>
</clipPath>
</defs>
</svg>
