<svg width="30" height="30" viewBox="0 0 30 30" fill="none" xmlns="http://www.w3.org/2000/svg">
<g clip-path="url(#clip0_34_1189)">
<path d="M17.9 1.52756C17.0034 1.34554 16.0753 1.25 15.125 1.25C7.46205 1.25 1.25 7.46205 1.25 15.125C1.25 17.3446 1.77117 19.4423 2.6978 21.3028C2.94405 21.7972 3.02601 22.3623 2.88325 22.8958L2.05685 25.9845C1.69809 27.3253 2.92473 28.5518 4.26552 28.1932L7.35415 27.3668C7.8877 27.224 8.4528 27.306 8.9472 27.5521C10.8076 28.4789 12.9054 29 15.125 29C22.7879 29 29 22.7879 29 15.125C29 14.1747 28.9044 13.2466 28.7225 12.35" stroke="#7FC4F2" stroke-width="1.5" stroke-linecap="round"/>
<path d="M24.637 10.1C24.057 10.1 23.5603 9.96333 23.147 9.69C22.7403 9.41 22.4303 9.01 22.217 8.49C22.0036 7.97 21.897 7.34 21.897 6.6C21.897 6 21.9636 5.47 22.097 5.01C22.237 4.54333 22.437 4.15 22.697 3.83C22.957 3.51 23.2736 3.26667 23.647 3.1C24.027 2.93333 24.4536 2.85 24.927 2.85C25.2203 2.85 25.517 2.89667 25.817 2.99C26.1236 3.07667 26.4103 3.21 26.677 3.39C26.7836 3.45667 26.8536 3.54333 26.887 3.65C26.9203 3.75667 26.9236 3.86333 26.897 3.97C26.877 4.07 26.8303 4.16 26.757 4.24C26.6903 4.31333 26.6036 4.36 26.497 4.38C26.3903 4.39333 26.2736 4.36333 26.147 4.29C25.9203 4.15667 25.707 4.06333 25.507 4.01C25.307 3.95667 25.107 3.93 24.907 3.93C24.5203 3.93 24.1936 4.02 23.927 4.2C23.6603 4.38 23.457 4.65 23.317 5.01C23.1836 5.37 23.117 5.82 23.117 6.36V7.11H22.997C23.0503 6.77 23.1603 6.48 23.327 6.24C23.5003 5.99333 23.7203 5.80667 23.987 5.68C24.2536 5.54667 24.5503 5.48 24.877 5.48C25.2836 5.48 25.6436 5.57667 25.957 5.77C26.2703 5.96333 26.517 6.23 26.697 6.57C26.877 6.91 26.967 7.3 26.967 7.74C26.967 8.19333 26.867 8.6 26.667 8.96C26.4736 9.31333 26.2003 9.59333 25.847 9.8C25.5003 10 25.097 10.1 24.637 10.1ZM24.567 9.08C24.807 9.08 25.017 9.02667 25.197 8.92C25.3836 8.81333 25.527 8.66333 25.627 8.47C25.727 8.27 25.777 8.04333 25.777 7.79C25.777 7.53 25.727 7.30333 25.627 7.11C25.527 6.91667 25.3836 6.76667 25.197 6.66C25.017 6.54667 24.807 6.49 24.567 6.49C24.327 6.49 24.117 6.54667 23.937 6.66C23.757 6.76667 23.6136 6.91667 23.507 7.11C23.407 7.30333 23.357 7.53 23.357 7.79C23.357 8.04333 23.407 8.27 23.507 8.47C23.6136 8.66333 23.757 8.81333 23.937 8.92C24.117 9.02667 24.327 9.08 24.567 9.08Z" fill="#F21F3F"/>
</g>
<defs>
<clipPath id="clip0_34_1189">
<rect width="30" height="30" fill="white"/>
</clipPath>
</defs>
</svg>
