<svg width="2231" height="875" viewBox="0 0 2231 875" fill="none" xmlns="http://www.w3.org/2000/svg">
<rect x="1630" y="219" width="465" height="461" fill="#222A3E"/>
<rect x="159" y="219" width="465" height="461" fill="#222A3E"/>
<rect x="159" y="219" width="465" height="461" fill="#222A3E"/>
<rect x="883" y="207" width="465" height="461" fill="#222A3E"/>
<path d="M378.5 37C174.99 37 10 216.317 10 437.5C10 658.683 174.99 838 378.5 838C582.01 838 747 658.683 747 437.5C747 216.317 582.01 37 378.5 37ZM550.897 631.182H481.496V369.175C481.496 361.645 481.594 351.085 481.741 337.509C481.913 323.918 481.987 313.452 481.987 306.096L414.453 631.182H342.068L275.013 306.096C275.013 313.452 275.087 323.918 275.259 337.509C275.431 351.085 275.504 361.645 275.504 369.175V631.182H206.103V243.818H314.492L379.36 548.385L443.749 243.818H550.921V631.182H550.897Z" fill="#F0F2F5"/>
<path d="M1115 37C911.766 37 747 216.317 747 437.5C747 658.683 911.766 838 1115 838C1318.23 838 1483 658.683 1483 437.5C1483 216.317 1318.23 37 1115 37ZM1258.08 631.182H1184.2V458.259H1045.83V631.182H971.922V243.818H1045.83V391.509H1184.18V243.818H1258.07V631.182H1258.08Z" fill="#F0F2F5"/>
<path d="M1851.5 37C1647.99 37 1483 216.317 1483 437.5C1483 658.683 1647.99 838 1851.5 838C2055.01 838 2220 658.683 2220 437.5C2220 216.317 2055.01 37 1851.5 37ZM1989.99 631.182H1737.57V243.818H1812.05V561.535H1990.01L1989.99 631.182Z" fill="#F0F2F5"/>
</svg>
