<svg width="640" height="652" viewBox="0 0 640 652" fill="none" xmlns="http://www.w3.org/2000/svg">
<path d="M518 332C518 358.264 512.827 384.272 502.776 408.537C492.725 432.802 477.993 454.85 459.421 473.421C440.85 491.993 418.802 506.725 394.537 516.776C370.272 526.827 344.264 532 318 532V332H518Z" fill="#222A3E"/>
<path d="M318 532C264.957 532 214.086 510.929 176.579 473.421C139.071 435.914 118 385.043 118 332H318V532Z" fill="#F0F2F5"/>
<path d="M318 132C344.264 132 370.272 137.173 394.537 147.224C418.802 157.275 440.85 172.007 459.421 190.579C477.993 209.15 492.725 231.198 502.776 255.463C512.827 279.728 518 305.736 518 332H318V132Z" fill="#F0F2F5"/>
<path d="M118 332C118 278.957 139.071 228.086 176.579 190.579C214.086 153.071 264.957 132 318 132V332H118Z" fill="#222A3E"/>
<path d="M639.5 332C639.5 508.455 496.455 651.5 320 651.5C143.545 651.5 0.5 508.455 0.5 332C0.5 155.545 143.545 12.5 320 12.5C496.455 12.5 639.5 155.545 639.5 332ZM5.89999 332C5.89999 505.473 146.527 646.1 320 646.1C493.473 646.1 634.1 505.473 634.1 332C634.1 158.527 493.473 17.9 320 17.9C146.527 17.9 5.89999 158.527 5.89999 332Z" fill="black" stroke="black"/>
<path d="M318 532V132" stroke="black" stroke-width="4"/>
<path d="M519.987 333L119.991 332" stroke="black" stroke-width="4"/>
<path d="M522 331C522 442.562 431.562 533 320 533C208.438 533 118 442.562 118 331C118 219.438 208.438 129 320 129C431.562 129 522 219.438 522 331ZM122.04 331C122.04 440.33 210.67 528.96 320 528.96C429.33 528.96 517.96 440.33 517.96 331C517.96 221.67 429.33 133.04 320 133.04C210.67 133.04 122.04 221.67 122.04 331Z" fill="black"/>
</svg>
