<svg width="800" height="800" viewBox="0 0 800 800" fill="none" xmlns="http://www.w3.org/2000/svg">
<path fill-rule="evenodd" clip-rule="evenodd" d="M175.699 273.8C200.691 210.4 230.754 166.667 298.809 166.667H481.23C549.22 166.667 579.317 210.4 604.34 273.8L629.333 341.633C647.957 341.863 665.063 352.203 674.28 368.8C679.703 378.253 682.543 389.03 682.503 400V487.467C682.747 507.89 672.693 526.993 655.92 538C647.94 543.097 638.733 545.797 629.333 545.8H150.674C141.276 545.797 132.066 543.097 124.089 538C107.313 526.993 97.262 507.89 97.504 487.467V400C97.4687 389.043 100.309 378.277 105.726 368.833C114.944 352.237 132.052 341.897 150.674 341.667L175.699 273.8Z" stroke="#222A3E" stroke-width="50" stroke-linecap="round" stroke-linejoin="round"/>
<path d="M228.876 545.833C228.876 532.027 217.684 520.833 203.876 520.833C190.069 520.833 178.876 532.027 178.876 545.833H228.876ZM203.876 589.6H178.876C178.876 589.86 178.88 590.12 178.889 590.38L203.876 589.6ZM163.966 633.333L163.073 658.317C163.662 658.34 164.251 658.34 164.84 658.32L163.966 633.333ZM124.089 589.567L149.076 590.367C149.085 590.1 149.089 589.833 149.089 589.567H124.089ZM149.089 538C149.089 524.193 137.896 513 124.089 513C110.282 513 99.089 524.193 99.089 538H149.089ZM150.674 316.634C136.867 316.634 125.674 327.827 125.674 341.633C125.674 355.44 136.867 366.633 150.674 366.633V316.634ZM629.333 366.633C643.14 366.633 654.333 355.44 654.333 341.633C654.333 327.827 643.14 316.634 629.333 316.634V366.633ZM601.163 545.8C601.163 531.993 589.97 520.8 576.163 520.8C562.357 520.8 551.163 531.993 551.163 545.8H601.163ZM576.163 589.567L601.117 591.12C601.147 590.603 601.163 590.087 601.163 589.567H576.163ZM655.95 589.567H630.95C630.95 590.087 630.967 590.603 631 591.12L655.95 589.567ZM680.95 538C680.95 524.193 669.76 513 655.95 513C642.143 513 630.95 524.193 630.95 538H680.95ZM195.004 425C181.197 425 170.004 436.193 170.004 450C170.004 463.807 181.197 475 195.004 475V425ZM227.504 475C241.311 475 252.504 463.807 252.504 450C252.504 436.193 241.311 425 227.504 425V475ZM552.503 425C538.697 425 527.503 436.193 527.503 450C527.503 463.807 538.697 475 552.503 475V425ZM585.003 475C598.81 475 610.003 463.807 610.003 450C610.003 436.193 598.81 425 585.003 425V475ZM178.876 545.833V589.6H228.876V545.833H178.876ZM178.889 590.38C179.207 600.583 171.527 608.053 163.093 608.35L164.84 658.32C201.976 657.02 230.006 625.36 228.864 588.82L178.889 590.38ZM164.86 608.35C156.424 608.05 148.749 600.57 149.076 590.367L99.1017 588.767C97.931 625.307 125.938 656.99 163.073 658.317L164.86 608.35ZM149.089 589.567V538H99.089V589.567H149.089ZM150.674 366.633H629.333V316.634H150.674V366.633ZM551.163 545.8V589.567H601.163V545.8H551.163ZM551.213 588.013C549.707 612.223 561.417 635.593 582.14 648.477L608.537 606.01C603.793 603.063 600.723 597.397 601.117 591.12L551.213 588.013ZM582.14 648.477C602.957 661.413 629.157 661.413 649.973 648.477L623.58 606.01C618.927 608.903 613.19 608.903 608.537 606.01L582.14 648.477ZM649.973 648.477C670.7 635.593 682.41 612.223 680.903 588.013L631 591.12C631.39 597.397 628.323 603.063 623.58 606.01L649.973 648.477ZM680.95 589.567V538H630.95V589.567H680.95ZM195.004 475H227.504V425H195.004V475ZM552.503 475H585.003V425H552.503V475Z" fill="#222A3E"/>
</svg>
