<svg width="800" height="800" viewBox="0 0 800 800" fill="none" xmlns="http://www.w3.org/2000/svg">
<path d="M66.6666 400C66.6666 274.292 66.6666 211.438 105.719 172.386C144.772 133.333 207.625 133.333 333.333 133.333H466.667C592.373 133.333 655.23 133.333 694.28 172.386C733.333 211.438 733.333 274.292 733.333 400V466.667C733.333 592.373 733.333 655.23 694.28 694.28C655.23 733.333 592.373 733.333 466.667 733.333H333.333C207.625 733.333 144.772 733.333 105.719 694.28C66.6666 655.23 66.6666 592.373 66.6666 466.667V400Z" stroke="#222A3E" stroke-width="50"/>
<path d="M233.333 133.333V83.3333" stroke="#222A3E" stroke-width="50" stroke-linecap="round"/>
<path d="M566.667 133.333V83.3333" stroke="#222A3E" stroke-width="50" stroke-linecap="round"/>
<path d="M83.3334 300H716.667" stroke="#222A3E" stroke-width="50" stroke-linecap="round"/>
<path d="M600 566.667C600 585.077 585.077 600 566.667 600C548.257 600 533.333 585.077 533.333 566.667C533.333 548.257 548.257 533.333 566.667 533.333C585.077 533.333 600 548.257 600 566.667Z" fill="#222A3E"/>
<path d="M600 433.333C600 451.743 585.077 466.667 566.667 466.667C548.257 466.667 533.333 451.743 533.333 433.333C533.333 414.923 548.257 400 566.667 400C585.077 400 600 414.923 600 433.333Z" fill="#222A3E"/>
<path d="M433.333 566.667C433.333 585.077 418.41 600 400 600C381.59 600 366.667 585.077 366.667 566.667C366.667 548.257 381.59 533.333 400 533.333C418.41 533.333 433.333 548.257 433.333 566.667Z" fill="#222A3E"/>
<path d="M433.333 433.333C433.333 451.743 418.41 466.667 400 466.667C381.59 466.667 366.667 451.743 366.667 433.333C366.667 414.923 381.59 400 400 400C418.41 400 433.333 414.923 433.333 433.333Z" fill="#222A3E"/>
<path d="M266.667 566.667C266.667 585.077 251.743 600 233.333 600C214.924 600 200 585.077 200 566.667C200 548.257 214.924 533.333 233.333 533.333C251.743 533.333 266.667 548.257 266.667 566.667Z" fill="#222A3E"/>
<path d="M266.667 433.333C266.667 451.743 251.743 466.667 233.333 466.667C214.924 466.667 200 451.743 200 433.333C200 414.923 214.924 400 233.333 400C251.743 400 266.667 414.923 266.667 433.333Z" fill="#222A3E"/>
</svg>
