<svg width="800" height="800" viewBox="0 0 800 800" fill="none" xmlns="http://www.w3.org/2000/svg">
<path d="M479.367 300.907C499.223 293.97 520.593 290.196 542.857 290.196C564.68 290.196 585.643 293.823 605.17 300.499M605.17 300.499C679.767 326.008 733.333 396.037 733.333 478.43C733.333 582.39 648.053 666.667 542.857 666.667H209.524C130.626 666.667 66.6667 603.46 66.6667 525.49C66.6667 447.52 130.626 384.313 209.524 384.313C218.994 384.313 228.25 385.223 237.205 386.963M605.17 300.499C594.57 206.457 513.863 133.333 415.873 133.333C310.676 133.333 225.397 217.609 225.397 321.569C225.397 344.563 229.569 366.593 237.205 386.963M237.205 386.963C256.02 390.613 273.509 397.913 288.889 408.087" stroke="#222A3E" stroke-width="50" stroke-linecap="round"/>
</svg>
