<svg width="800" height="800" viewBox="0 0 800 800" fill="none" xmlns="http://www.w3.org/2000/svg">
<path fill-rule="evenodd" clip-rule="evenodd" d="M160.007 146.077C160.007 157.172 147.246 163.414 138.488 156.602L53.5392 90.5301C46.6761 85.192 46.6761 74.8192 53.5392 69.4811L138.488 3.40949C147.246 -3.40237 160.007 2.8389 160.007 13.9342V53.3397H480.005V13.9358C480.005 2.84049 492.766 -3.40078 501.524 3.41108L586.475 69.4827C593.339 74.8208 593.339 85.1936 586.475 90.5317L501.524 156.603C492.766 163.415 480.005 157.174 480.005 146.079V106.673H160.007V146.077ZM506.668 266.666H133.334C118.607 266.666 106.668 278.605 106.668 293.332V666.667C106.668 681.392 118.607 693.333 133.334 693.333H506.668C521.395 693.333 533.333 681.392 533.333 666.667V293.332C533.333 278.605 521.395 266.666 506.668 266.666ZM133.334 213.332C89.1514 213.332 53.3344 249.15 53.3344 293.332V666.667C53.3344 710.848 89.1514 746.667 133.334 746.667H506.668C550.848 746.667 586.667 710.848 586.667 666.667V293.332C586.667 249.15 550.848 213.332 506.668 213.332H133.334ZM786.075 320.001H746.667V640H786.075C797.168 640 803.413 652.763 796.597 661.52L730.528 746.469C725.189 753.333 714.816 753.333 709.477 746.469L643.408 661.52C636.597 652.763 642.837 640 653.931 640H693.333V320.001H653.931C642.837 320.001 636.592 307.239 643.408 298.482L709.477 213.532C714.816 206.669 725.189 206.669 730.528 213.533L796.597 298.482C803.408 307.239 797.168 320.001 786.075 320.001Z" fill="#222A3E"/>
</svg>
