<svg width="800" height="800" viewBox="0 0 800 800" fill="none" xmlns="http://www.w3.org/2000/svg">
<path fill-rule="evenodd" clip-rule="evenodd" d="M400 91.6665C229.712 91.6665 91.6667 229.712 91.6667 400C91.6667 570.286 229.712 708.333 400 708.333C570.287 708.333 708.333 570.286 708.333 400C708.333 229.712 570.287 91.6665 400 91.6665ZM41.6667 400C41.6667 202.098 202.098 41.6665 400 41.6665C597.903 41.6665 758.333 202.098 758.333 400C758.333 597.903 597.903 758.333 400 758.333C202.098 758.333 41.6667 597.903 41.6667 400Z" fill="#222A3E"/>
<path fill-rule="evenodd" clip-rule="evenodd" d="M216.895 433.247C227.298 424.17 243.09 425.243 252.169 435.643L308.333 500V233.333C308.333 219.526 319.526 208.333 333.333 208.333C347.14 208.333 358.333 219.526 358.333 233.333V566.667C358.333 577.087 351.87 586.417 342.11 590.073C332.354 593.733 321.35 590.957 314.498 583.107L214.498 468.523C205.419 458.12 206.492 442.327 216.895 433.247Z" fill="#222A3E"/>
<path fill-rule="evenodd" clip-rule="evenodd" d="M457.89 209.925C448.13 213.584 441.667 222.912 441.667 233.333V566.667C441.667 580.473 452.86 591.667 466.667 591.667C480.473 591.667 491.667 580.473 491.667 566.667V300L547.83 364.353C556.91 374.757 572.703 375.83 583.107 366.753C593.507 357.673 594.58 341.88 585.503 331.478L485.503 216.895C478.65 209.043 467.647 206.266 457.89 209.925Z" fill="#222A3E"/>
</svg>
