<svg width="800" height="800" viewBox="0 0 800 800" fill="none" xmlns="http://www.w3.org/2000/svg">
<path d="M533.333 733.333V266.667C533.333 172.386 533.333 125.245 504.043 95.956C474.753 66.6667 427.613 66.6667 333.333 66.6667H300C205.719 66.6667 158.579 66.6667 129.289 95.956C100 125.245 100 172.386 100 266.667V733.333" stroke="#222A3E" stroke-width="50"/>
<path d="M366.667 200H266.667C235.24 200 219.526 200 209.763 209.763C200 219.526 200 235.24 200 266.667C200 298.094 200 313.807 209.763 323.57C219.526 333.333 235.24 333.333 266.667 333.333H366.667C398.093 333.333 413.807 333.333 423.57 323.57C433.333 313.807 433.333 298.094 433.333 266.667C433.333 235.24 433.333 219.526 423.57 209.763C413.807 200 398.093 200 366.667 200Z" stroke="#222A3E" stroke-width="50"/>
<path d="M233.333 566.667H400" stroke="#222A3E" stroke-width="50" stroke-linecap="round"/>
<path d="M566.667 733.333H66.6667" stroke="#222A3E" stroke-width="50" stroke-linecap="round"/>
<path d="M650 133.333L691.103 166.216C695.697 169.891 697.993 171.729 700.083 173.602C719.79 191.269 731.693 216.029 733.177 242.455C733.333 245.256 733.333 248.198 733.333 254.081V616.667C733.333 644.28 710.947 666.667 683.333 666.667C655.72 666.667 633.333 644.28 633.333 616.667V614.287C633.333 587.987 612.013 566.667 585.713 566.667H533.333" stroke="#222A3E" stroke-width="50" stroke-linecap="round"/>
<path d="M733.333 266.667H683.333C655.72 266.667 633.333 289.052 633.333 316.667V397.297C633.333 418.817 647.103 437.923 667.523 444.73L733.333 466.667" stroke="#222A3E" stroke-width="50" stroke-linecap="round"/>
</svg>
