<svg width="800" height="800" viewBox="0 0 800 800" fill="none" xmlns="http://www.w3.org/2000/svg">
<g clip-path="url(#clip0_12_50)">
<path d="M362.851 800C357.544 800 352.489 799.646 347.814 798.964L330.73 796.487L339.449 781.577C362.75 741.85 314.986 704.271 309.982 700.531C302.451 696.133 246.247 660.601 194.541 554.865L194.263 554.284C158.453 469.396 157.594 380.996 191.736 298.686C212.383 248.926 241.167 212.13 261.688 190.018C285.342 164.519 310.766 144.756 329.694 137.048C380.313 116.528 447.763 26.6616 448.42 25.7518L467.602 0L473.06 101.188L559.767 175.941L566.667 216.25L633.257 318.196V369.447L587.263 407.278L539.424 360.627C535.911 360.753 530.882 360.879 524.741 360.879C487.061 360.879 437.731 356.128 416.629 333.712C402.502 318.676 393.581 303.867 389.361 286.758C389.411 389.639 525.196 517.741 526.889 519.308L527.774 520.142L528.431 521.127C580.212 594.87 568.865 653.121 550.215 689.007C512.56 761.41 417.21 800 362.851 800ZM215.542 544.958C266.667 649.356 321.38 680.288 321.936 680.591L323.124 681.324C345.034 697.068 378.443 735.077 366.667 776.624C414.607 774.855 497.498 740.005 529.593 678.241C552.262 634.647 545.716 586.581 510.109 535.355C502.552 528.203 453.222 480.465 414.152 419.56C357.139 330.655 350.872 257.089 396.058 206.874L426.712 172.782L415.972 217.437C402.653 272.757 410.993 293.91 433.485 317.867C445.16 330.301 479.277 337.731 524.665 337.731C535.633 337.731 543.038 337.25 543.088 337.25L548.244 336.922L588.501 376.169L610.008 358.529V325.171L544.579 224.918L538.287 188.072L450.392 112.307L447.789 63.7857C422.694 93.7579 377.584 142.684 338.413 158.58C311.827 169.371 247.789 224.134 213.166 307.581C181.071 385.014 181.855 464.872 215.542 544.958Z" fill="#222A3E"/>
</g>
<defs>
<clipPath id="clip0_12_50">
<rect width="800" height="800" fill="white"/>
</clipPath>
</defs>
</svg>
