<svg width="800" height="800" viewBox="0 0 800 800" fill="none" xmlns="http://www.w3.org/2000/svg">
<path d="M397.857 8.33924C384.05 8.41477 372.92 19.6687 372.993 33.4757C373.07 47.2824 384.323 58.414 398.13 58.3384L397.857 8.33924ZM76.2823 227.805L55.159 214.433C54.8223 214.965 54.506 215.509 54.2107 216.065L76.2823 227.805ZM104.457 230.038C111.842 218.372 108.371 202.928 96.705 195.543C85.039 188.158 69.595 191.629 62.21 203.295L104.457 230.038ZM398.13 58.3384C472.913 57.9294 545.767 82.0677 605.51 127.05L635.587 87.1064C567.1 35.541 483.587 7.8703 397.857 8.33924L398.13 58.3384ZM605.51 127.05C665.253 172.033 708.59 235.374 728.867 307.357L776.993 293.8C753.75 211.283 704.073 138.672 635.587 87.1064L605.51 127.05ZM728.867 307.357C749.143 379.34 745.247 455.987 717.767 525.54L764.27 543.913C795.77 464.183 800.24 376.317 776.993 293.8L728.867 307.357ZM717.767 525.54C690.287 595.093 640.747 653.71 576.747 692.397L602.613 735.187C675.98 690.84 732.77 623.647 764.27 543.913L717.767 525.54ZM576.747 692.397C512.747 731.083 437.82 747.703 363.463 739.707L358.117 789.42C443.357 798.587 529.247 779.537 602.613 735.187L576.747 692.397ZM363.463 739.707C289.109 731.71 219.431 699.537 165.12 648.127L130.747 684.44C193.006 743.373 272.881 780.253 358.117 789.42L363.463 739.707ZM165.12 648.127C110.81 596.717 74.8667 528.907 62.806 455.1L13.4606 463.163C27.2861 547.77 68.489 625.503 130.747 684.44L165.12 648.127ZM62.806 455.1C50.7457 381.293 63.2337 305.571 98.354 239.546L54.2107 216.065C13.9506 291.752 -0.364853 378.557 13.4606 463.163L62.806 455.1ZM97.4057 241.177L104.457 230.038L62.21 203.295L55.159 214.433L97.4057 241.177Z" fill="#008800"/>
<path d="M141.667 51L159.345 33.3223C149.582 23.5592 133.753 23.5592 123.989 33.3223L141.667 51ZM247.734 157.067L265.411 174.744C270.1 170.056 272.734 163.697 272.734 157.067C272.734 150.436 270.1 144.077 265.411 139.389L247.734 157.067ZM177.023 192.422C167.646 201.799 154.928 207.067 141.667 207.067V257.067C168.189 257.067 193.624 246.531 212.378 227.778L177.023 192.422ZM141.667 207.067C128.406 207.067 115.688 201.799 106.311 192.422L70.956 227.778C89.71 246.531 115.145 257.067 141.667 257.067V207.067ZM106.311 192.422C96.9347 183.045 91.6667 170.328 91.6667 157.067H41.6667C41.6667 183.588 52.2024 209.024 70.956 227.778L106.311 192.422ZM91.6667 157.067C91.6667 143.806 96.9347 131.088 106.311 121.711L70.956 86.3557C52.2024 105.109 41.6667 130.545 41.6667 157.067H91.6667ZM106.311 121.711L159.345 68.6777L123.989 33.3223L70.956 86.3557L106.311 121.711ZM123.989 68.6777L230.056 174.744L265.411 139.389L159.345 33.3223L123.989 68.6777ZM230.056 139.389L177.023 192.422L212.378 227.778L265.411 174.744L230.056 139.389Z" fill="#008800"/>
<path d="M141.673 50.9807C131.905 60.7394 131.898 76.5684 141.656 86.336C151.415 96.1037 167.244 96.1114 177.012 86.3527L141.673 50.9807ZM212.378 51.0194C222.146 41.2607 222.154 25.4317 212.395 15.664C202.637 5.89634 186.807 5.88887 177.04 15.6474L212.378 51.0194ZM177.012 86.3527L212.378 51.0194L177.04 15.6474L141.673 50.9807L177.012 86.3527Z" fill="#008800"/>
<path d="M212.392 121.731C202.634 131.498 202.641 147.328 212.409 157.086C222.177 166.845 238.006 166.837 247.764 157.069L212.392 121.731ZM283.097 121.703C292.856 111.935 292.848 96.106 283.081 86.3474C273.313 76.589 257.484 76.5964 247.725 86.364L283.097 121.703ZM247.764 157.069L283.097 121.703L247.725 86.364L212.392 121.731L247.764 157.069Z" fill="#008800"/>
<path d="M400 233.333L420.57 219.125C415.903 212.367 408.213 208.333 400 208.333C391.787 208.333 384.097 212.367 379.43 219.125L400 233.333ZM475 433.333C475 453.223 467.097 472.3 453.033 486.367L488.39 521.723C511.83 498.28 525 466.487 525 433.333H475ZM453.033 486.367C438.967 500.43 419.89 508.333 400 508.333V558.333C433.153 558.333 464.947 545.163 488.39 521.723L453.033 486.367ZM400 508.333C380.11 508.333 361.033 500.43 346.967 486.367L311.612 521.723C335.053 545.163 366.847 558.333 400 558.333V508.333ZM346.967 486.367C332.902 472.3 325 453.223 325 433.333H275C275 466.487 288.17 498.28 311.612 521.723L346.967 486.367ZM325 433.333C325 425.203 329.216 410 338.513 388.837C347.36 368.7 359.35 346.327 371.623 325.165C383.853 304.087 396.117 284.638 405.34 270.433C409.947 263.341 413.78 257.583 416.45 253.612C417.783 251.627 418.827 250.091 419.53 249.06C419.88 248.544 420.147 248.155 420.323 247.9C420.41 247.772 420.477 247.678 420.517 247.618C420.537 247.588 420.553 247.567 420.56 247.554C420.56 247.555 420.57 247.542 400 233.333C379.43 219.125 379.433 219.122 379.43 219.125C379.433 219.121 379.43 219.126 379.43 219.125C379.427 219.131 379.41 219.154 379.403 219.165C379.387 219.188 379.367 219.219 379.337 219.259C379.283 219.338 379.203 219.453 379.103 219.6C378.9 219.896 378.603 220.327 378.223 220.885C377.463 222.002 376.357 223.63 374.957 225.711C372.16 229.873 368.177 235.856 363.41 243.199C353.883 257.864 341.147 278.058 328.375 300.076C315.65 322.012 302.64 346.183 292.737 368.727C283.284 390.24 275 413.847 275 433.333H325ZM400 233.333C379.43 247.542 379.43 247.541 379.43 247.54C379.437 247.553 379.463 247.588 379.483 247.618C379.523 247.678 379.59 247.772 379.677 247.9C379.853 248.155 380.12 248.544 380.47 249.06C381.173 250.091 382.217 251.627 383.55 253.612C386.22 257.583 390.053 263.341 394.66 270.433C403.883 284.638 416.147 304.087 428.377 325.165C440.65 346.327 452.64 368.7 461.487 388.837C470.783 410 475 425.203 475 433.333H525C525 413.847 516.717 390.24 507.263 368.727C497.36 346.183 484.35 322.012 471.623 300.076C458.853 278.058 446.117 257.864 436.59 243.199C431.823 235.856 427.84 229.873 425.043 225.711C423.643 223.63 422.537 222.002 421.777 220.885C421.397 220.327 421.1 219.896 420.897 219.6C420.797 219.453 420.717 219.338 420.663 219.259C420.633 219.219 420.613 219.188 420.597 219.165C420.6 219.172 420.59 219.154 420.597 219.165C420.593 219.162 420.57 219.126 420.57 219.125C420.567 219.122 420.57 219.125 400 233.333Z" fill="#222A3E"/>
</svg>
