<svg width="800" height="800" viewBox="0 0 800 800" fill="none" xmlns="http://www.w3.org/2000/svg">
<path d="M546.137 504.807C557.997 497.74 561.88 482.393 554.81 470.533C547.743 458.673 532.397 454.79 520.537 461.86L387.203 541.327C375.343 548.397 371.46 563.74 378.527 575.6C385.597 587.463 400.943 591.347 412.803 584.277L546.137 504.807Z" fill="#222A3E"/>
<path fill-rule="evenodd" clip-rule="evenodd" d="M361.317 118.004C373.687 112.234 386.037 108.333 400.003 108.333C413.967 108.333 426.317 112.234 438.69 118.004C450.307 123.422 463.547 131.294 479.113 140.548L579.76 200.373C595.337 209.632 608.577 217.501 618.933 225.142C623.943 228.839 628.597 232.704 632.823 236.962L719.47 179.199C730.957 171.54 746.48 174.644 754.137 186.132C761.797 197.621 758.693 213.142 747.203 220.801L655.603 281.868C656.25 285.51 656.73 289.223 657.093 293.02C658.337 306.001 658.337 321.67 658.337 340.237V459.763C658.337 478.33 658.337 494 657.093 506.98C655.777 520.743 652.93 533.41 646.117 545.56C639.283 557.75 629.973 566.71 618.933 574.857C608.577 582.5 595.34 590.367 579.76 599.627L479.117 659.453C463.55 668.703 450.307 676.58 438.69 681.997C426.317 687.767 413.967 691.667 400.003 691.667C386.037 691.667 373.687 687.767 361.317 681.997C349.7 676.58 336.46 668.71 320.897 659.457L220.244 599.627C204.667 590.367 191.429 582.5 181.073 574.857C176.062 571.16 171.409 567.297 167.181 563.037L80.5367 620.8C69.0487 628.46 53.5271 625.357 45.8681 613.867C38.2094 602.38 41.3137 586.857 52.8017 579.2L144.402 518.133C143.754 514.49 143.275 510.777 142.911 506.98C141.668 494 141.669 478.33 141.669 459.763V340.237C141.669 321.67 141.668 306 142.911 293.02C143.275 289.223 143.754 285.51 144.402 281.868L52.8017 220.801C41.3137 213.142 38.2094 197.621 45.8681 186.132C53.5271 174.644 69.0487 171.54 80.5367 179.199L167.181 236.962C171.409 232.704 176.063 228.839 181.073 225.142C191.429 217.5 204.667 209.632 220.245 200.373L320.891 140.548C336.457 131.294 349.7 123.422 361.317 118.004ZM382.45 163.318C373.37 167.552 362.283 174.11 345.42 184.134L246.801 242.754C229.944 252.774 218.875 259.387 210.761 265.374C203.111 271.019 199.689 274.99 197.499 278.895C195.288 282.838 193.622 287.986 192.684 297.786C191.696 308.103 191.669 321.367 191.669 341.38V458.62C191.669 478.633 191.696 491.897 192.684 502.213C193.622 512.013 195.288 517.163 197.499 521.107C199.689 525.01 203.111 528.98 210.761 534.627C218.875 540.613 229.944 547.227 246.801 557.247L345.42 615.867C362.283 625.89 373.37 632.447 382.45 636.683C391.027 640.683 395.92 641.667 400.003 641.667C404.087 641.667 408.98 640.683 417.557 636.683C426.633 632.447 437.723 625.89 454.587 615.867L553.203 557.247C570.063 547.227 581.13 540.613 589.243 534.627C596.893 528.98 600.317 525.01 602.507 521.107C604.717 517.163 606.383 512.013 607.323 502.213C608.31 491.897 608.337 478.633 608.337 458.62V341.38C608.337 321.367 608.31 308.103 607.323 297.786C606.383 287.986 604.717 282.838 602.507 278.895C600.317 274.99 596.893 271.019 589.243 265.374C581.13 259.387 570.063 252.774 553.203 242.754L454.587 184.134C437.723 174.11 426.633 167.552 417.557 163.318C408.98 159.318 404.087 158.333 400.003 158.333C395.92 158.333 391.027 159.318 382.45 163.318Z" fill="#222A3E"/>
</svg>
