<svg width="800" height="800" viewBox="0 0 800 800" fill="none" xmlns="http://www.w3.org/2000/svg">
<path fill-rule="evenodd" clip-rule="evenodd" d="M408.7 34.4872C423.237 38.4176 433.333 51.6062 433.333 66.6656V299.999H633.333C645.27 299.999 656.293 306.38 662.237 316.73C668.183 327.08 668.14 339.817 662.127 350.127L428.793 750.127C421.203 763.137 405.837 769.44 391.3 765.51C376.763 761.58 366.667 748.39 366.667 733.333V500H166.667C154.731 500 143.707 493.617 137.762 483.267C131.817 472.917 131.86 460.18 137.874 449.87L371.207 49.8699C378.797 36.8619 394.163 30.5572 408.7 34.4872ZM224.701 433.333H400C418.41 433.333 433.333 448.257 433.333 466.667V610.033L575.3 366.667H400C381.59 366.667 366.667 351.743 366.667 333.332V189.963L224.701 433.333Z" fill="#008800"/>
</svg>
