<svg width="800" height="800" viewBox="0 0 800 800" fill="none" xmlns="http://www.w3.org/2000/svg">
<path d="M400 766.667C602.503 766.667 766.667 602.503 766.667 400C766.667 197.496 602.503 33.3335 400 33.3335C197.496 33.3335 33.3334 197.496 33.3334 400C33.3334 602.503 197.496 766.667 400 766.667Z" stroke="#222A3E" stroke-width="50" stroke-linecap="round" stroke-linejoin="round"/>
<path d="M400 133.333V183.333" stroke="#222A3E" stroke-width="50" stroke-linecap="round" stroke-linejoin="round"/>
<path d="M200 200L235.355 235.355" stroke="#222A3E" stroke-width="50" stroke-linecap="round" stroke-linejoin="round"/>
<path d="M116.667 400H166.667" stroke="#222A3E" stroke-width="50" stroke-linecap="round" stroke-linejoin="round"/>
<path d="M400 639H500" stroke="#222A3E" stroke-width="50" stroke-linecap="round" stroke-linejoin="round"/>
<path d="M633.333 400H683.333" stroke="#222A3E" stroke-width="50" stroke-linecap="round" stroke-linejoin="round"/>
<path d="M200 602.023L235.355 566.667" stroke="#222A3E" stroke-width="50" stroke-linecap="round" stroke-linejoin="round"/>
<path d="M611.35 200L576.685 236.035" stroke="#222A3E" stroke-width="50" stroke-linecap="round" stroke-linejoin="round"/>
<path d="M362.091 461.259C348.174 447.047 340.477 427.888 340.689 407.996C340.9 388.107 349.002 369.115 363.217 355.198C377.432 341.285 396.591 333.585 416.48 333.796C436.369 334.007 455.361 342.112 469.278 356.324C498.265 385.933 573.087 569.571 573.087 569.571C573.087 569.571 391.079 490.835 362.091 461.259Z" stroke="#222A3E" stroke-width="50" stroke-linecap="round" stroke-linejoin="round"/>
</svg>
