<svg width="800" height="800" viewBox="0 0 800 800" fill="none" xmlns="http://www.w3.org/2000/svg">
<path d="M166.667 400C166.667 271.134 271.134 166.667 400 166.667M549.997 250L399.997 400M733.333 400C733.333 584.093 584.093 733.333 400 733.333C215.905 733.333 66.6667 584.093 66.6667 400C66.6667 215.905 215.905 66.6667 400 66.6667C584.093 66.6667 733.333 215.905 733.333 400ZM433.333 400C433.333 418.41 418.41 433.333 400 433.333C381.59 433.333 366.667 418.41 366.667 400C366.667 381.59 381.59 366.667 400 366.667C418.41 366.667 433.333 381.59 433.333 400Z" stroke="#222A3E" stroke-width="66.6667" stroke-linecap="round" stroke-linejoin="round"/>
</svg>
