<svg width="800" height="800" viewBox="0 0 800 800" fill="none" xmlns="http://www.w3.org/2000/svg">
<path fill-rule="evenodd" clip-rule="evenodd" d="M133.333 91.6667C110.321 91.6667 91.6667 110.321 91.6667 133.333C91.6667 156.345 110.321 175 133.333 175C156.345 175 175 156.345 175 133.333C175 110.321 156.345 91.6667 133.333 91.6667ZM41.6667 133.333C41.6667 82.7074 82.7074 41.6667 133.333 41.6667C183.959 41.6667 225 82.7074 225 133.333C225 175.293 196.808 210.667 158.333 221.549V375H375V221.549C336.523 210.667 308.333 175.293 308.333 133.333C308.333 82.7074 349.373 41.6667 400 41.6667C450.627 41.6667 491.667 82.7074 491.667 133.333C491.667 175.293 463.477 210.667 425 221.549V375H533.333C565.467 375 587.053 374.947 603.153 372.783C618.537 370.713 625.12 367.14 629.463 362.797C633.807 358.453 637.38 351.87 639.45 336.487C641.613 320.386 641.667 298.8 641.667 266.667V221.549C603.19 210.667 575 175.293 575 133.333C575 82.7074 616.04 41.6667 666.667 41.6667C717.293 41.6667 758.333 82.7074 758.333 133.333C758.333 175.293 730.143 210.667 691.667 221.549V268.4C691.667 298.349 691.67 323.323 689.003 343.15C686.19 364.077 680 382.97 664.817 398.15C649.637 413.333 630.743 419.523 609.817 422.337C589.99 425.003 565.017 425 535.067 425H425V578.45C463.477 589.333 491.667 624.707 491.667 666.667C491.667 717.293 450.627 758.333 400 758.333C349.373 758.333 308.333 717.293 308.333 666.667C308.333 624.707 336.523 589.333 375 578.45V425H158.333V578.45C196.808 589.333 225 624.707 225 666.667C225 717.293 183.959 758.333 133.333 758.333C82.7074 758.333 41.6667 717.293 41.6667 666.667C41.6667 624.707 69.8584 589.333 108.333 578.45V221.549C69.8584 210.667 41.6667 175.293 41.6667 133.333ZM400 91.6667C376.987 91.6667 358.333 110.321 358.333 133.333C358.333 156.345 376.987 175 400 175C423.013 175 441.667 156.345 441.667 133.333C441.667 110.321 423.013 91.6667 400 91.6667ZM666.667 91.6667C643.653 91.6667 625 110.321 625 133.333C625 156.345 643.653 175 666.667 175C689.68 175 708.333 156.345 708.333 133.333C708.333 110.321 689.68 91.6667 666.667 91.6667ZM575 500C575 486.193 586.193 475 600 475H676.19C722.04 475 758.333 512.797 758.333 558.333C758.333 594.283 735.71 625.413 703.62 636.923L754.653 720.28C761.863 732.053 758.163 747.447 746.387 754.653C734.613 761.863 719.22 758.163 712.013 746.387L647.897 641.667H625V733.333C625 747.14 613.807 758.333 600 758.333C586.193 758.333 575 747.14 575 733.333V500ZM625 591.667H676.19C693.46 591.667 708.333 577.23 708.333 558.333C708.333 539.437 693.46 525 676.19 525H625V591.667ZM133.333 625C110.321 625 91.6667 643.653 91.6667 666.667C91.6667 689.68 110.321 708.333 133.333 708.333C156.345 708.333 175 689.68 175 666.667C175 643.653 156.345 625 133.333 625ZM400 625C376.987 625 358.333 643.653 358.333 666.667C358.333 689.68 376.987 708.333 400 708.333C423.013 708.333 441.667 689.68 441.667 666.667C441.667 643.653 423.013 625 400 625Z" fill="#222A3E"/>
</svg>
