<svg width="800" height="800" viewBox="0 0 800 800" fill="none" xmlns="http://www.w3.org/2000/svg">
<path d="M200 50C117.773 50 50 117.773 50 200V250H100V200C100 144.531 144.531 100 200 100H250V50H200ZM300 50V100H500V50H300ZM550 50V100H600C655.469 100 700 144.531 700 200V250H750V200C750 117.773 682.227 50 600 50H550ZM300 250C272.461 250 250 272.461 250 300C250 327.539 272.461 350 300 350C327.539 350 350 327.539 350 300C350 272.461 327.539 250 300 250ZM50 300V500H100V300H50ZM700 300V500H750V300H700ZM475 400L375 500L300 450L200 550V575C200 600 225 600 225 600H575C575 600 598.633 598.242 600 575V525L475 400ZM50 550V600C50 682.227 117.773 750 200 750H250V700H200C144.531 700 100 655.469 100 600V550H50ZM700 550V600C700 655.469 655.469 700 600 700H550V750H600C682.227 750 750 682.227 750 600V550H700ZM300 700V750H500V700H300Z" fill="#222A3E"/>
</svg>
