<svg width="955" height="332" viewBox="0 0 955 332" fill="none" xmlns="http://www.w3.org/2000/svg">
<path d="M322 166C322 257.679 249.918 332 161 332C72.0822 332 0 257.679 0 166C0 74.3207 72.0822 0 161 0C249.918 0 322 74.3207 322 166ZM40.25 166C40.25 234.759 94.3116 290.5 161 290.5C227.688 290.5 281.75 234.759 281.75 166C281.75 97.2405 227.688 41.5 161 41.5C94.3116 41.5 40.25 97.2405 40.25 166Z" fill="#222A3E"/>
<path d="M533 166C533 257.679 460.918 332 372 332C283.082 332 211 257.679 211 166C211 74.3207 283.082 0 372 0C460.918 0 533 74.3207 533 166ZM251.25 166C251.25 234.759 305.312 290.5 372 290.5C438.688 290.5 492.75 234.759 492.75 166C492.75 97.2405 438.688 41.5 372 41.5C305.312 41.5 251.25 97.2405 251.25 166Z" fill="#222A3E"/>
<path d="M746 166C746 257.679 673.918 332 585 332C496.082 332 424 257.679 424 166C424 74.3207 496.082 0 585 0C673.918 0 746 74.3207 746 166ZM464.25 166C464.25 234.759 518.312 290.5 585 290.5C651.688 290.5 705.75 234.759 705.75 166C705.75 97.2405 651.688 41.5 585 41.5C518.312 41.5 464.25 97.2405 464.25 166Z" fill="#222A3E"/>
<path d="M955 166C955 257.679 882.918 332 794 332C705.082 332 633 257.679 633 166C633 74.3207 705.082 0 794 0C882.918 0 955 74.3207 955 166ZM673.25 166C673.25 234.759 727.312 290.5 794 290.5C860.688 290.5 914.75 234.759 914.75 166C914.75 97.2405 860.688 41.5 794 41.5C727.312 41.5 673.25 97.2405 673.25 166Z" fill="#222A3E"/>
</svg>
