<svg width="750" height="750" viewBox="0 0 750 750" fill="none" xmlns="http://www.w3.org/2000/svg">
<circle cx="373.5" cy="375.5" r="373.5" fill="#F0F2F5"/>
<circle cx="374" cy="374" r="235" fill="#222A3E"/>
<circle cx="351" cy="179" r="6" fill="#F0F2F5"/>
<circle cx="388" cy="179" r="6" fill="#F0F2F5"/>
<circle cx="370" cy="178" r="6" fill="#F0F2F5"/>
<path d="M750 375C750 582.107 582.107 750 375 750C167.893 750 0 582.107 0 375C0 167.893 167.893 0 375 0C582.107 0 750 167.893 750 375ZM5.99915 375C5.99915 578.794 171.206 744.001 375 744.001C578.794 744.001 744.001 578.794 744.001 375C744.001 171.206 578.794 5.99915 375 5.99915C171.206 5.99915 5.99915 171.206 5.99915 375Z" fill="black"/>
<line x1="145" y1="327" x2="193" y2="327" stroke="#F0F2F5" stroke-width="6"/>
<line x1="138" y1="377" x2="193" y2="377" stroke="#F0F2F5" stroke-width="6"/>
<line x1="190" y1="330" x2="190" y2="234" stroke="#F0F2F5" stroke-width="6"/>
<line x1="190" y1="377" x2="190" y2="520" stroke="#F0F2F5" stroke-width="6"/>
<line x1="249" y1="327" x2="327" y2="327" stroke="#F0F2F5" stroke-width="6"/>
<line x1="244" y1="377" x2="324" y2="377" stroke="#F0F2F5" stroke-width="6"/>
<line x1="246" y1="330" x2="246" y2="177" stroke="#F0F2F5" stroke-width="6"/>
<line x1="247" y1="377" x2="247" y2="571" stroke="#F0F2F5" stroke-width="6"/>
<path d="M377.5 420C359.863 420 342.949 413.257 330.477 401.255C318.006 389.253 311 372.974 311 356C311 339.026 318.006 322.748 330.477 310.745C342.949 298.743 359.863 292 377.5 292L377.5 302.62C362.79 302.62 348.682 308.244 338.28 318.255C327.878 328.265 322.035 341.843 322.035 356C322.035 370.157 327.878 383.735 338.28 393.745C348.682 403.756 362.79 409.38 377.5 409.38L377.5 420Z" fill="#F0F2F5"/>
<path d="M439.5 356C457.137 356 474.051 362.743 486.523 374.745C498.994 386.747 506 403.026 506 420C506 436.974 498.994 453.252 486.523 465.255C474.052 477.257 457.137 484 439.5 484L439.5 473.38C454.21 473.38 468.318 467.756 478.72 457.745C489.122 447.735 494.965 434.157 494.965 420C494.965 405.843 489.122 392.265 478.72 382.255C468.318 372.244 454.21 366.62 439.5 366.62L439.5 356Z" fill="#F0F2F5"/>
<path d="M405 532C389.087 532 373.826 525.626 362.574 514.28C351.321 502.934 345 487.546 345 471.5C345 455.454 351.321 440.066 362.574 428.72C373.826 417.374 389.087 411 405 411L405 421.303C391.797 421.303 379.135 426.592 369.799 436.005C360.463 445.419 355.218 458.187 355.218 471.5C355.218 484.813 360.463 497.581 369.799 506.995C379.135 516.408 391.797 521.697 405 521.697L405 532Z" fill="#F0F2F5"/>
<path d="M425 474C432.879 474 440.681 475.565 447.961 478.605C455.241 481.646 461.855 486.102 467.426 491.72C472.998 497.338 477.417 504.007 480.433 511.348C483.448 518.688 485 526.555 485 534.5C485 542.445 483.448 550.312 480.433 557.652C477.417 564.993 472.998 571.662 467.426 577.28C461.855 582.898 455.241 587.354 447.961 590.395C440.681 593.435 432.879 595 425 595L425 584.697C431.537 584.697 438.011 583.398 444.051 580.876C450.091 578.353 455.578 574.656 460.201 569.995C464.824 565.333 468.491 559.8 470.993 553.71C473.494 547.619 474.782 541.092 474.782 534.5C474.782 527.908 473.494 521.381 470.993 515.291C468.491 509.2 464.824 503.667 460.201 499.005C455.579 494.344 450.091 490.647 444.051 488.124C438.011 485.602 431.537 484.303 425 484.303L425 474Z" fill="#F0F2F5"/>
<path d="M422 485.967C422 484.881 422.881 483.997 423.967 484.03C439.166 484.495 453.639 490.333 464.426 500.402C475.679 510.904 482 525.148 482 540C482 554.852 475.679 569.096 464.426 579.598C453.639 589.666 439.166 595.505 423.967 595.97C422.881 596.003 422 595.119 422 594.033V594.033C422 592.946 422.881 592.069 423.967 592.033C438.048 591.57 451.449 586.146 461.446 576.816C471.907 567.052 477.784 553.809 477.784 540C477.784 526.191 471.907 512.948 461.446 503.184C451.449 493.854 438.048 488.43 423.967 487.967C422.881 487.931 422 487.054 422 485.967V485.967Z" fill="#F0F2F5"/>
<path d="M610 374C610 504.339 504.339 610 374 610C243.661 610 138 504.339 138 374C138 243.661 243.661 138 374 138C504.339 138 610 243.661 610 374ZM145.253 374C145.253 500.334 247.666 602.747 374 602.747C500.334 602.747 602.747 500.334 602.747 374C602.747 247.666 500.334 145.253 374 145.253C247.666 145.253 145.253 247.666 145.253 374Z" fill="black"/>
<path d="M461 177C473.082 177 485.045 179.315 496.207 183.813C507.369 188.311 517.511 194.903 526.054 203.214C534.597 211.525 541.373 221.391 545.997 232.25C550.62 243.109 553 254.747 553 266.5C553 278.253 550.62 289.892 545.997 300.75C541.373 311.609 534.597 321.475 526.054 329.786C517.511 338.097 507.369 344.689 496.207 349.187C485.045 353.685 473.082 356 461 356L461 346.594C471.812 346.594 482.518 344.522 492.507 340.497C502.495 336.472 511.572 330.572 519.217 323.135C526.862 315.697 532.926 306.868 537.064 297.151C541.201 287.433 543.331 277.018 543.331 266.5C543.331 255.982 541.201 245.567 537.064 235.85C532.926 226.132 526.862 217.303 519.217 209.865C511.572 202.428 502.495 196.528 492.507 192.503C482.518 188.478 471.812 186.406 461 186.406L461 177Z" fill="#F0F2F5"/>
<line x1="377" y1="297.5" x2="465" y2="297.5" stroke="#F0F2F5" stroke-width="11"/>
<path d="M431.053 355.496H465.188" stroke="#F0F2F5" stroke-linecap="round"/>
<path d="M464.011 354.319C464.183 354.365 464.35 354.413 464.529 354.413C464.842 354.413 463.901 354.433 463.59 354.465C462.759 354.551 461.935 354.631 461.1 354.646C460.999 354.647 460.698 354.648 460.799 354.648C461.118 354.648 461.437 354.651 461.756 354.638C462.434 354.609 463.107 354.506 463.77 354.366C464.237 354.267 463.998 354.262 463.702 354.274C463.53 354.282 463.262 354.283 463.106 354.368C463.057 354.395 463.145 354.444 463.158 354.449C463.418 354.555 463.785 354.506 464.053 354.507C465.027 354.51 466.009 354.538 466.982 354.486C467.281 354.47 467.582 354.441 467.874 354.371C468.182 354.297 467.706 354.319 467.688 354.319C466.036 354.319 464.364 354.163 462.713 354.282C462.692 354.284 462.664 354.278 462.651 354.295C462.618 354.336 462.753 354.313 462.805 354.311C463.031 354.302 463.261 354.252 463.482 354.214C464.579 354.024 465.675 353.787 466.762 353.547C466.93 353.51 466.864 353.491 466.736 353.482C466.261 353.448 465.779 353.445 465.303 353.435C463.368 353.394 461.431 353.424 459.496 353.424C459.147 353.424 458.101 353.424 458.45 353.424C459.119 353.424 459.789 353.424 460.459 353.424C462.022 353.424 463.597 353.467 465.156 353.33C465.378 353.31 465.661 353.296 465.878 353.217C466.03 353.163 465.561 353.155 465.4 353.142C463.603 352.993 461.761 353.084 459.962 353.123C458.899 353.147 455.721 353.271 456.781 353.34C457.957 353.418 459.151 353.387 460.328 353.367C462.584 353.327 464.83 353.156 467.045 352.705C467.564 352.599 466.685 352.557 466.608 352.553C465.21 352.49 463.809 352.454 462.41 352.399C461.669 352.37 459.445 352.341 460.187 352.341C460.951 352.341 461.714 352.34 462.478 352.31C463.854 352.256 465.244 352.198 466.613 352.04C466.936 352.003 466.553 352.012 466.537 352.012C466.053 352.009 465.568 352.012 465.083 352.012C463.376 352.012 458.255 352.012 459.962 352.012" stroke="#F0F2F5" stroke-linecap="round"/>
<path d="M430.112 350.693H465.423" stroke="#222A3E" stroke-opacity="0.929412" stroke-linecap="round"/>
<path d="M392.322 350.67H431.172" stroke="#F0F2F5" stroke-linecap="round"/>
<path d="M417.935 355.52H431.009" stroke="#D9D9D9" stroke-linecap="round"/>
<path d="M392.406 355.57H418.002" stroke="#F0F2F5" stroke-linecap="round"/>
<path d="M392.77 355.297C392.018 355.297 391.283 355.214 390.896 354.479C390.638 353.989 390.331 353.481 390.532 352.898C390.616 352.658 390.683 352.292 390.886 352.118C391.098 351.936 391.249 351.606 391.497 351.468C391.58 351.423 391.624 351.264 391.725 351.251C391.784 351.244 391.958 351.073 392.02 351.024C392.192 350.886 392.507 350.933 392.725 350.933" stroke="#D9D9D9" stroke-linecap="round"/>
<path d="M392.316 350.979C392.121 350.803 391.581 350.757 391.452 351.047C391.334 351.311 391.185 351.585 390.997 351.797C390.902 351.903 390.879 352.078 390.815 352.206C390.76 352.317 390.704 352.511 390.681 352.635C390.614 353.005 390.406 353.288 390.406 353.681C390.406 354.024 390.46 354.408 390.793 354.593C390.934 354.672 391.086 354.699 391.207 354.82C391.326 354.939 391.484 355.114 391.634 355.197C391.901 355.345 391.907 355.707 392.293 355.707C392.448 355.707 393.048 355.466 393.088 355.343" stroke="#D9D9D9" stroke-linecap="round"/>
<path d="M398.135 352.16C397.596 352.16 399.212 352.16 399.751 352.16C399.761 352.16 400.08 352.149 400.044 352.138C399.757 352.042 399.33 352.115 399.039 352.115C397.626 352.115 396.214 352.115 394.801 352.115C394.198 352.115 397.209 351.997 396.607 352.027C395.65 352.074 394.701 352.302 393.753 352.426C393.274 352.488 393.686 352.524 393.897 352.524C394.099 352.524 393.485 352.511 393.291 352.567C393.132 352.612 392.991 352.692 392.806 352.706C392.623 352.72 392.8 353.11 392.652 353.226C392.423 353.404 392.255 353.18 392.27 353.56C392.277 353.728 392.767 353.797 392.884 353.797C393.135 353.797 393.374 353.809 393.616 353.752C394.115 353.634 394.72 353.706 395.235 353.706C399.398 353.706 403.56 353.706 407.722 353.706C424.333 353.706 474.166 353.706 457.555 353.706" stroke="#F0F2F5" stroke-width="3" stroke-linecap="round"/>
<path d="M399.226 351.842H438.733" stroke="#F0F2F5" stroke-width="3" stroke-linecap="round"/>
<path d="M436.961 352.703H475.961" stroke="#F0F2F5" stroke-width="3" stroke-linecap="round"/>
<path d="M391.299 354.328H392.924" stroke="#D9D9D9" stroke-width="3" stroke-linecap="round"/>
<path d="M395.037 352.053C394.429 351.445 393.408 351.566 392.599 351.566C391.673 351.566 391.217 351.584 390.731 352.459C389.952 353.861 391.886 354.653 392.924 354.653" stroke="#F0F2F5" stroke-width="3" stroke-linecap="round"/>
<path d="M393.352 361.355H445.022" stroke="#F0F2F5" stroke-width="3" stroke-linecap="round"/>
<path d="M395.523 363.092H441.114" stroke="#F0F2F5" stroke-width="3" stroke-linecap="round"/>
<path d="M429.391 363.092H442.417" stroke="#F0F2F5" stroke-width="3" stroke-linecap="round"/>
<path d="M393.352 364.395H439.377" stroke="#F0F2F5" stroke-width="3" stroke-linecap="round"/>
<path d="M392.049 365.263H439.811" stroke="#F0F2F5" stroke-width="3" stroke-linecap="round"/>
<path d="M438.509 358.316C436.553 358.12 434.864 355.79 433.009 355.059C431.021 354.276 424.587 353.616 426.689 353.998C430.275 354.65 433.352 356.145 436.989 356.145C439.219 356.145 436.857 356.704 435.928 357.013C434.283 357.562 432.708 357.447 430.862 357.447C430.231 357.447 425.199 357.447 427.002 357.447C428.858 357.447 430.851 357.241 432.695 357.472C433.025 357.513 425.441 358.731 428.209 359.377C430.754 359.971 438.505 360.078 436.048 359.184C435.713 359.062 433.543 358.784 434.746 358.533C436.246 358.22 438.17 358.306 439.425 357.279C439.736 357.025 437.194 357.013 436.917 357.013C435.06 357.013 433.178 356.908 431.344 357.255C429.122 357.675 426.922 358.37 424.735 358.943C423.728 359.207 420.944 359.169 421.744 359.836C422.751 360.675 430.103 358.691 426.906 358.099C423.735 357.511 420.263 357.882 417.064 357.882C416.937 357.882 409.244 357.912 409.345 358.316C409.713 359.788 419.027 359.184 418.367 359.184C414.718 359.184 404.039 358.489 407.439 359.811C408.784 360.334 410.609 360.053 412.023 360.053C412.244 360.053 414.901 360.084 413.47 360.053C408.883 359.951 404.324 359.618 399.72 359.618C398.604 359.618 403.95 359.249 402.953 358.75C401.065 357.806 396.111 357.882 400.926 357.882C401.531 357.882 403.615 357.882 401.746 357.882C400.006 357.882 395 357.4 396.536 358.219C397.96 358.979 401.636 358.367 403.146 358.123C403.352 358.089 407.058 356.939 406.619 356.676C405.982 356.293 402.009 356.652 403.628 357.255C404.626 357.626 411.648 357.492 407.536 357.11C406.998 357.06 398.94 357.124 399.527 357.785C399.753 358.039 400.88 357.882 400.54 357.882C399.881 357.882 399.222 357.882 398.562 357.882C394.514 357.882 403.05 358.724 404.062 358.654C407.301 358.428 410.134 356.579 413.325 356.579C418.998 356.579 424.174 355.711 429.825 355.711" stroke="#F0F2F5" stroke-width="3" stroke-linecap="round"/>
<path d="M389.878 363.96H399.431" stroke="#F0F2F5" stroke-width="3" stroke-linecap="round"/>
<path d="M397.26 365.263C393.974 365.263 391.994 364.098 389.782 361.886C388.181 360.285 388.576 357.436 388.576 355.397C388.576 352.652 388.576 353.602 388.576 355.711" stroke="#F0F2F5" stroke-width="3" stroke-linecap="round"/>
<path d="M395.089 362.224C391.253 362.224 389.444 362.286 389.444 358.099C389.444 356.91 389.1 355.379 389.975 354.505C391.046 353.433 392.583 353.707 393.786 353.105" stroke="#F0F2F5" stroke-width="3" stroke-linecap="round"/>
<path d="M397.694 358.75C396.533 358.75 395.625 358.658 394.51 358.34C394.501 358.337 395.789 358.327 396.126 358.292C396.869 358.213 397.069 357.617 396.343 357.254C394.347 356.256 393.824 358.139 396.102 357.351C397.399 356.902 394.52 355.954 393.69 356.241C393.43 356.331 391.782 357.588 392.725 357.857C394.293 358.306 392.532 358.574 392.532 359.835C392.532 360.468 394.124 360.806 392.049 360.921C391.134 360.972 391.087 360.3 390.747 359.618" stroke="#F0F2F5" stroke-width="3" stroke-linecap="round"/>
<path d="M395.089 360.921V361.79" stroke="#F0F2F5" stroke-width="3" stroke-linecap="round"/>
<path d="M394.654 362.658C391.081 362.658 390.313 361.269 388.793 358.533C387.229 355.719 389.617 353.714 392.049 353.105" stroke="#F0F2F5" stroke-width="3" stroke-linecap="round"/>
<path d="M391.181 355.276L391.615 354.842" stroke="#F0F2F5" stroke-width="3" stroke-linecap="round"/>
<path d="M397.641 355.751C397.423 355.719 397.205 355.699 396.985 355.707C396.887 355.71 397.342 355.879 397.36 355.884C397.877 356.039 398.424 356.071 398.961 356.096C399.095 356.102 399.492 356.146 399.365 356.103C399.252 356.066 399.075 356.077 398.961 356.071C398.522 356.05 398.078 356.056 397.641 356.096C397.438 356.114 397.547 356.172 397.68 356.184C398.302 356.242 398.955 356.19 399.576 356.15C399.701 356.142 399.896 356.145 400.025 356.108C400.218 356.053 399.622 356.104 399.421 356.113C398.334 356.162 397.272 356.409 396.217 356.657C394.688 357.017 393.148 357.26 391.582 357.396C391.569 357.397 390.2 357.473 390.205 357.453C390.229 357.342 390.533 357.168 390.609 357.078C390.767 356.89 390.827 356.695 390.88 356.46C390.886 356.431 390.957 356.058 391.015 356.147C391.159 356.37 391.119 356.707 391.202 356.955C391.344 357.374 391.581 357.694 391.877 358.012" stroke="#F0F2F5" stroke-width="3" stroke-linecap="round"/>
<path d="M394.316 365.194C394.1 365.194 393.865 365.064 393.668 364.99C393.171 364.802 392.659 364.533 392.215 364.241C391.892 364.028 391.814 363.727 391.675 363.381C391.352 362.573 391.01 361.769 390.71 360.953C390.235 359.663 389.937 358.177 390.17 356.803C390.282 356.147 390.539 355.535 390.725 354.899C390.947 354.138 391.119 353.376 391.577 352.717C391.701 352.538 391.752 352.277 391.988 352.204C392.217 352.134 392.337 352.071 392.587 352.071" stroke="#F0F2F5" stroke-width="3" stroke-linecap="round"/>
<path d="M400 526H436.203" stroke="#F0F2F5" stroke-width="9" stroke-linecap="round"/>
<path d="M436.818 529.794C439.009 529.794 441.544 530.904 443.078 532.438C446.047 535.407 446.504 539.935 447.078 543.805C448.776 555.268 441.606 563.797 437.948 574.041C436.685 577.576 434.809 581.054 432.343 583.872C431.284 585.082 430.071 585.793 428.773 586.742C428.081 587.247 426.361 588.441 425.926 589.182C424.446 591.697 421.88 595.227 419.327 596.504" stroke="#F0F2F5" stroke-width="8" stroke-linecap="round"/>
<path d="M424.208 485.456C421.225 485.456 418.242 485.456 415.259 485.456C412.951 485.456 411.778 485.074 414.852 484.326C416.837 483.843 419.09 483.911 421.044 483.332C422.903 482.781 424.925 481.497 426.829 481.388C428.351 481.301 431.536 480.275 432.66 479.264C433.618 478.402 435.042 478.139 436.004 477.32C436.752 476.685 437.988 475.718 438.852 475.287" stroke="#F0F2F5" stroke-width="3" stroke-linecap="round"/>
<path d="M440.072 483.015C440.156 483.69 441.333 483.422 439.575 483.422C437.867 483.422 436.226 483.343 434.558 483.738C431.929 484.361 429.334 484.236 426.649 484.236C425.699 484.236 424.75 484.236 423.801 484.236C421.594 484.236 428.163 483.529 430.31 483.015C432.852 482.406 436.514 482.009 438.648 480.349C439.291 479.849 440.675 477.32 439.01 477.32C437.95 477.32 436.56 476.984 435.824 477.931C435.706 478.082 434.889 479.278 434.965 479.354C435.372 479.762 436.349 478.413 436.727 479.128C437.202 480.025 436.162 481.793 435.598 482.428C435.306 482.756 439.919 481.528 440.434 482.428C441.558 484.396 432.277 484.642 431.304 484.642C430.376 484.642 427.677 484.794 426.852 485.253C425.083 486.235 426.963 484.237 427.462 483.829C428.651 482.856 429.973 481.967 431.439 481.479C432.81 481.022 436.874 479.582 435.598 480.258C434.502 480.838 433.432 481.567 432.343 482.111C431.686 482.44 430.697 482.375 430.106 482.834C429.779 483.089 427.507 485.373 427.507 484.62C427.507 483.333 430.561 481.466 431.53 480.981" stroke="#F0F2F5" stroke-width="3" stroke-linecap="round"/>
<path d="M464.856 295.624C470.788 295.624 479.418 291.184 479.034 284.281C478.721 278.642 464.332 277.192 460.288 277.192C446.692 277.192 432.979 274.357 419.172 274.357C412.188 274.357 405.204 274.357 398.22 274.357C388.978 274.357 379.736 274.357 370.495 274.357C356.369 274.357 398.745 274.357 412.871 274.357C425.316 274.357 387.981 274.357 375.536 274.357" stroke="#F0F2F5" stroke-width="8" stroke-linecap="round"/>
<path d="M369.865 270.103C369.865 265.243 375.683 262.079 378.686 259.076C382.46 255.303 384.699 249.962 389.714 247.734C398.695 243.742 411.134 246.001 420.905 246.001C428.23 246.001 435.555 246.001 442.881 246.001C447.728 246.001 457.655 246.001 447.134 246.001C439.835 246.001 432.536 246.001 425.237 246.001C418.72 246.001 390.348 249.63 387.193 244.583C384.266 239.899 381.346 235.177 377.269 231.508C373.914 228.489 369.865 226.13 369.865 221.898C369.865 214.937 385.102 217.645 391.131 217.645C393.793 217.645 407.362 219.27 408.775 217.251C411.951 212.714 408.612 208.672 413.107 204.176C416.23 201.053 420.835 199.547 425.158 199.293C429.777 199.021 441.541 201.397 445.638 199.056C449.478 196.862 453.028 191.637 457.137 189.289C460.17 187.556 466.157 182.434 467.692 179.365" stroke="#F0F2F5" stroke-width="8" stroke-linecap="round"/>
<path d="M423.065 589.352C423.169 588.419 424.47 587.547 425.197 587.084C425.724 586.748 426.298 586.479 426.765 586.064C427.079 585.784 427.174 585.416 427.45 585.105C427.631 584.901 427.814 584.532 428.066 584.42C428.352 584.293 428.458 584.132 428.066 584.42C427.763 584.644 427.583 584.928 427.381 585.242C426.788 586.165 426.069 586.851 425.288 587.602C424.735 588.133 424.4 589.024 423.819 589.489C422.998 590.146 423.822 589.525 424.268 589.139C424.967 588.534 425.694 587.605 426.491 587.16C427.275 586.722 428.172 585.603 428.546 584.762C428.862 584.051 429.164 583.335 429.809 582.913C429.979 582.802 430.222 582.594 430.395 582.517C430.71 582.377 429.685 583.416 429.581 583.514C428.468 584.56 427.342 585.599 426.247 586.658C425.455 587.424 424.628 588.295 423.751 588.972C423.126 589.454 422.402 589.85 421.832 590.387C421.691 590.521 421.508 590.663 421.353 590.783C421.11 590.972 422.16 590.017 422.289 589.877C423.814 588.225 425.691 586.877 427.237 585.25C427.84 584.615 428.501 583.698 429.2 583.187C429.901 582.675 430.381 582.226 429.672 583.354C429.046 584.352 428.275 585.164 427.313 585.859C426.679 586.316 426.142 586.853 425.501 587.297C425.016 587.633 424.636 588.073 424.299 588.561C423.633 589.522 422.488 590.144 421.772 591.065C421.005 592.051 419.804 593.285 418.544 593.6" stroke="#F0F2F5" stroke-linecap="round"/>
<path d="M425.395 589.626C425.207 589.689 425.2 589.879 425.121 590.037" stroke="#F0F2F5" stroke-linecap="round"/>
<path d="M424.162 590.996H424.847" stroke="#F0F2F5" stroke-linecap="round"/>
<path d="M429.779 585.653C428.743 586.689 427.704 587.704 426.628 588.667C426.345 588.92 426.115 589.165 425.859 589.421C425.728 589.551 425.505 589.557 425.395 589.695C425.335 589.769 425.258 590.041 425.258 589.946C425.258 589.299 426.458 588.134 427.107 587.99C428.151 587.758 428.786 586.342 429.573 585.729C429.782 585.567 430.387 585.111 430.129 585.166C429.769 585.242 429.123 585.915 428.82 586.201C428.425 586.573 427.903 586.965 427.587 587.403C427.213 587.923 426.599 588.3 426.156 588.743C425.64 589.259 425.471 589.97 425.014 590.479C424.653 590.88 424.932 590.153 425.052 589.847C425.227 589.4 425.677 589.07 426.011 588.735C426.44 588.307 426.938 587.971 427.313 587.502C427.601 587.142 427.956 586.817 428.302 586.505C428.75 586.103 429.32 585.591 429.832 585.249C431.008 584.466 431.54 582.928 432.656 582.091" stroke="#F0F2F5" stroke-linecap="round"/>
<path d="M426.628 589.626C426.03 589.963 426.652 589.663 426.871 589.459C427.188 589.164 427.508 588.947 427.861 588.698C428.363 588.343 428.614 587.752 429.17 587.434C429.674 587.146 429.132 587.497 428.888 587.716C428.467 588.094 428.11 588.533 427.724 588.941C427.325 589.362 426.922 589.828 426.422 590.106C425.885 590.404 426.274 590.406 426.689 590.174C427.068 589.962 427.359 589.655 427.724 589.421C428.274 589.067 428.632 588.417 429.17 588.089C429.556 587.853 430.034 587.047 430.327 586.681C430.654 586.271 431.036 585.964 431.423 585.577C431.823 585.177 432.282 584.811 432.489 584.252C432.553 584.08 432.867 583.563 432.839 583.583C432.196 584.046 431.608 584.921 431.157 585.569C430.544 586.45 429.697 587.27 428.926 588.013C428.362 588.556 427.367 589.229 427.039 589.969C426.772 590.57 426.193 591.138 425.806 591.681C425.656 591.891 425.508 592.116 425.326 592.298C425.078 592.546 425.331 592.206 425.395 592.123C425.713 591.708 425.97 591.296 426.384 590.966C427.553 590.035 428.462 588.888 429.368 587.723C430.309 586.514 431.207 585.472 431.834 584.009" stroke="#F0F2F5" stroke-linecap="round"/>
<path d="M422.824 596.186C422.152 596.565 421.47 596.932 420.812 597.336C420.759 597.369 420.927 597.285 420.983 597.258C421.518 596.999 422.078 596.78 422.639 596.586C423.374 596.332 424.108 596.08 424.841 595.836" stroke="#F0F2F5" stroke-linecap="round"/>
<path d="M432.032 594.696C432.48 594.696 432.103 594.816 431.876 594.939C431.551 595.116 431.006 595.222 430.629 595.222C430.084 595.222 429.596 595.47 429.051 595.485C428.702 595.494 428.435 595.748 428.086 595.748C427.749 595.748 427.317 595.836 426.995 595.928C426.415 596.094 425.743 596.204 425.124 596.401C422.948 597.093 420.508 597.256 418.323 597.984C418.156 598.04 417.966 597.999 417.807 598.072C417.738 598.103 417.872 598.139 417.914 598.067C418.051 597.827 418.378 597.653 418.615 597.521C418.708 597.47 418.772 597.172 418.683 597.083C418.617 597.016 418.224 597.048 418.133 597.068C417.944 597.11 417.53 597.821 417.582 597.658C417.668 597.391 417.915 597.222 418.084 597.024C418.155 596.941 418.287 596.634 418.245 596.712C418.072 597.04 417.844 597.489 417.514 597.677C417.177 597.87 416.798 598.156 416.598 598.505C416.519 598.645 416.31 598.747 416.608 598.598C417.105 598.35 417.643 598.204 418.157 598.008C418.954 597.706 419.741 597.506 420.544 597.239" stroke="#F0F2F5" stroke-linecap="round"/>
<path d="M419.054 598.203C419.463 598.203 420.08 597.952 420.457 597.784C420.839 597.614 421.316 597.575 421.68 597.37C422.659 596.819 423.904 596.955 424.973 596.717C425.575 596.584 426.24 596.393 426.858 596.362C427.253 596.342 427.636 596.099 428.042 596.099C428.325 596.099 428.604 596.014 428.875 595.923" stroke="#F0F2F5" stroke-linecap="round"/>
<path d="M404.577 530.189H409.315" stroke="#F0F2F5" stroke-linecap="round"/>
<path d="M403.135 530.396H408.697" stroke="#F0F2F5" stroke-linecap="round"/>
<path d="M404.474 531.219H408.388" stroke="#F0F2F5" stroke-linecap="round"/>
<path d="M403.959 531.219H415.082" stroke="#F0F2F5" stroke-linecap="round"/>
<path d="M404.371 531.425H441.344" stroke="#F0F2F5" stroke-linecap="round"/>
<path d="M410.241 529.881H421.673" stroke="#F0F2F5" stroke-linecap="round"/>
<path d="M410.035 530.396H437.121" stroke="#F0F2F5" stroke-linecap="round"/>
<path d="M407.152 530.189H432.693" stroke="#F0F2F5" stroke-linecap="round"/>
<path d="M415.803 531.116H437.018" stroke="#F0F2F5" stroke-linecap="round"/>
<path d="M407.976 529.263C408.679 529.263 409.385 529.241 410.087 529.268C411.001 529.304 410.09 529.968 409.732 530.132C409.581 530.201 408.789 530.292 409.108 530.292C409.358 530.292 410.024 530.166 410.138 530.395" stroke="#F0F2F5" stroke-linecap="round"/>
<path d="M438.357 528.439H439.078" stroke="#F0F2F5" stroke-linecap="round"/>
<path d="M438.357 528.233C439.042 528.233 439.628 528.494 440.16 528.908C440.425 529.115 440.843 529.293 441.035 529.549C441.15 529.702 441.674 530.166 441.859 530.189C441.921 530.197 442.54 530.588 442.58 530.659C442.733 530.927 443.187 531.103 443.404 531.374C443.831 531.908 444.643 532.256 444.949 532.867" stroke="#F0F2F5" stroke-linecap="round"/>
<path d="M444.949 532.867C445.28 533.054 445.464 533.53 445.464 533.897" stroke="#F0F2F5" stroke-linecap="round"/>
<path d="M443.61 531.322C443.48 531.207 443.363 531.219 443.198 531.219" stroke="#F0F2F5" stroke-linecap="round"/>
<path d="M438.46 527.924C439.263 527.924 440.206 528.331 440.778 528.902C441.247 529.372 441.9 529.639 442.374 530.087C442.838 530.525 443.335 530.684 443.661 531.271C443.831 531.576 443.993 531.99 444.102 532.329C444.196 532.623 444.161 533.349 444.434 533.485" stroke="#F0F2F5" stroke-linecap="round"/>
<path d="M439.902 474.473C439.555 474.473 439.294 474.468 439.742 474.169C439.939 474.038 439.26 474.104 439.032 474.169C438.91 474.204 438.512 474.559 438.437 474.679C438.318 474.87 437.891 474.977 437.717 475.171C437.155 475.795 436.578 476.526 435.788 476.881C434.946 477.261 434.119 478.204 433.208 478.386" stroke="#F0F2F5" stroke-linecap="round"/>
<path d="M414.052 483.845C415.015 483.748 415.73 482.885 416.753 482.815C417.315 482.776 417.924 482.437 418.475 482.3C419.321 482.088 420.178 481.829 421.055 481.785C421.507 481.762 422.192 481.416 422.589 481.218C423.315 480.855 424.034 480.68 424.809 480.446C425.42 480.261 425.979 480.146 426.571 479.931C427.056 479.755 427.627 479.352 428.139 479.313C428.597 479.278 429.002 478.903 429.449 478.804C430.112 478.657 430.939 478.349 431.56 478.054C432.607 477.558 433.7 477.157 434.753 476.658C436.322 475.915 437.662 474.916 439.284 474.267" stroke="#F0F2F5" stroke-linecap="round"/>
<path d="M436.812 484.669C437.938 484.669 439.506 484.857 440.469 484.108C441.017 483.682 441.986 483.913 442.58 483.616C444.066 482.873 446.055 482.745 447.729 482.506" stroke="#F0F2F5" stroke-linecap="round"/>
<path d="M436.504 484.977C437.124 484.977 438.01 485.146 438.586 484.852C439.079 484.6 439.685 484.505 440.211 484.308C440.899 484.05 441.61 483.88 442.317 483.719C442.993 483.564 443.6 483.343 444.273 483.221C444.842 483.117 445.325 482.746 445.876 482.609" stroke="#F0F2F5" stroke-linecap="round"/>
<path d="M422.497 487.14C421.417 487.14 420.354 487.151 419.281 486.991C418.392 486.859 417.476 486.728 416.575 486.728C415.708 486.728 414.84 486.522 413.972 486.522C413.317 486.522 412.651 486.014 411.992 485.904" stroke="#F0F2F5" stroke-linecap="round"/>
<path d="M422.291 487.552C421.297 487.643 420.343 487.589 419.384 487.552C418.463 487.517 417.561 486.878 416.627 486.831C415.928 486.796 415.006 486.58 414.361 486.294C414.08 486.169 413.653 486.179 413.371 486.116C412.954 486.023 412.682 485.992 412.301 485.802" stroke="#F0F2F5" stroke-linecap="round"/>
<path d="M418.068 487.243V487.346" stroke="#F0F2F5" stroke-linecap="round"/>
<path d="M419.098 487.655C418.229 487.655 417.345 487.552 416.501 487.552C415.908 487.552 415.39 487.035 414.83 486.831C414.289 486.635 413.735 486.572 413.182 486.414C412.682 486.271 412.411 485.805 411.992 485.595" stroke="#F0F2F5" stroke-linecap="round"/>
<path d="M415.597 487.552C414.928 487.552 413.753 487.414 413.251 486.911C412.792 486.452 412.221 486.283 411.992 485.595" stroke="#F0F2F5" stroke-linecap="round"/>
<path d="M419.067 359.976C419.152 358.542 423.502 358.42 423.331 358.416C420.108 358.331 416.881 358.174 413.66 358.104C410.433 358.034 426.489 359.352 423.262 359.352C421.874 359.352 417.819 360.287 419.206 360.287C422.684 360.287 426.162 360.287 429.639 360.287C432.961 360.287 436.052 359.352 439.345 359.352C441.33 359.352 438.115 359.802 439.05 359.958C441.104 360.3 439.362 360.599 438.097 360.599" stroke="#F0F2F5" stroke-linecap="round"/>
<path d="M390.679 365.279C389.148 365.279 389.872 362.867 389.362 361.847C388.792 360.708 388.183 359.532 388.183 358.173C388.183 356.59 388.183 355.007 388.183 353.424C388.183 352.737 388.386 352.177 389.119 352.177C389.989 352.128 390.003 352.177 389.119 352.177C387.102 352.289 387.248 358.907 387.248 360.287C387.248 361.861 388.392 362.992 389.431 364.031C389.876 364.476 390.444 364.558 390.922 365.036C391.301 365.415 391.805 365.998 392.239 366.215" stroke="#F0F2F5" stroke-linecap="round"/>
<path d="M389.743 353.112C389.701 352.776 389.269 352.475 389.119 352.177" stroke="#F0F2F5" stroke-linecap="round"/>
<path d="M463.99 302.263V301.951" stroke="#F0F2F5" stroke-linecap="round"/>
<path d="M463.054 301.951C465.31 301.951 467.047 300.987 468.669 299.455C470.421 297.801 472.993 296.979 474.77 295.4C477.88 292.635 478.964 288.122 478.964 284.169" stroke="#F0F2F5" stroke-linecap="round"/>
<path d="M463.678 292.904C466.042 292.609 468 291.03 470.229 290.027C471.989 289.235 474.142 288.064 475.463 286.596C475.851 286.165 476.223 285.813 476.468 285.261C476.749 284.629 476.739 286.304 476.468 286.734C475.815 287.771 475.317 289.001 474.77 290.097C473.949 291.737 472.372 292.982 470.922 294.083C470.079 294.722 463.95 298.886 467.3 295.989C469.131 294.405 471.622 292.831 472.794 290.72C472.963 290.415 473.938 289.621 473.938 289.351C473.938 288.773 473.212 290.253 472.828 290.686C471.392 292.308 469.789 293.769 468.322 295.365C467.208 296.577 467.799 295.642 468.461 295.053C469.783 293.878 471.599 293.286 472.811 292.003C474.244 290.485 468.549 292.252 468.08 292.384C466.591 292.802 467.688 292.599 468.392 292.384C469.07 292.177 471.138 291.056 471.043 291.119C469.816 291.937 468.723 292.944 467.525 293.805C465.972 294.923 467.297 294.069 467.976 293.597C468.251 293.406 469.676 292.739 469.64 292.298C469.549 291.207 466.195 293.269 466.017 293.372C465.195 293.848 462.703 295.09 463.643 294.949C465.014 294.743 466.615 293.22 467.802 292.523C468.398 292.173 469.948 290.798 469.484 291.31C468.292 292.621 466.853 293.693 465.653 295.001C464.298 296.48 469.878 295.184 470.229 295.85C470.539 296.44 463.772 299.513 463.366 300.46C463.03 301.244 464.958 299.828 465.688 299.386C466.454 298.922 468.906 298.034 468.01 298.034C467.025 298.034 466.325 299.593 466.399 299.542C466.906 299.191 470.119 296.052 468.357 297.272C467.337 297.978 466.454 298.858 465.515 299.663C464.897 300.193 467.138 299.236 467.404 299.143C467.845 298.989 468.865 298.809 469.224 298.45C470.14 297.534 466.908 299.651 465.896 300.46C464.318 301.723 468.775 299.251 467.837 299.802C466.899 300.354 466.041 301.639 464.926 301.639" stroke="#F0F2F5" stroke-linecap="round"/>
<path d="M463.99 302.575C465.427 302.575 466.402 301.468 467.248 300.391C467.897 299.565 469.026 299.123 469.848 298.45C471.496 297.102 473.414 296.467 474.527 294.464C475.406 292.882 476.734 291.658 477.473 290.097C478.35 288.246 477.716 286.18 477.716 284.169" stroke="#F0F2F5" stroke-linecap="round"/>
<path d="M476.545 285.045C476.853 284.987 476.996 284.628 477.138 284.391C477.29 284.136 477.412 283.909 477.508 283.636C477.518 283.609 477.602 283.427 477.548 283.531C477.48 283.662 477.395 283.779 477.343 283.919" stroke="#F0F2F5" stroke-linecap="round"/>
<path d="M477.601 283.403C477.562 283.569 477.395 283.734 477.285 283.854C477.052 284.111 476.885 284.389 476.696 284.678C476.597 284.829 476.496 284.973 476.386 285.116C476.341 285.174 476.334 285.218 476.334 285.29C476.334 285.382 476.678 285.146 476.722 285.11C476.937 284.939 477.168 284.616 477.202 284.341" stroke="#F0F2F5" stroke-linecap="round"/>
<path d="M477.202 284.13C476.604 284.728 476.078 285.501 475.322 285.908C475.116 286.019 474.945 286.229 474.772 286.384C474.49 286.637 474.209 286.881 473.907 287.11C473.442 287.462 472.998 287.828 472.489 288.129C471.591 288.66 470.571 288.972 469.622 289.399C469.266 289.56 468.926 289.768 468.579 289.948C468.295 290.096 468.046 290.318 467.765 290.475C467.586 290.574 467.417 290.726 467.25 290.845C466.97 291.045 466.655 291.189 466.369 291.379C466.112 291.549 465.841 291.682 465.567 291.825C465.322 291.953 465.044 292.059 464.829 292.235C464.644 292.386 464.438 292.499 464.226 292.612C464.138 292.659 463.968 292.792 463.924 292.88" stroke="#F0F2F5" stroke-linecap="round"/>
<path d="M471.079 290.441C471.353 290.323 471.61 290.098 471.86 289.942C472.454 289.569 473.072 289.237 473.688 288.903C473.779 288.854 474.012 288.728 474.126 288.674C474.239 288.619 474.145 288.691 474.12 288.714C473.965 288.855 473.803 288.978 473.636 289.104" stroke="#F0F2F5" stroke-linecap="round"/>
<path d="M471.736 290.488C473.239 289.408 474.944 288.622 476.545 287.696" stroke="#F0F2F5" stroke-linecap="round"/>
<path d="M473.12 289.878C473.672 289.446 474.227 288.986 474.632 288.408C474.901 288.023 475.07 287.596 475.278 287.18" stroke="#F0F2F5" stroke-linecap="round"/>
<path d="M474.645 288.071C474.126 288.949 473.648 289.846 473.05 290.675" stroke="#F0F2F5" stroke-linecap="round"/>
<path d="M477.366 287.203C477.446 286.837 477.499 286.465 477.58 286.098C477.667 285.704 477.822 285.346 477.976 284.975" stroke="#F0F2F5" stroke-linecap="round"/>
<path d="M477.296 285.772C476.634 286.727 475.964 287.667 475.506 288.741C475.348 289.113 475.248 289.493 475.067 289.854" stroke="#F0F2F5" stroke-linecap="round"/>
<path d="M477.108 285.608C477.009 286.424 476.835 287.255 476.485 288.004C476.236 288.535 475.932 289.061 475.607 289.549" stroke="#F0F2F5" stroke-linecap="round"/>
<path d="M476.428 287.508C476.264 287.933 476.028 288.345 475.763 288.713C475.233 289.447 474.585 290.122 473.912 290.727C473.045 291.507 472.038 292.121 471.196 292.927" stroke="#F0F2F5" stroke-linecap="round"/>
<path d="M474.621 289.057C474.21 289.776 473.629 290.393 473.037 290.965C472.487 291.494 471.937 292.016 471.314 292.458" stroke="#F0F2F5" stroke-linecap="round"/>
<path d="M470.023 290.558C469.491 290.855 468.934 291.133 468.53 291.603C468.249 291.93 468.039 292.332 467.844 292.715C467.747 292.906 467.645 293.102 467.593 293.312C467.548 293.492 467.625 293.473 467.771 293.49" stroke="#F0F2F5" stroke-linecap="round"/>
<path d="M471.196 290.652C471.582 290.461 472.007 290.3 472.317 289.99C472.388 289.919 472.181 290.138 472.116 290.215C471.769 290.636 471.396 291.039 471.011 291.426C470.598 291.841 470.164 292.219 469.825 292.698C469.707 292.865 469.544 292.929 469.39 293.045" stroke="#F0F2F5" stroke-linecap="round"/>
<path d="M470.375 290.628C470.31 290.672 470.277 290.788 470.248 290.853C470.13 291.115 470.011 291.374 469.867 291.624C469.57 292.139 469.212 292.592 468.804 293.021" stroke="#F0F2F5" stroke-linecap="round"/>
<path d="M468.428 292.13C468.216 292.277 467.992 292.402 467.766 292.528C467.513 292.67 467.267 292.842 467.001 292.96C466.817 293.042 466.596 293.057 466.403 293.11C466.025 293.213 465.661 293.367 465.308 293.536C465.022 293.673 464.749 293.835 464.469 293.984C464.309 294.069 464.172 294.139 464.01 294.22C463.994 294.228 463.684 294.415 463.63 294.387C463.61 294.377 464.015 293.909 464.043 293.879C464.221 293.684 464.411 293.505 464.604 293.326" stroke="#F0F2F5" stroke-linecap="round"/>
<path d="M466.786 292.388L467.302 292.153" stroke="#F0F2F5" stroke-linecap="round"/>
<path d="M465.918 294.194C465.854 294.624 465.756 295.057 465.634 295.474C465.559 295.73 465.449 295.972 465.431 296.24C465.41 296.541 465.401 296.846 465.339 297.142C465.332 297.18 465.204 297.525 465.23 297.554C465.339 297.675 465.526 297.73 465.644 297.848C465.747 297.951 465.736 298.115 465.694 298.242C465.569 298.619 465.343 298.985 465.149 299.329C465.033 299.535 464.909 299.737 464.795 299.944C464.749 300.026 464.644 300.111 464.675 300.2C464.697 300.264 465.109 300.148 465.133 300.132C465.26 300.048 465.35 299.902 465.438 299.782C465.545 299.639 465.439 300.076 465.423 300.114C465.329 300.332 465.146 300.499 464.961 300.64C464.905 300.683 464.773 300.748 464.769 300.833C464.766 300.89 464.849 300.749 464.873 300.697C465.126 300.137 465.234 299.501 465.332 298.899C465.367 298.679 465.407 298.461 465.445 298.242C465.466 298.123 465.504 297.98 465.485 297.856C465.474 297.781 465.402 297.744 465.342 297.713C465.31 297.697 465.272 297.686 465.243 297.666C465.205 297.639 465.207 297.543 465.162 297.554C465.088 297.571 465.083 297.684 465.046 297.751C464.931 297.961 464.807 298.163 464.67 298.359C464.565 298.508 464.425 298.653 464.339 298.814C464.331 298.828 464.316 298.85 464.328 298.86C464.377 298.899 464.452 298.833 464.508 298.805C465.347 298.395 466.161 297.863 466.919 297.322C467.606 296.832 468.248 296.205 469.03 295.867C469.272 295.763 469.184 295.831 469.046 295.946C468.615 296.305 468.084 296.451 467.552 296.603C467.155 296.716 466.721 296.785 466.343 296.957C466.247 297 466.188 297.056 466.325 297.056C466.382 297.056 466.405 297.045 466.356 297.124C466.23 297.325 466.039 297.545 465.842 297.679C465.815 297.698 465.421 297.883 465.412 297.848C465.392 297.767 465.824 297.514 465.871 297.478" stroke="#F0F2F5" stroke-linecap="round"/>
<path d="M475.114 294.218C474.214 294.836 473.361 295.504 472.411 296.049C471.874 296.356 471.315 296.655 470.837 297.051C470.753 297.12 470.717 297.18 470.667 297.266C470.628 297.334 470.512 297.4 470.451 297.439C470.061 297.692 469.626 297.864 469.215 298.078C469.139 298.117 468.919 298.248 468.995 298.209C469.147 298.133 469.278 297.975 469.396 297.859C469.953 297.317 470.564 296.84 471.092 296.269C471.492 295.836 471.903 295.414 472.309 294.986C472.34 294.954 472.37 294.922 472.401 294.89C472.428 294.861 472.501 294.827 472.475 294.797C472.439 294.757 472.038 295.069 472.026 295.078C471.185 295.706 470.352 296.354 469.52 296.996C469.277 297.184 469.032 297.375 468.814 297.593C468.784 297.623 468.578 297.807 468.604 297.881C468.647 298.001 469.356 297.607 469.365 297.602C470.668 296.959 471.996 296.35 473.206 295.539C473.574 295.292 473.929 295.021 474.263 294.73C474.361 294.644 474.464 294.556 474.535 294.446C474.561 294.405 474.526 294.371 474.504 294.335" stroke="#F0F2F5" stroke-linecap="round"/>
<path d="M473.026 295.086C472.893 295.222 472.792 295.367 472.622 295.458C472.588 295.476 472.824 295.324 472.833 295.318C473.467 294.842 474.135 294.415 474.787 293.963C475.344 293.577 475.925 293.199 476.42 292.732C476.534 292.624 476.643 292.51 476.743 292.389C476.758 292.371 476.773 292.352 476.787 292.333C476.792 292.327 476.774 292.343 476.769 292.349C476.215 292.992 475.562 293.662 474.739 293.936" stroke="#F0F2F5" stroke-linecap="round"/>
<path d="M476.193 285.421C476.557 285.144 476.744 284.556 476.821 284.117C476.836 284.031 476.823 283.939 476.826 283.851C476.837 283.544 477.021 283.244 477.105 282.951C477.191 282.65 477.1 282.308 476.925 282.058C476.867 281.975 476.814 281.889 476.727 281.831C476.72 281.827 476.642 281.782 476.641 281.784C476.579 281.925 476.69 282.239 476.708 282.381C476.791 283.059 476.801 283.714 476.576 284.364C476.479 284.644 476.383 284.924 476.334 285.217C476.312 285.349 476.32 285.482 476.3 285.613C476.258 285.88 476.152 286.185 475.992 286.403C475.926 286.494 475.709 286.62 475.592 286.532C475.567 286.513 475.74 286.362 475.753 286.349C475.912 286.176 476.07 285.998 476.207 285.808C476.646 285.199 476.773 284.499 476.892 283.773C476.956 283.379 476.922 282.879 476.637 282.57C476.524 282.448 476.46 282.289 476.338 282.166C476.246 282.075 476.127 282.01 476.03 281.924C475.877 281.787 475.757 281.585 475.591 281.466C475.518 281.414 475.668 281.63 475.716 281.706C475.909 282.014 476.066 282.335 476.217 282.665C476.415 283.1 476.618 283.56 476.756 284.018C476.864 284.375 476.866 284.752 476.837 285.121C476.807 285.51 476.7 285.944 476.484 286.276C476.385 286.427 476.268 286.557 476.123 286.664C476.063 286.708 475.876 286.873 475.786 286.836C475.702 286.801 475.866 286.413 475.879 286.371C475.996 285.993 476.106 285.61 476.206 285.228C476.335 284.739 476.439 284.24 476.402 283.732C476.376 283.386 476.287 283 476.171 282.676C476.085 282.437 475.969 282.218 475.94 281.962C475.896 281.565 475.789 281.381 475.398 281.235C475.274 281.188 475.157 281.118 475.049 281.042C474.775 280.848 474.423 280.734 474.105 280.635" stroke="#F0F2F5" stroke-linecap="round"/>
<path d="M371.409 274.523C369.747 273.946 368.911 273.659 368.273 272.145C368.095 271.72 368.168 270.728 368.247 270.251C368.373 269.493 370.66 268.407 369.947 268.692C369.055 269.049 368.651 270.181 368.432 271.035C368.337 271.406 368.123 271.784 368.088 272.162C368.058 272.501 368.23 273.147 368 273.422C367.928 273.509 367.921 273.934 367.921 273.73C367.921 273.145 367.93 272.593 368.08 272.021C368.281 271.253 368.39 269.973 368.872 269.371C369.034 269.169 369.447 269.095 369.665 268.939C370.24 268.528 369.999 268.782 369.735 269.247C368.975 270.587 368.792 272.209 368.872 273.73C368.889 274.045 369.164 273.818 369.181 273.598C369.264 272.469 369.176 271.353 369.348 270.225C369.755 267.552 369.823 271.161 369.823 271.969C369.823 272.232 369.672 273.102 369.947 273.307C370.034 273.373 369.982 273.091 369.982 272.981C369.982 272.544 369.982 272.107 369.982 271.669C369.982 271.599 369.998 270.187 370.264 270.718C370.448 271.087 370.277 271.738 370.334 272.145C370.409 272.675 370.457 274.283 370.457 273.748C370.457 272.895 370.387 271.972 370.686 271.158C371.048 270.178 371.25 272.592 371.25 272.937" stroke="#F0F2F5" stroke-linecap="round"/>
<path d="M367.446 274.998C367.446 274.286 367.269 273.272 367.481 272.585C367.697 271.884 368.111 271.273 368.432 270.63C368.968 269.558 369.983 267.944 371.092 267.389" stroke="#F0F2F5" stroke-linecap="round"/>
<path d="M369.189 271.986C369.189 272.394 369.071 272.792 369.506 272.937" stroke="#F0F2F5" stroke-linecap="round"/>
<path d="M370.616 218.882L370.775 218.723" stroke="#F0F2F5" stroke-linecap="round"/>
<path d="M461.924 183.69C461.226 183.69 460.63 184.645 461.933 183.611C462.649 183.042 463.459 182.572 464.056 181.867C464.229 181.662 464.973 180.94 464.197 181.189C462.798 181.636 461.821 183.252 460.551 183.972C460.322 184.101 457.285 185.82 457.363 185.874C457.742 186.14 459.963 184.05 460.269 183.76C460.711 183.341 461.833 182.021 461.695 182.615C461.609 182.99 461.096 183.525 460.903 183.831C460.349 184.707 459.764 185.57 459.238 186.464C458.896 187.045 458.624 187.78 458.049 188.19C457.958 188.255 458.397 187.143 458.437 187.054C458.878 186.068 459.235 185.06 459.617 184.051C459.857 183.417 460.125 182.338 460.577 181.796C460.633 181.73 460.77 181.466 460.744 181.752C460.659 182.695 460.052 183.572 459.635 184.394C459.183 185.285 458.701 186.174 458.384 187.124C458.33 187.285 458.175 187.728 458.129 187.565C457.879 186.69 459.567 185.397 460.022 184.87C460.772 184.001 461.381 183.125 461.766 182.034C461.85 181.795 462.448 180.439 462.224 180.158C462.066 179.96 459.839 183.408 459.723 183.602C459.474 184.017 458.623 186.194 458.983 184.518C459.276 183.155 461.109 179.366 460.551 180.643C459.927 182.068 459.307 183.484 458.631 184.888C458.621 184.907 458.43 185.365 458.437 185.257C458.506 184.192 459.043 183.13 459.45 182.166C459.789 181.362 460.204 180.766 460.348 179.973C460.417 179.596 460.466 178.825 460.744 178.547C461.181 178.11 460.839 181.42 460.815 180.326C460.81 180.096 460.892 178.448 460.938 178.494C461.185 178.741 460.808 179.481 460.727 179.692C460.509 180.255 459.967 181.165 460.339 179.956C460.458 179.569 460.634 179.176 460.656 178.776C460.671 178.502 460.815 178.282 460.815 177.983C460.815 177.505 460.716 178.935 460.656 179.41" stroke="#F0F2F5" stroke-linecap="round"/>
<path d="M460.815 177.824C460.815 177.431 460.973 177.186 460.973 177.736C460.973 178.36 460.958 178.88 460.78 179.48C460.527 180.331 460.197 181.771 459.547 182.422" stroke="#F0F2F5" stroke-linecap="round"/>
<path d="M460.339 178.617C460.339 179.426 460.255 180 460.022 180.757C459.833 181.372 459.425 182.108 459.388 182.739C459.336 183.63 458.752 185.33 458.199 186.067C457.531 186.958 457.084 188.026 456.183 188.727C454.679 189.896 458.433 185.546 458.895 183.698C459.308 182.048 455.919 189.735 456.253 188.067C456.505 186.804 457.476 185.453 458.05 184.306C458.309 183.787 458.531 183.255 458.789 182.739C459.094 182.13 459.208 181.012 459.626 180.51C459.928 180.148 460.181 179.262 460.181 178.775" stroke="#F0F2F5" stroke-linecap="round"/>
<path d="M460.181 179.093C460.027 180.626 459.115 182.379 458.349 183.707C457.736 184.771 457.084 185.675 456.658 186.825C456.351 187.655 455.516 189.084 454.782 189.634C454.305 189.992 455.553 187.83 455.777 187.459C456.302 186.592 456.761 185.676 457.407 184.887C457.799 184.408 458.178 183.832 458.402 183.249C458.607 182.717 458.765 181.939 459.23 181.629" stroke="#F0F2F5" stroke-linecap="round"/>
<circle cx="354" cy="246" r="15" fill="#F0F2F5"/>
<rect x="345" y="189" width="50" height="6" rx="3" fill="#F0F2F5"/>
<path d="M376.591 411.33H403.725" stroke="#F0F2F5" stroke-linecap="round"/>
<path d="M377.094 410.325H404.562" stroke="#F0F2F5" stroke-linecap="round"/>
<path d="M377.261 409.99H403.557" stroke="#F0F2F5" stroke-linecap="round"/>
<path d="M375.754 412.502C376.015 412.084 378.268 412.221 378.657 412.204C381.13 412.1 383.617 412.167 386.092 412.167C387.153 412.167 386.144 412.168 385.896 412.176C384.018 412.241 382.161 412.603 380.295 412.8C378.228 413.017 376.152 413.161 374.079 413.302C373.096 413.369 373.666 413.353 374.209 413.33C376.615 413.228 379.031 412.66 381.402 412.269C381.79 412.206 382.937 411.932 382.556 412.028C381.879 412.197 381.184 412.751 380.592 413.098C380.435 413.189 378.285 414.756 378.778 414.838C379.194 414.907 379.504 414.614 379.774 414.344" stroke="#F0F2F5" stroke-linecap="round"/>
<path d="M375.921 417.527C376.47 416.704 377.773 416.24 378.638 415.889C380.245 415.237 381.87 414.593 383.486 413.963C383.605 413.917 384.982 413.639 384.556 413.675C383.996 413.721 383.504 414.053 383.03 414.326C381.848 415.008 380.683 415.72 379.494 416.392C378.606 416.893 375.858 418.236 376.796 417.834C378.368 417.16 379.961 416.524 381.551 415.861C382.059 415.65 382.74 415.418 383.179 415.052C383.412 414.858 383.009 414.847 382.919 414.847C381.66 414.847 380.288 415.189 379.085 415.517C378.653 415.635 377.425 416.19 378.201 415.415C378.386 415.23 379.84 413.896 379.392 413.851C378.402 413.752 377.417 414.19 376.48 414.438C376.027 414.557 376.3 414.524 376.573 414.512C377.382 414.478 378.121 414.24 378.88 413.972C379.172 413.869 381.513 413.274 380.127 413.349C379.444 413.386 377.513 413.508 377.215 414.345C377.041 414.831 380.363 414.678 380.658 414.67C380.857 414.665 383.127 414.242 382.407 414.186C381.329 414.103 380.326 414.251 379.308 414.605C377.378 415.276 380.072 414.813 380.611 414.661C382.674 414.078 384.714 413.284 386.65 412.363C387.053 412.171 385.145 412.176 384.994 412.186C384.227 412.234 383.469 412.364 382.714 412.502C382.559 412.53 380.658 413.064 380.76 413.098C382.728 413.742 385.626 412.875 387.59 412.539C389.682 412.182 386.558 412.324 386.036 412.363C385.012 412.438 384.047 412.702 383.095 413.079C382.879 413.165 381.819 413.472 381.718 413.749C381.544 414.228 384.876 413.388 385.115 413.284C385.289 413.207 385.945 412.961 385.319 413.042C384.376 413.163 383.454 413.415 382.546 413.693C380.635 414.279 378.694 415.236 376.74 415.647C376.415 415.716 376.851 415.161 376.936 415.098C378.445 413.966 380.118 413.693 381.988 413.675C383.834 413.656 386.133 414.058 387.943 413.637C388.427 413.525 388.822 412.865 389.246 412.595C390.063 412.076 391.727 412 392.67 412C393.535 412 390.948 412.184 390.102 412.363C389.052 412.584 388.01 412.867 386.976 413.153C386.626 413.25 385.606 413.363 385.943 413.498C386.987 413.915 388.974 413.335 390.028 413.247C391.013 413.164 392.027 413.118 393.005 412.967C393.138 412.947 394.016 412.805 393.861 412.753C392.129 412.176 389.68 412.749 387.878 412.828C386.652 412.881 387.39 412.756 388.185 412.632C389.919 412.362 391.671 412.354 393.396 412.037C393.468 412.024 394.187 412.009 394.15 411.916C394.012 411.57 392.45 411.519 392.177 411.506C391.937 411.495 390.089 411.497 391.21 411.497C391.909 411.497 393.831 411.694 393.294 411.246C392.765 410.805 390.686 411.151 390.065 411.162C388.792 411.185 387.537 411.356 386.287 411.59C385.909 411.661 384.909 411.757 385.208 412C385.449 412.195 386.082 412.151 386.324 412.158C387.66 412.193 388.999 412.167 390.335 412.167C391.712 412.167 395.843 412.167 394.466 412.167C393.058 412.167 391.652 412.174 390.251 412.335C387.401 412.662 390.935 413.005 391.889 413.005C392.689 413.005 393.5 412.981 394.289 412.837C395.307 412.652 393.961 412.698 393.852 412.716C390.987 413.186 388.426 415.01 385.571 415.675C384.508 415.923 381.409 416.988 382.435 416.615C383.451 416.245 385.336 415.521 385.896 414.512C386.544 413.345 381.761 415.474 385.747 414.512C387.132 414.178 386.655 414.062 385.524 414.289C384.344 414.525 380.936 415.657 382.007 415.108C383.668 414.255 385.525 413.803 387.255 413.116C387.591 412.983 385.725 413.185 385.301 413.34" stroke="#F0F2F5" stroke-linecap="round"/>
<path d="M400.71 411.33C400.761 411.741 401.827 411.419 402.05 411.33" stroke="#F0F2F5" stroke-linecap="round"/>
<path d="M402.887 411.162C403.006 411.147 403.118 411.047 403.222 410.995" stroke="#F0F2F5" stroke-linecap="round"/>
<path d="M403.557 410.492C403.957 410.043 405.958 409.565 406.535 410.027C407.091 410.472 406.907 411.565 406.907 412.204C406.907 413.147 406.74 413.6 405.902 413.972C405.477 414.161 403.599 414.344 404.897 414.344C405.288 414.344 405.679 414.344 406.07 414.344C406.6 414.344 406.436 413.73 406.609 413.339C406.955 412.562 406.818 411.618 406.237 411.069C405.861 410.714 405.334 410.465 405.53 411.125C405.685 411.647 405.539 412.272 405.437 412.781C404.979 415.071 406.185 412.026 405.725 411.758C405.308 411.514 404.866 411.389 404.478 411.088C404.048 410.752 403.309 411.414 403.902 411.488C404.972 411.622 404.691 412.115 405.307 412.818C405.661 413.223 405.143 413.504 404.813 413.591C404.72 413.615 403.474 414.141 404.153 414.335C404.406 414.408 405.074 414.565 405.232 414.763C405.393 414.964 406.075 414.847 406.321 414.847C406.621 414.847 406.64 414.433 406.982 414.335C407.557 414.171 407.41 412.523 407.41 412.083C407.41 411.135 407.39 410.905 406.498 410.65C405.321 410.314 402.432 410.126 401.38 410.827" stroke="#F0F2F5" stroke-linecap="round"/>
<path d="M404.06 411.497C404.651 411.497 405.707 411.563 406.107 411.962C406.762 412.617 405.902 413.603 405.902 412.251C405.902 410.633 404.068 409.99 402.72 409.99" stroke="#F0F2F5" stroke-linecap="round"/>
<path d="M444.569 531.481C444.465 531.012 443.773 530.419 443.569 529.923C443.285 529.228 442.926 528.782 442.482 528.173C441.791 527.227 440.916 526.322 439.938 525.689C439.625 525.486 439.305 524.998 439.865 524.998C440.464 524.998 440.772 525.123 441.129 525.63C441.485 526.135 442.036 526.457 442.393 526.953C442.719 527.405 443.101 527.758 443.444 528.181C443.744 528.55 444.579 529.082 443.966 528.247C443.46 527.557 442.712 527.034 442.254 526.321C441.786 525.594 441.206 524.822 440.673 524.138C440.358 523.733 439.482 522.896 438.946 522.896C438.671 522.896 438.314 522.529 437.954 522.631C437.457 522.773 437.458 523.724 437.689 524.072" stroke="#F0F2F5" stroke-linecap="round"/>
<path d="M462.845 348.307C460.6 348.182 453.854 348.147 456.102 348.147C457.772 348.147 459.441 348.161 461.111 348.147C462.605 348.136 459.84 347.874 459.624 347.864C458.479 347.815 457.018 347.829 455.996 347.829" stroke="#F0F2F5" stroke-linecap="round"/>
<path d="M463.004 349.581C462.371 349.616 461.722 349.81 461.093 349.9" stroke="#F0F2F5" stroke-width="3" stroke-linecap="round"/>
<path d="M461.73 349.74C460.972 348.82 458.424 349.068 457.412 349.015C455.457 348.912 453.469 348.87 451.519 349.068C450.74 349.147 451.234 349.269 451.767 349.351C452.892 349.524 454.082 349.422 455.217 349.422C456.947 349.422 458.525 349.031 460.226 348.944C460.697 348.92 460.991 348.447 461.411 348.307" stroke="#F0F2F5" stroke-width="3" stroke-linecap="round"/>
<path d="M461.411 347.51C459.804 347.51 458.416 347.988 456.828 347.988C454.778 347.988 452.729 348.148 450.669 348.148C447.384 348.148 444.181 348.034 440.945 348.528C439.819 348.7 438.683 348.54 437.556 348.661C435.774 348.852 434.055 349.071 432.247 349.094C429.234 349.134 426.217 349.115 423.204 349.103C421.725 349.098 420.261 348.822 418.815 348.785C415.222 348.693 411.672 349.194 408.091 349.262C404.812 349.326 401.543 349.422 398.26 349.422C396.308 349.422 394.316 350.059 392.367 350.059C391.362 350.059 392.02 350.199 392.641 350.307C394.332 350.6 396.119 350.537 397.826 350.537C399.994 350.537 402.049 350.102 404.197 350.059C406.321 350.016 408.426 349.74 410.55 349.74C413.181 349.74 415.812 349.74 418.443 349.74C425.043 349.74 431.629 349.9 438.228 349.9C446.261 349.9 454.263 350.218 462.296 350.218C462.951 350.218 463.606 350.226 464.261 350.209C465.39 350.18 465.842 350.109 464.561 349.776C463.598 349.525 456.409 348.3 456.633 349.422C456.762 350.066 458.665 350.233 459.111 350.289C460.968 350.521 462.937 350.648 464.809 350.501C466.306 350.384 467.762 349.982 469.278 349.908C471.052 349.822 469.1 349.797 468.384 349.776C464.625 349.665 460.94 349.837 457.217 350.342C456.498 350.439 457.133 350.377 457.341 350.377C459.211 350.377 461.081 350.381 462.951 350.377C467.941 350.369 472.985 350.445 477.94 349.758C478.148 349.729 478.363 349.723 478.56 349.652C478.898 349.529 477.84 349.607 477.48 349.616C475.333 349.674 473.172 349.75 471.038 350.006C469.866 350.146 468.701 350.358 467.543 350.59C467.298 350.639 466.641 350.826 466.871 350.926C467.972 351.408 470.003 350.888 471.074 350.714C473.105 350.383 475.221 350.074 477.179 349.422" stroke="#F0F2F5" stroke-width="3" stroke-linecap="round"/>
<path d="M430.738 583.392C430.329 583.73 429.259 584.622 428.772 584.993C428.488 585.21 428.146 585.457 428.449 585.007C428.876 584.373 429.391 583.811 429.877 583.224C429.967 583.114 430.855 581.693 430.817 581.698C430.51 581.739 429.999 582.572 429.792 582.784C429.375 583.212 428.808 583.689 428.566 584.253C428.47 584.478 428.995 584.002 429.156 583.818C429.237 583.725 429.565 583.161 429.198 583.467C427.941 584.515 426.92 586.01 425.884 587.268C425.595 587.619 425.32 588.038 425.112 588.447C424.848 588.966 424.63 590.207 424.04 590.469C423.625 590.654 423.218 590.868 422.786 591.012C422.688 591.045 422.991 590.495 423.006 590.469C423.233 590.083 423.512 589.734 423.783 589.378C423.801 589.354 424.359 588.535 424.316 588.503C424.169 588.393 423.351 589.392 423.24 589.561C422.914 590.059 422.608 590.252 422.15 590.595C421.855 590.816 421.808 591.143 421.808 591.48" stroke="#F0F2F5" stroke-width="3" stroke-linecap="round"/>
<path d="M420.767 594.976C420.451 594.976 419.938 595.012 419.806 594.632C419.602 594.044 419.974 593.295 420.236 592.79C420.28 592.705 420.522 592.314 420.478 592.65C420.403 593.212 419.859 593.233 419.533 593.461C419.487 593.494 420.302 592.135 419.955 592.415C419.872 592.482 419.049 593.102 419.237 593.227C419.673 593.518 420.857 593.092 421.329 593.009" stroke="#F0F2F5" stroke-width="3" stroke-linecap="round"/>
<path d="M421.259 600.494C421.556 600.42 422.908 600.305 423.139 600.016C423.159 599.992 422.461 599.963 422.402 599.963C421.649 599.963 420.907 600.069 420.156 600.069C420.033 600.069 420.941 599.933 421.164 599.857C421.508 599.74 420.788 599.911 420.769 599.916C420.315 600.038 419.885 600.207 419.419 600.281C418.567 600.418 417.755 600.812 416.908 600.812" stroke="black" stroke-width="3" stroke-linecap="round"/>
<path d="M418.288 600.069C417.685 600.069 417.048 599.929 416.59 600.388" stroke="black" stroke-width="3" stroke-linecap="round"/>
<path d="M417.545 600.387C418.404 600.387 419.411 599.835 420.245 599.621C420.564 599.539 421.097 599.653 421.365 599.485C421.54 599.376 422 599.231 422.214 599.22C423.061 599.176 423.881 599.114 424.737 599.114C425.248 599.114 425.556 598.902 426.034 598.902" stroke="black" stroke-width="3" stroke-linecap="round"/>
<path d="M438.257 477C434.824 477 431.639 478.772 428.226 479.363C426.174 479.718 424.209 480.405 422.174 480.811C421.208 481.005 418.779 481.469 418.396 482.617" stroke="#F0F2F5" stroke-width="3" stroke-linecap="round"/>
<path d="M414.183 483.419C415.397 483.419 416.522 483.047 417.66 482.617C418.458 482.316 419.215 481.983 419.99 481.625C420.343 481.462 420.872 481.037 421.249 481.012C423.027 480.893 424.649 480.061 426.421 479.853C427.334 479.745 428.861 479.854 429.63 479.206C431.011 478.044 433.471 478.232 435.047 477.356C435.384 477.169 437.081 476.296 436.496 476.041C435.731 475.709 437.637 475.449 437.856 475.395" stroke="#F0F2F5" stroke-width="3" stroke-linecap="round"/>
<path d="M423.804 475.345C424.758 475.034 425.708 474.686 426.704 474.531C426.884 474.503 427.054 474.457 427.227 474.403C427.609 474.286 427.958 474.055 428.356 473.942C428.539 473.89 428.726 473.856 428.908 473.802C428.99 473.777 429.149 473.671 428.98 473.742C428.753 473.837 428.561 473.995 428.325 474.085C427.733 474.311 427.12 474.5 426.516 474.69C425.986 474.858 424.978 474.879 424.689 475.457C424.578 475.68 424.772 475.612 424.939 475.557C425.257 475.452 425.582 475.357 425.893 475.233C426.172 475.121 426.47 475.073 426.766 475.021C427.07 474.967 427.365 474.822 427.664 474.74C428.352 474.552 428.983 474.277 429.685 474.11C430.187 473.991 430.603 473.848 431.113 473.786C431.478 473.742 431.994 473.823 432.347 473.705C432.583 473.627 432.719 473.605 432.977 473.605C433.193 473.605 433.629 473.69 433.807 473.561C433.933 473.47 434.547 473.549 433.894 473.549C433.151 473.549 432.583 473.598 431.886 473.873C431.456 474.043 431.09 474.28 430.639 474.403C430.236 474.513 429.85 474.636 429.46 474.784C428.711 475.067 427.836 474.876 427.115 475.189C426.782 475.334 426.38 475.356 426.074 475.557C425.99 475.612 425.86 475.604 425.812 475.682C425.71 475.845 425.353 475.906 425.176 475.906C424.967 475.906 423.178 475.878 423.529 476.493C423.699 476.79 424.318 476.171 424.449 476.131C424.774 476.031 424.989 475.962 425.338 475.962C425.53 475.962 424.984 476.115 424.817 476.209C424.778 476.231 424.458 476.333 424.596 476.352C424.902 476.396 425.124 476.078 425.403 476.015C425.817 475.923 426.227 475.704 426.641 475.629C427.146 475.537 427.598 475.227 428.041 474.98C428.144 474.923 428.139 474.816 428.225 474.753C428.532 474.527 428.966 474.517 429.27 474.307C429.613 474.069 430.037 473.894 430.427 473.742C431.022 473.511 431.703 473.443 432.31 473.24C432.708 473.108 433.139 473.09 433.539 472.957C433.932 472.825 434.519 472.658 434.748 472.314" stroke="#F0F2F5" stroke-width="3" stroke-linecap="round"/>
<path d="M422.498 473.744C423.142 473.774 423.726 473.553 424.191 474.057C424.76 474.673 425.594 474.132 426.228 473.903" stroke="#222A3E" stroke-width="3" stroke-linecap="round"/>
<path d="M424.879 474.459C426.312 474.459 427.753 474.218 429.164 473.983" stroke="#222A3E" stroke-width="3" stroke-linecap="round"/>
<path d="M423.927 476.046C423.482 475.682 422.729 476 422.322 476.258C422.056 476.426 421.753 476.658 421.603 476.945C421.392 477.353 422.999 476.843 423.01 476.84C423.797 476.563 424.494 476.136 425.17 475.658C425.308 475.56 425.514 475.33 425.514 475.61C425.514 475.813 425.392 476.23 425.091 476.152C424.719 476.055 425.907 475.459 425.928 475.451C426.49 475.235 427.078 475.001 427.657 474.838C428.663 474.554 429.546 474.114 430.39 473.507C430.701 473.283 430.917 472.983 431.21 472.748C431.533 472.49 432.074 472.315 432.462 472.197C433.594 471.855 434.823 471.627 436.007 471.602C436.386 471.594 436.349 471.584 436.033 471.761C435.755 471.916 435.506 472.136 435.231 472.281C434.444 472.696 433.686 473.121 432.837 473.423C432.215 473.644 431.538 473.681 430.902 473.842C430.443 473.957 430.028 474.256 429.632 474.503C428.694 475.089 427.895 475.217 426.81 475.371C426.119 475.47 425.466 475.57 424.906 476.015C424.5 476.337 423.27 477.274 423.724 477.025C425.441 476.08 427.286 475.984 429.147 475.49C430.16 475.222 430.91 474.659 431.739 474.062C432.339 473.63 432.732 473.411 433.441 473.189C434.008 473.012 434.686 472.989 435.275 472.872" stroke="#222A3E" stroke-width="3" stroke-linecap="round"/>
<path d="M426.308 473.11C427.63 472.618 428.895 472.045 430.276 471.716C431.077 471.526 433.533 471.284 432.709 471.284C431.686 471.284 430.641 471.594 429.649 471.805C428.987 471.945 428.305 472.06 427.657 472.259C427.113 472.425 427.843 472.395 427.921 472.395C429.55 472.41 431.179 472.296 432.806 472.254C433.214 472.244 433.635 472.22 434.045 472.241C434.073 472.243 434.267 472.235 434.208 472.334C434.116 472.489 433.112 473.219 433.326 473.171C433.925 473.038 435.396 472.251 436.007 472.695C436.2 472.836 436.8 472.713 437.039 472.713C437.435 472.713 437.638 472.591 437.815 472.237" stroke="#222A3E" stroke-width="3" stroke-linecap="round"/>
<path d="M408.217 415.201C408.236 414.088 408.3 412.977 408.3 411.863C408.3 411.329 408.134 410.794 408.134 410.24C408.134 409.092 407.967 412.533 407.967 413.681C407.967 413.973 408.036 415.686 407.633 415.619C407.182 415.543 407.346 413.957 407.28 413.597C407.196 413.13 407.049 412.632 407.049 412.16C407.049 411.271 406.877 410.438 406.794 409.564C406.789 409.518 406.658 409.055 406.636 409.211C406.604 409.434 406.631 409.677 406.631 409.902C406.631 410.213 406.653 410.406 406.757 410.695C407.235 412.034 407.216 413.366 407.216 414.784C407.216 415.624 407.048 414.937 406.923 414.538C406.831 414.241 406.859 413.887 406.803 413.579C406.695 412.986 406.631 412.359 406.631 411.747C406.631 411.339 406.54 411.029 406.427 410.639C406.304 410.212 406.313 409.752 406.196 409.341C405.816 408.014 407.439 411.902 407.466 413.282C407.474 413.699 407.466 414.117 407.466 414.534C407.466 414.923 407.336 415.243 407.294 415.619C407.23 416.195 406.852 416.076 406.515 415.665C406.387 415.508 406.631 415.19 406.631 414.993C406.631 414.277 406.798 413.505 406.798 412.781C406.798 410.887 406.812 409.159 407.549 407.357" stroke="#222A3E" stroke-width="3" stroke-linecap="round"/>
<path d="M465.027 175.295C465.714 175.448 466.414 175.541 467.096 175.713C467.305 175.765 467.516 175.81 467.732 175.81C467.794 175.81 467.854 175.812 467.916 175.816C468.01 175.821 468.097 175.806 468.188 175.796C468.243 175.79 468.297 175.784 468.352 175.787C468.394 175.789 468.434 175.808 468.475 175.817C468.533 175.828 468.592 175.828 468.651 175.837C468.835 175.865 469.026 175.9 469.213 175.902C469.383 175.903 469.554 175.91 469.725 175.91C469.884 175.91 470.034 175.922 470.191 175.956C470.261 175.971 470.33 175.985 470.399 176.009C470.439 176.023 470.483 176.04 470.527 176.04C470.639 176.04 470.75 176.04 470.862 176.04C470.946 176.04 470.804 176.017 470.783 176.014C470.608 175.986 470.434 175.987 470.257 175.987C470.083 175.987 469.913 175.981 469.74 175.959C469.631 175.945 469.521 175.924 469.411 175.918C469.351 175.915 469.291 175.918 469.231 175.913C469.003 175.896 468.774 175.889 468.547 175.866C468.255 175.837 467.96 175.782 467.667 175.779C467.51 175.777 467.354 175.764 467.196 175.764C467.045 175.764 466.893 175.764 466.741 175.764C466.587 175.764 466.432 175.765 466.278 175.764C466.147 175.762 466.001 175.754 465.873 175.729C465.726 175.702 465.58 175.667 465.432 175.645C465.286 175.623 465.139 175.616 464.993 175.594C464.927 175.585 464.862 175.579 464.798 175.565C464.75 175.556 464.692 175.56 464.651 175.533" stroke="#222A3E" stroke-width="3" stroke-linecap="round"/>
<path d="M471.308 175.933C471.315 175.963 471.373 175.963 471.377 175.995C471.38 176.018 471.364 176.051 471.354 176.071" stroke="#222A3E" stroke-width="3" stroke-linecap="round"/>
</svg>
